<svg xmlns="http://www.w3.org/2000/svg" viewBox="0 0 1652 880"><defs><style>.cls-1{fill:none;stroke:#fff;stroke-miterlimit:10;}.cls-2{fill:#f9eede;}.cls-3{fill:#cfc8af;}.cls-4{fill:#fff;}</style></defs><title>boxed_faces</title><g id="Layer_2" data-name="Layer 2"><g id="Layer_1-2" data-name="Layer 1"><rect class="cls-1" x="0.5" y="19" width="1651" height="843"/><path d="M584.44,713.34c4.55-.54,8.07-.86,11.55-1.4,5.11-.8,10.18-1.87,15.29-2.62a69.65,69.65,0,0,1,26.87.81,55.53,55.53,0,0,1,27,15.46A79.69,79.69,0,0,1,678.93,745c5.89,11.37,9.65,23.49,12.31,36a286.44,286.44,0,0,1,5.52,44.84,428.65,428.65,0,0,1-.25,43c-.18,3.68-.66,7.31-1,11.13h-2.8c-1-1-.63-2.23-.58-3.37.31-6.64.88-13.28,1-19.93.12-10.2.25-20.42-.21-30.61-.91-20.28-3.45-40.35-9.53-59.83a117.58,117.58,0,0,0-9-21.65,71.26,71.26,0,0,0-13.58-18,52.27,52.27,0,0,0-33.54-14.31c-8-.49-15.92.62-23.78,2.17a130.54,130.54,0,0,1-35.28,2.38,61.44,61.44,0,0,1-15.6-3.17c-15.37-5.35-24.28-16.24-27.2-32.12-2-10.65-1-21.2,1.35-31.69a6.87,6.87,0,0,1,.33-1.28c2-4.62,1.28-9.15-.13-13.78s-2.45-9.13-3.61-13.72c-.35-1.4-.55-2.85-.87-4.5-3.9-.69-5.28-3.56-5.29-7.33,0-2.51.17-5,.2-7.53a6.16,6.16,0,0,1,2.82-5.26,37.25,37.25,0,0,1,6.93-3.88c5.1-2,10.27-3.77,15.5-5.31,11.21-3.28,22.63-5.71,34.07-8,1.59-.32,3.18-.69,4.76-1.06.1,0,.16-.24.37-.57a26.72,26.72,0,0,0-7.44.27,184.26,184.26,0,0,0-27.65,6.24q-14.88,4.38-29.32,10.09c-1.23.48-2.49.89-3.75,1.34-.39-.37-.82-.6-1-1-4.3-8.78-8-17.8-10-27.41-1-4.64-1.56-9.34-.4-14.08.8-3.27,2.2-6.24,5.08-8,2.24-1.41,3.14-3.44,3.73-5.76a45,45,0,0,0,.55-18,27.57,27.57,0,0,0-3.31-10.05c-1.31-2.21-1.49-4.72-1.66-7.52l-6.57,1.24a7.22,7.22,0,0,1-1.11-1c-6.29-9.19-11.63-18.88-15-29.57a48.78,48.78,0,0,1-2.28-20.12c.46-4,1.85-7.43,5.11-10L500.2,434c1.05-.8,2.14-1.55,3.1-2.24,0-1.22-.76-1.3-1.43-1.53-1.76-.61-3.74-.68-5.68-2.19,4.75-2,9.6-2.47,14.18-4.4-.54-1.63-1-3-1.44-4.4a159.08,159.08,0,0,1-6.15-21.73c-.48-2.47-.82-5-1.1-7.46a20.35,20.35,0,0,1,0-4c.38-4.68,2.69-7.38,7.27-8.22a24.43,24.43,0,0,1,6.6-.41c3.81.38,7.58,1.16,11.37,1.76,1.11.17,2.22.32,3.93.56-3.61-6.93-6.93-13.32-10.24-19.7-2.14-.44-4,0-5.92.21-1.62.16-3.21.52-4.83.65a10.89,10.89,0,0,0-4.56,1.51c-4.3,2.43-7.58,1.57-11.27-2.91,1.71-.68,3.46-.65,5.12-1a15.94,15.94,0,0,1,3.08-.32,4.45,4.45,0,0,0,4.36-3.14,34.67,34.67,0,0,0,2-5.4,115.5,115.5,0,0,0,2.5-13.49,184.88,184.88,0,0,0,1.07-20.36c-.33-22.62,5.61-43.54,16.31-63.26a226.57,226.57,0,0,1,25.76-37.11c9-10.79,18.72-20.94,28.61-30.94,5.19-5.25,10.58-10.34,15.56-15.8,8.1-8.87,18.28-11.49,29.74-10.57,10.44.83,20.25,4,29.81,8.12,16.27,6.93,31.26,16.09,45.56,26.41a208.1,208.1,0,0,1,19.32,15.6c2.06,1.9,4.08,3.86,6,5.91,8.43,9,10.5,19.53,7.58,31.27-.32,1.28-.8,2.53-1.21,3.79.55,1.62,2.09,2,3.28,2.83,11.43,7.38,22.75,14.91,33.68,23,2.25,1.67,4.44,3.44,6.69,5.12a60.41,60.41,0,0,1,15.44,17.53A135.72,135.72,0,0,1,804,317.63c4.77,11.94,9.41,23.93,14.12,35.89q2.19,5.57,4.5,11.09a39.93,39.93,0,0,0,5.28,9.21,23.52,23.52,0,0,0,18.72,9.46,52.64,52.64,0,0,0,16.16-2.39,137.58,137.58,0,0,0,19.05-7.21C891.92,369,902,364.32,912,359.61a58.09,58.09,0,0,1,16.39-5.28c12.93-1.89,24,1.72,32.9,11.38a48,48,0,0,1,10.39,18.88c3.45,11.19,4.09,22.66,3.11,34.24a150.22,150.22,0,0,1-9,40.11,14.28,14.28,0,0,0-.41,1.86c.83.44,1.56.92,2.35,1.26,29.8,12.63,59.63,25.16,90.18,35.89,3.76,1.33,7.61,2.39,11.4,3.63,4.55,1.49,8.07,0,11-3.57a36.1,36.1,0,0,0,4.91-8.4,99.55,99.55,0,0,0,5.89-19.49,165,165,0,0,0,3.25-22.36,19.58,19.58,0,0,0-1.41-9.09c-3.41-8.19-6.77-16.4-10.14-24.6-.54-1.33-1.06-2.68-1.58-4,.3-.15.42-.25.54-.25a.58.58,0,0,1,.41.11L1094,421.64c1.3-.08,1.44-1.08,1.89-1.76,1.91-2.81,3.69-5.72,5.71-8.45a15.4,15.4,0,0,0,2.33-14.29,29.09,29.09,0,0,0-3.8-8,46,46,0,0,0-15.42-14.41,32.75,32.75,0,0,0-10-3.58c-13.41-2.73-24.08-10.16-33.4-19.82-.15-.16-.11-.52-.18-.94a26.73,26.73,0,0,1,3.8,0c13,1.87,26,3.8,39,5.71,2.78.4,5.54.94,8.34,1.17a13.73,13.73,0,0,1,7,2.51q5.23,3.72,10.46,7.46c.71.51,1.37,1.08,2.23,1.77a24.08,24.08,0,0,0,1.89-1.92,119.28,119.28,0,0,0,15.87-27.6,21.32,21.32,0,0,0,1.67-10.4,10.82,10.82,0,0,0-3.48-7.32c-.47,1.29-.92,2.35-1.25,3.44a127.29,127.29,0,0,1-7.44,19.44c-2.87,5.77-6.5,10.92-11.72,14.82-.45.33-.95.6-2,1.25.62-1.92,1-3.3,1.51-4.65a18.66,18.66,0,0,0,1.17-7.83,10.5,10.5,0,0,0-6.06-9.15,22.13,22.13,0,0,0-9-2.21c-7.3-.42-14.44.69-21.53,2.28a248.52,248.52,0,0,0-24.64,7.28,22,22,0,0,1-6.46,1.33c1.48-.93,3-1.87,4.46-2.78,13.81-8.31,27.64-16.57,41.41-24.93,4.55-2.76,9-5.66,13.42-8.64a12.09,12.09,0,0,1,6.62-2.14,35.88,35.88,0,0,1,15.09,3.05c1.21.51,2.39,1.05,3.94,1.74a7.38,7.38,0,0,0,.17-2.31c-.86-2.82-1.93-5.58-2.75-8.42a42.53,42.53,0,0,1-1.2-19.76c1.89-10,7.66-17.43,16.29-22.71.75-.46,1.56-.84,2.33-1.28s1.24-.76,1.86-1.14c-3.23-5.26-10-10.13-15.54-11.07a18.93,18.93,0,0,0-12.45,2,31.91,31.91,0,0,0-9.64,7.73c-2.74,3.28-5.19,6.8-7.72,10.26-.78,1.06-1.39,2.25-2.14,3.48a37.67,37.67,0,0,1-16.23-4.06c-7.12-3.78-10.17-10.16-8.84-18.13a38.23,38.23,0,0,1,3.45-10.49,86.08,86.08,0,0,1,17-23.09c.19-.2.53-.25,1.17-.53-.44,1.47-.78,2.69-1.17,3.9-.68,2.11-1.58,4.17-2.05,6.32-.82,3.66.65,5.7,4.34,6.25a13.9,13.9,0,0,0,4,0,50.43,50.43,0,0,0,20.72-7.39c4.87-3.21,10.14-4.69,15.7-5.64a59.74,59.74,0,0,1,12.81-.81c.73,0,1.46,0,2.55,0a8.64,8.64,0,0,0-.72-2.18,51.66,51.66,0,0,0-4.33-5.61A104.89,104.89,0,0,1,1132,195.14c-9.88-14.76-18.74-30.13-27.41-45.61a10,10,0,0,1-1.43-4.6c-.68-16.43-5-32.09-10.41-47.46-2.76-7.79-6.13-15.37-9.18-23.06a66.16,66.16,0,0,1-2.2-6.25,123.2,123.2,0,0,0-8.13-21.54c-.65-1.27-1-2.79-2.54-3.63a18.08,18.08,0,0,0-4.31,4c.63,1,1.21,2,1.83,3a50.83,50.83,0,0,1,7.58,18.33c.16.87.3,1.74.39,2.62a16.7,16.7,0,0,1,0,1.73c-1.33.66-2-.39-2.75-.92a69.72,69.72,0,0,0-15.07-8.39c-2.06-.8-4.17-1.49-6.27-2.19a4.53,4.53,0,0,0-4.22.51c-1.8,1.23-3.71,2.3-5.78,3.55.73,1.54,1.33,2.86,2,4.16A90.84,90.84,0,0,1,1052.66,95c1.61,10,1.2,19.75-3.16,29.09a14.12,14.12,0,0,0-.48,1.44c.91.45,1.8.92,2.73,1.31,2.44,1,4.92,2,7.34,3.11a12.43,12.43,0,0,1,3,1.91,1.9,1.9,0,0,1-.68,3.23,11.43,11.43,0,0,1-3.91.3c-3.09-.29-6.16-.77-9.24-1.16l-4.85-.58a15.6,15.6,0,0,0-1.47,1.08c-4.09,3.77-3.24,3.54-9.06,3.2a77.21,77.21,0,0,1-19.17-3.32,47.74,47.74,0,0,1-11.26-5.14,29.53,29.53,0,0,1-10.09-10.39c-.36-.64-.75-1.27-1.21-2l-4.19-.44,3.2-1.76c-.39-2.38-.79-4.81-1.15-7,1-1,1.91-.62,2.72-.38,3.25,1,6.52,1.91,9.72,3,2.63.93,5.15,1.23,8-.39a11.26,11.26,0,0,0-1.79-1.11c-6.83-2.4-13.75-4.55-20.47-7.21A118.85,118.85,0,0,1,974,95.19a19.18,19.18,0,0,1-6.51-5.48,12,12,0,0,1,1.24-1.78c13.92-13.93,29.82-24.65,49-30a65.85,65.85,0,0,1,28.54-1.65,5.09,5.09,0,0,0,4.51-1.1c2.82-2.4,5.71-4.7,8.54-7.07a11.29,11.29,0,0,0,1.22-1.47c-.63-.77-1.13-1.46-1.73-2.07-7.26-7.35-16.12-11.87-26-14.61a95.28,95.28,0,0,0-27.67-3c-15.32.29-30.24,3.14-45,7-2.85.75-5.71,1.45-8.58,2.16-.11,0-.27-.11-.64-.26A7.41,7.41,0,0,1,952,34.59c15.64-11.28,32.68-19.55,51.6-23.7a74.59,74.59,0,0,1,29.5-1c14.64,2.66,26.31,10.14,35.34,21.87.91,1.17,1.8,2.35,2.7,3.51a1.54,1.54,0,0,0,.41.29c1.57-.3,2.32-1.7,3.3-2.74,8.85-9.36,17.16-19.18,25.13-29.28.9-1.13,1.84-2.21,3-3.54a14.92,14.92,0,0,1,2.67,5.33A114.94,114.94,0,0,1,1110,23c2.73,14.83,4.78,29.77,6.39,44.76,1.7,15.88,3.31,31.76,4.94,47.65.18,1.74.21,3.51.33,5.55l-3,.42A5.56,5.56,0,0,1,1118,120c-.58-5.74-1.1-11.48-1.7-17.22-1.36-12.93-2.63-25.88-4.2-38.8-1.39-11.44-3-22.85-4.77-34.25-.82-5.4-2.07-10.73-3.19-16.08-.39-1.88-1-3.71-1.44-5.43-1.34-.65-1.76.33-2.3,1-5.44,6.43-10.82,12.92-16.32,19.3-3.19,3.69-6.58,7.19-10,10.91a21.43,21.43,0,0,0,1,2.4,119.42,119.42,0,0,1,9.53,23.83,71,71,0,0,0,3.2,8.71,262,262,0,0,1,15.55,45.22,134.69,134.69,0,0,1,3.57,23.2,15.7,15.7,0,0,0,2.2,7.09c7.61,13.36,15.29,26.68,23.68,39.57a134.42,134.42,0,0,0,13.6,18,70.51,70.51,0,0,1,6.44,9,5.88,5.88,0,0,0,3.33,2.66,28.51,28.51,0,0,1,5.66,2.48,18.81,18.81,0,0,1,9.58,15.11,29,29,0,0,1-7.14,22.59,46.1,46.1,0,0,1-11.58,9.56,67.28,67.28,0,0,1-18.79,7.74c-2.14.52-4.26,1.12-6.33,1.66a23.34,23.34,0,0,0-2.45,9.11,45.08,45.08,0,0,0,2.94,19.59c1.2,3.24,2.34,6.37,1.16,9.82a18.52,18.52,0,0,0,1.13,1.51c5.2,5.68,6.08,12.27,4.1,19.44a38.18,38.18,0,0,1-1.83,5A122.47,122.47,0,0,1,1117,369.46c-.45.58-.91,1.16-1.33,1.77a5.34,5.34,0,0,0-.43,1c1,1.49,2.14,3,3.16,4.64a19.81,19.81,0,0,1,3.22,14.37,14,14,0,0,1-4.2,8.12,8.16,8.16,0,0,1-2.6,1.59,2.22,2.22,0,0,1-3.12-1.56c-1.58-6.53-4.78-12.38-7.71-18.35-.32-.65-.6-1.31-1-2.08,1.94-2.31,4.51-3.92,6.29-6.64a12.7,12.7,0,0,0-1.73-1.89c-3.57-2.62-7.14-5.26-10.84-7.69a11.59,11.59,0,0,0-4.53-1.6c-12.12-1.84-24.26-3.58-36.4-5.32a21.41,21.41,0,0,0-2.89,0c0,1.31,1,1.63,1.65,2.11,6.69,4.78,13.86,8.44,22.06,9.9a27.49,27.49,0,0,1,6.74,2.11,47.15,47.15,0,0,1,21.69,20.21,25.39,25.39,0,0,1,3.36,10.93,18.09,18.09,0,0,1-3.43,12.11c-1.65,2.27-3.25,4.59-4.77,7-1,1.47-1.72,3.06-2.58,4.62l1.47,2.71c-3.19,1.25-3.19,1.25-6.94-1.35.42,1.31.68,2.27,1,3.19,1.31,3.45,2.67,6.88,4,10.34a14.13,14.13,0,0,1,1,6.08,169.76,169.76,0,0,1-6.83,37.88,61.64,61.64,0,0,1-5.32,12.65,24.65,24.65,0,0,1-5.53,6.87,11.09,11.09,0,0,1-9.5,2.62,59.25,59.25,0,0,1-6-1.53c-13.15-4-26-8.91-38.75-14-19.47-7.82-38.84-15.88-58.26-23.84l-4.21-1.72a9.35,9.35,0,0,0-1.15,1.36c-10.19,19.62-26.3,32.36-46.64,40.14a133.48,133.48,0,0,1-32.27,7.6,169.09,169.09,0,0,1-23.91.89c-1,0-2.06,0-3,0-1.44,1.48-1.63,3.32-2.19,5-8.32,24.65-16.51,49.33-24.92,73.94-3.92,11.46-8.41,22.73-12.34,34.19a19.72,19.72,0,0,1-10.52,11.92c-5.72,2.76-11.4,5.63-17.24,8.09C771.07,655.51,752.05,662,733,668.31c-46,15.21-92.45,29.06-139.19,41.88-2.41.66-4.83,1.35-7.23,2.06A18.7,18.7,0,0,0,584.44,713.34ZM508,572.61c.22.16,5,14.29,7.26,18.29,1.55-.56,2.93-1,4.3-1.56,14-5.23,28.13-10,42.75-13.13,7.82-1.7,15.69-2.86,23.74-2.39a20.31,20.31,0,0,1,10.79,3.57c.57.4,1.32.68,1,1.72-1.55.31-3.13.66-4.73.93-14.42,2.49-28.76,5.38-42.9,9.11-6.56,1.73-13,3.89-19.45,6.06a41.41,41.41,0,0,0-7.15,3.48c-1,.55-2.16,1.62-2.25,2.54a80.62,80.62,0,0,0-.18,9.71,1.66,1.66,0,0,0,2.26,1.46,33.13,33.13,0,0,0,5.21-2.37c7.51-4.44,15-9,22.46-13.43.83-.5,1.76-.84,2.78-1.32l1.7,3c-3.39,2.47-6.6,4.82-9.83,7.16s-6.26,4.46-9.32,6.78-6.63,4.36-9.49,7.26c.22,1.13.38,2.14.63,3.13,1.48,5.72,2.94,11.45,4.5,17.15a7.86,7.86,0,0,1-.11,5.2,21.54,21.54,0,0,0-.83,3c-2.51,10.43-3.9,20.92-2.21,31.64,2.42,15.44,10.76,26,25.72,30.88a60.31,60.31,0,0,0,18.76,2.95,21.2,21.2,0,0,0,2.62-.34,43.74,43.74,0,0,1-1.25-15.16A151.82,151.82,0,0,1,589.38,643a103.32,103.32,0,0,1,12-19.64,213.18,213.18,0,0,0,18-27.4A422.16,422.16,0,0,0,645.24,540c3.53-9.26,7-18.55,9.21-28.21a69.36,69.36,0,0,1,5.38-15,105.07,105.07,0,0,1,22.51-30.54,87.91,87.91,0,0,1,30.71-19,101.94,101.94,0,0,1,20.28-4.56,31.88,31.88,0,0,0,7.25-1.9,14.9,14.9,0,0,0,9.3-11.07,23.86,23.86,0,0,0,.49-9.69A86.7,86.7,0,0,0,747.7,408c-4.9-14.89-12.6-28.31-22.18-40.68-1-1.26-2.16-2.36-3.12-3.4l-45.85,10.67c-4.74,7.69-7.93,10.95-14.26,14.54a59,59,0,0,1-13.95,5.61c-13.54,3.63-27.37,4.46-41.32,4.17a4.67,4.67,0,0,1-1.34-.58c.22-1.46.36-2.92.64-4.34.69-3.48,1.45-6.94,2.13-10.43a11.36,11.36,0,0,0,0-2,2.7,2.7,0,0,0-.69-.11c-1.41.41-2.85.74-4.21,1.27a7,7,0,0,1-4.34.28,7.94,7.94,0,0,1-6.35-8.44,21.53,21.53,0,0,1,2.09-8.11,66.47,66.47,0,0,1,9.28-15.06,13.25,13.25,0,0,1,3.34-2.84,79.68,79.68,0,0,1,15.9-7.78,68.54,68.54,0,0,1,38.38-2.83,74,74,0,0,1,16.29,5.67c.85.41,1.63,1.37,2.78.72.14-6.81,1.7-10.09,6.77-14.11,1.15-.92,2.44-1.66,3.63-2.53.69-.5,1.31-1.08,2-1.66a37.1,37.1,0,0,0-5.34-9.37,4.36,4.36,0,0,0-3.26-2c-.88-.06-1.74-.35-2.62-.46a131,131,0,0,0-30.08-.45,104.44,104.44,0,0,0-51,19.83,123,123,0,0,0-15.38,13.37,25.15,25.15,0,0,1-2.29,1.83,8.85,8.85,0,0,1-1-1.27q-7.46-14.86-14.86-29.75a7.2,7.2,0,0,1-.34-1.7c1.23-.59,2.26-1.14,3.34-1.59,19.87-8.28,40.31-14.53,61.76-17a98.93,98.93,0,0,1,29.6.57c9.32,1.74,17.89,5.14,24.91,11.74a8.55,8.55,0,0,0,4.26,2.16c3,.66,6.07,1.28,9.07,2.06a126.13,126.13,0,0,1,20.48,7.15c1.34.6,2.7,1.15,3.28,2.74,1.78,4.85,5,8.69,8.69,12.17a122.54,122.54,0,0,0,11,9.67c7,5.23,14,10.34,21.34,15.11,18.44,12.08,37.73,22.71,57.25,32.93C866.48,417,912,437.93,957.94,457.84c1.07.46,2.18.81,3.58,1.33.75-1.94,1.52-3.68,2.13-5.48a153.26,153.26,0,0,0,6.87-29.75,96.53,96.53,0,0,0-.66-31.36,53.31,53.31,0,0,0-8-20c-5.74-8.34-13.46-13.55-23.67-14.75A37,37,0,0,0,922,359.7a109.13,109.13,0,0,0-10.64,4.38c-10.21,4.67-20.34,9.51-30.57,14.15a120.07,120.07,0,0,1-20,7.09,49.49,49.49,0,0,1-16.7,1.52,26.12,26.12,0,0,1-16.2-7.41A36.89,36.89,0,0,1,820,367.78c-1.28-2.82-2.46-5.7-3.6-8.58-5-12.79-10-25.61-15.06-38.38a148.2,148.2,0,0,0-9.6-20,58.19,58.19,0,0,0-15.59-18c-2.26-1.67-4.44-3.44-6.7-5.11-11.54-8.53-23.48-16.45-35.58-24.16-1.22-.78-2.4-1.62-3.73-2.53.56-1.29,1.07-2.34,1.48-3.42,4.31-11.39,2.87-21.81-5.54-30.85a120.92,120.92,0,0,0-9.66-9.14,253.87,253.87,0,0,0-41-28.73,160.26,160.26,0,0,0-28.18-12.86A77,77,0,0,0,626,161.82c-9.8-.41-18.32,2.13-25.12,9.7-4.64,5.16-9.74,9.91-14.63,14.85-11.54,11.67-22.88,23.54-33.15,36.37s-19.61,26.69-26.42,41.91c-6,13.48-9.93,27.5-10.5,42.34-.25,6.5-.26,13-.57,19.51-.48,9.91-1.42,19.76-5.07,29.14a3,3,0,0,0,.07,1c4,.6,7.81-1.17,12-.79q7.58,14.69,15.17,29.48c.1.18-.13.52-.27,1-.53-.15-1.06-.28-1.58-.44-3.68-1.09-7.34-2.29-11.05-3.25a40.63,40.63,0,0,0-13.17-1.41c-4.95.36-6.58,2.08-6.39,7a53.92,53.92,0,0,0,1,7.91c1.75,9.18,4.73,18,7.92,26.75.39,1.05.64,2.15,1,3.36l-5,1.74,2.29,2c-1.31.93-2.52,1.76-3.7,2.62-6.2,4.54-12.36,9.13-18.6,13.62-3.43,2.47-4.7,5.86-4.91,9.92a49,49,0,0,0,2.43,17.46,105.41,105.41,0,0,0,12.24,25,20.07,20.07,0,0,0,1.71,2.07l6.13-1.6c1.78-2.91,3.08-5.62,4.93-7.89a15.09,15.09,0,0,0,3.44-8.42c0-.44.11-.88.19-1.31.77-4.11,2.89-5.51,6.92-4.61a23,23,0,0,1,8.33,4,12.47,12.47,0,0,0,9.25,2.21,36.16,36.16,0,0,0,13-4.2c4.94-2.72,6.37-6.62,4.56-12a24.26,24.26,0,0,0-4.71-8c-1.92-2.25-3.86-4.47-5.77-6.74-.31-.37-.89-.84.08-1.52,3.9,2.77,7.94,5.5,11.82,8.43a25.22,25.22,0,0,1,7.51,8.64,14.3,14.3,0,0,1-.08,14A22.36,22.36,0,0,1,564,486.5a33.51,33.51,0,0,1-15.71,9.55,14.93,14.93,0,0,1-5.23.53,32.05,32.05,0,0,0-8.81.52q-6.11,1.09-12.17,2.47c-3.58.8-7.14,1.76-10.49,2.6-1.46,2.79-.92,5.1.19,7.51a39.57,39.57,0,0,1,2.8,7.44,50.35,50.35,0,0,1,.37,22,23.16,23.16,0,0,0-.25,2.88c5,.62,5,.62,8.78-1,.27-.12.53-.26.8-.37,9.47-3.89,18.83-4.24,28.33.21,11.65,5.46,23.29,10.9,34.58,17.07,2.59,1.41,5.13,2.94,7.61,4.54a13.49,13.49,0,0,1,3,2.64,2.15,2.15,0,0,1-1.37,3.42,18.08,18.08,0,0,1-4-.19c-3.23-.4-6.43-1-9.66-1.29-14.3-1.17-28.63-1.57-43-1.74-1.13,0-2.27.17-3.19.24-1.48,3.28-2.71,6.29-4.16,9.19a22,22,0,0,1-6.37,7.86,12.94,12.94,0,0,1-9.54,2.82A4,4,0,0,1,513,583c-.6-1.35-1.23-2.69-1.95-4C510.92,578.77,508.18,572.8,508,572.61Zm562.1-237.4c1.6-.17,3.21-.24,4.79-.53,6.7-1.23,13.44-2,20.24-1.26a30.83,30.83,0,0,1,7.68,1.89,14,14,0,0,1,9,10.68c.13.65-.12,1.49.72,1.86.3-.11.7-.14.81-.32,1.47-2.72,3-5.4,4.31-8.22a123.1,123.1,0,0,0,6.47-18.8,14.34,14.34,0,0,0,.18-2.33,31.65,31.65,0,0,0-17.15-5.12,8.84,8.84,0,0,0-5.35,1.69c-4.29,2.88-8.64,5.66-13,8.38-5.63,3.5-11.33,6.91-17,10.39-.68.42-1.72.62-1.6,1.79l-.69,0,.17.48ZM1149.36,261c9-11.12,8.75-27,1.59-39.19-6.7-1.5-13.42-.78-20.12.53-3.49.68-7,1.45-9.94,3.53-5.53,3.87-11.75,6.18-18.2,7.88a28.84,28.84,0,0,1-10.08,1.12c-3.41-.32-6.33-1.46-7.87-4.86a13.37,13.37,0,0,0-1-1.56c-4.36,5.75-7.82,11.54-9.74,18.15a21.1,21.1,0,0,0-.78,4.8c-.22,4.42,1.28,8.17,5,10.79,4.31,3.09,9.25,4.35,14.5,4.78.86-1.3,1.52-2.45,2.32-3.49,2.52-3.27,5-6.62,7.69-9.71a33.87,33.87,0,0,1,9.76-7.56,22.39,22.39,0,0,1,16.3-2.18,26.51,26.51,0,0,1,10.16,5.28,48.61,48.61,0,0,1,10.58,11.77,5.79,5.79,0,0,0-2.08-.16,32.78,32.78,0,0,0-17.43,12.73c-.19.28-.11.73-.23,1.65C1137.41,271.53,1144.12,267.29,1149.36,261ZM579.1,709.68c2.62.12,4.71-.74,6.8-1.32,20.49-5.73,41-11.36,61.41-17.34,35.58-10.42,71-21.37,106-33.61,14.64-5.12,29.24-10.38,43.33-16.9,3.75-1.74,7.36-3.78,11-5.77a11.17,11.17,0,0,0,5.28-6.29c2.26-6.25,4.79-12.4,7-18.66,11.19-31.15,21.56-62.58,31.93-94,.55-1.67,1.14-3.32,1.63-4.75a4.59,4.59,0,0,1,.76-.3c.73,0,1.47,0,2.2,0a155.26,155.26,0,0,0,37.95-2.49,111.91,111.91,0,0,0,32.93-11.46c13.43-7.37,24-17.6,31.19-31.23.39-.75.66-1.56,1-2.4-1.64-1.49-3.53-2-5.25-2.73q-38.64-16.76-76.68-34.82c-30.29-14.43-60.29-29.42-89.39-46.14-14.88-8.54-29.49-17.5-43.22-27.82A136.69,136.69,0,0,1,730.18,339c-3.67-3.69-7.09-7.57-9.28-12.35A5,5,0,0,0,718,324.1a134.63,134.63,0,0,0-22.71-7.44,9.33,9.33,0,0,0-2.3.08c2,4,4.3,7.45,5,11.64-1.51.79-2.82,1.45-4.11,2.16a22.82,22.82,0,0,0-6.6,5.15c-3.1,3.68-3.41,7.43-.73,11.37a24.31,24.31,0,0,0,3.59,3.87c1.5,1.39,3.12,2.64,4.93,4.16l-2.49,2.82c-1.41-1.06-2.67-1.85-3.75-2.83a54.34,54.34,0,0,0-15.83-9.63,63.14,63.14,0,0,0-37.74-4.17A77.81,77.81,0,0,0,610,351.45a9.26,9.26,0,0,0-2.45,1.87c-4.26,5.34-8,11-10.16,17.55a12.65,12.65,0,0,0-.7,4.34,4.21,4.21,0,0,0,5.62,3.88c.85-.25,1.67-.59,2.51-.88,17.16-5.83,34.68-9.69,52.88-10.27a96.44,96.44,0,0,0,12.27-1.67,6.5,6.5,0,0,0,4.19-2c.75-2.28-1-4.32-.2-7,1.23,1.37,2.21,2.42,3.16,3.49a5.31,5.31,0,0,1,1.28,4.52,34.08,34.08,0,0,0-.05,4.56c1.3-.17,2.46-.23,3.57-.49,12.79-3,25.59-6,38.35-9.14a4.81,4.81,0,0,1,5.21,1.39c1.59,1.75,3.23,3.47,4.67,5.33a141.5,141.5,0,0,1,14,22.57,109.14,109.14,0,0,1,7.9,19.72,50.3,50.3,0,0,1,2.18,17.07c-.63,9.68-5.84,16.32-15.17,19a43.87,43.87,0,0,1-7.37,1.45A79.27,79.27,0,0,0,693,462.26,98.17,98.17,0,0,0,663,498.94a57.74,57.74,0,0,0-4.82,13.77,72.94,72.94,0,0,1-2,7.27,427.27,427.27,0,0,1-32.33,75.71,215.35,215.35,0,0,1-19.56,30.09,101.5,101.5,0,0,0-11.15,18.09,145.37,145.37,0,0,0-10.93,30.85,123.77,123.77,0,0,0-3.8,27.62A21.73,21.73,0,0,0,579.1,709.68ZM1042.66,60c-.21-.34-.26-.54-.35-.56a7.42,7.42,0,0,0-1.3-.24,65.37,65.37,0,0,0-22.35,2.28c-17.3,4.93-31.85,14.47-44.79,26.72a7.44,7.44,0,0,0-1,1.73A63.41,63.41,0,0,0,979,93.77c4.65,2.23,9.33,4.43,14.13,6.3a221.3,221.3,0,0,0,29.2,8.86,19.13,19.13,0,0,1,2.77,1.31l-5.79,1.5c-.58.16-1.13.38-1,1.36,4.83,0,9.69,0,14.55,0,.66,0,1.52-.19,1.63.84-1.14,1.21-3.13,1.17-4.4,3,4-.07,7.45-1.45,11.25-1.39-1.38,2.57-4.28,3.11-5.51,5.56a42.93,42.93,0,0,0,8.9,2.93,10.49,10.49,0,0,0,2.36-4.34,43.49,43.49,0,0,0,2.09-21.8c-1.49-11-5.37-21.12-10.64-30.79-.62-1.13-1.25-2.27-1.88-3.44C1038.56,61.91,1041.29,62,1042.66,60ZM584.23,342.87A121.56,121.56,0,0,1,612.54,322a111.6,111.6,0,0,1,33.05-11.09c11.36-1.95,22.78-1.79,34.33-.92-.2-.58-.22-1-.41-1.1a32,32,0,0,0-3-1.89c-7.41-4-15.46-5.78-23.8-6.3a115.64,115.64,0,0,0-23.88,1c-18.81,2.77-36.88,8.19-54.5,15.23a18.69,18.69,0,0,0-2.37,1.41Zm4,220.07a9.44,9.44,0,0,0-1-.75Q568.53,551.92,549,543.43a29.66,29.66,0,0,0-4.62-1.5c-7-1.71-13.5-.14-19.81,2.71-2.45,1.1-4.77,2.24-7.58,1.6a11.28,11.28,0,0,0-2.65.08,4.31,4.31,0,0,0-3.34,1.84,11,11,0,0,0-2.27,8.75c.92,8.17,3.69,15.79,7.11,23.2.7,1.51,1.58,1.81,3.29,1.48a12,12,0,0,0,7-4.37,32.26,32.26,0,0,0,5.52-10.05c.66-1.79,1.3-3.59,2-5.59C551.89,561.33,570,562.08,588.2,562.94ZM973.68,26.72c1-.14,2-.23,3-.42a183.83,183.83,0,0,1,23.28-3,105.62,105.62,0,0,1,30.41,2.13c12.23,2.74,23.1,8.08,31.94,17.17a13.8,13.8,0,0,0,1.42,1.1,19.2,19.2,0,0,0,4.77-4.65,5,5,0,0,0-.44-1.34C1058.16,23,1044.64,14.23,1026.68,13a74.92,74.92,0,0,0-18.55,1A103.64,103.64,0,0,0,973.68,26.72ZM643.62,378c1.22-.35,2.06-.66,2.92-.84,5.91-1.28,11.82-2.53,17.73-3.8,2.74-.6,5.49-1.17,8.2-1.86,1-.26,1.53-.92.39-1.93a73.85,73.85,0,0,1-16.12,2.23,167.73,167.73,0,0,0-41.34,7c-.94.27-1.84.71-2.86,1.12a6.28,6.28,0,0,0,.78,1.29A43.13,43.13,0,0,0,624.56,389a25.88,25.88,0,0,0,5.43,1.82,8.93,8.93,0,0,0,9.69-3.8,29.11,29.11,0,0,0,2.64-5.08C642.85,380.71,643.15,379.41,643.62,378Zm-80.35,91.47c.22,7.31-3.81,11.34-9.87,14a42.91,42.91,0,0,1-10.56,3.26c-4.81.73-9.39.32-13.53-2.72a27.94,27.94,0,0,0-5.86-3.07,7.9,7.9,0,0,0-2.88-.06,6.38,6.38,0,0,0-.49,1.43c-.35,4.35-1.38,8.41-4.63,11.61a6.15,6.15,0,0,0-1,1.47c-.32.6-.94,1.18-.11,2.07,4.22-.91,8.52-1.91,12.84-2.75,5.64-1.1,11.26-2.55,17.11-1.66a6.29,6.29,0,0,0,2.59-.46,33.08,33.08,0,0,0,14-8.26,14.9,14.9,0,0,0,3.85-5.88C565.77,475.2,565.75,472.13,563.27,469.42Zm594-245.84c-.72,1.58.26,2.7.57,3.92s.71,2.56,1,3.85a31.86,31.86,0,0,1,.71,3.47c.18,1.31.27,2.64.33,4s.06,2.66,0,4a35,35,0,0,1-.3,4,32,32,0,0,1-.83,3.89,38.94,38.94,0,0,1-1.26,3.78,32.16,32.16,0,0,1-1.49,3.21c-.63,1.16-1.41,2.25-2,3.42s-1.78,1.85-2,3.77c6.13-4,10.94-8.64,13.77-15.06a24,24,0,0,0,1.77-13.43C1166.61,230.14,1163.16,225.89,1157.24,223.58ZM640.81,392.15a53.45,53.45,0,0,0,21.24-7.36,28.35,28.35,0,0,0,7.63-6.64,11.21,11.21,0,0,0,.94-1.83c-.4-.13-.55-.23-.68-.21-7.34,1.52-14.69,3-22,4.58a2.37,2.37,0,0,0-1.78,1.79A29.91,29.91,0,0,1,640.81,392.15Zm363.86-266a22.85,22.85,0,0,0,7.74,4.07,67.65,67.65,0,0,0,23,3.92c.47,0,1.19,0,1.31-1.06a9.35,9.35,0,0,0-3.63-.92c-1.17-.16-2.36-.24-3.53-.4s-2.62-.41-3.94-.6-2.36-.24-3.51-.49-2.56-.14-3.9-.94c1.24-1.72,2.88-2.49,4.15-3.66s3-1.74,3.83-3.76a9.13,9.13,0,0,0-2-.15q-9.39,1.59-18.76,3.27C1005.23,125.45,1005,125.79,1004.67,126.13Zm103,253.61c1.46,3.07,2.65,5.61,3.88,8.13s2,5.4,3.56,8.16a10.34,10.34,0,0,0,3-8.35c-.23-4.81-2.46-8.7-5.78-12.47ZM1054.23,57.81c2.11.8,3.88,1.43,5.61,2.15,1.89.79,3.73,1.72,5.63,2.51,1.69.71,3.11,2.06,5.11,2.4-.86-5.25-4.3-11.81-7.7-14.64C1060.06,52.63,1057,54.75,1054.23,57.81Zm-52.58,66.4a35.49,35.49,0,0,0,12.46-5.67,14.11,14.11,0,0,0-5.89-1.75c-5.79-.33-9.93-.09-12.2.85A19.57,19.57,0,0,0,1001.65,124.21ZM611.78,385.72c-.28,3.38-1.8,6.08-1.17,9a55.58,55.58,0,0,0,15.71-.54c-1.51-1.34-3.31-1.6-4.75-2.49-1.62-1-3.26-2-4.88-3S614,386.48,611.78,385.72Zm416.07-259,.24.89c4,.55,8.07,1.11,12.11,1.64.93.12,1.73-.13,2-1.61a85.6,85.6,0,0,0-10.74-3.75ZM995.13,114l.83-.92a5.54,5.54,0,0,0-1.33-.58c-.14,0-.37.53-.56.82Zm51.55,15.61V130h1.4v-.35Z"/><path class="cls-2" d="M579.1,709.68a21.73,21.73,0,0,1-.72-7.34,123.77,123.77,0,0,1,3.8-27.62,145.37,145.37,0,0,1,10.93-30.85,101.5,101.5,0,0,1,11.15-18.09,215.35,215.35,0,0,0,19.56-30.09A427.27,427.27,0,0,0,656.15,520a72.94,72.94,0,0,0,2-7.27A57.74,57.74,0,0,1,663,498.94,98.17,98.17,0,0,1,693,462.26a79.27,79.27,0,0,1,38.67-15.41,43.87,43.87,0,0,0,7.37-1.45c9.33-2.73,14.54-9.37,15.17-19A50.3,50.3,0,0,0,752,409.28a109.14,109.14,0,0,0-7.9-19.72,141.5,141.5,0,0,0-14-22.57c-1.44-1.86-3.08-3.58-4.67-5.33a4.81,4.81,0,0,0-5.21-1.39c-12.76,3.11-25.56,6.12-38.35,9.14-1.11.26-2.27.32-3.57.49a34.08,34.08,0,0,1,.05-4.56,5.31,5.31,0,0,0-1.28-4.52c-1-1.07-1.93-2.12-3.16-3.49-.82,2.66,1,4.7.2,7a6.5,6.5,0,0,1-4.19,2,96.44,96.44,0,0,1-12.27,1.67c-18.2.58-35.72,4.44-52.88,10.27-.84.29-1.66.63-2.51.88a4.21,4.21,0,0,1-5.62-3.88,12.65,12.65,0,0,1,.7-4.34c2.19-6.53,5.9-12.21,10.16-17.55a9.26,9.26,0,0,1,2.45-1.87,77.81,77.81,0,0,1,25.37-10.17,63.14,63.14,0,0,1,37.74,4.17,54.34,54.34,0,0,1,15.83,9.63c1.08,1,2.34,1.77,3.75,2.83l2.49-2.82c-1.81-1.52-3.43-2.77-4.93-4.16a24.31,24.31,0,0,1-3.59-3.87c-2.68-3.94-2.37-7.69.73-11.37a22.82,22.82,0,0,1,6.6-5.15c1.29-.71,2.6-1.37,4.11-2.16-.75-4.19-3.1-7.63-5-11.64a9.33,9.33,0,0,1,2.3-.08A134.63,134.63,0,0,1,718,324.1a5,5,0,0,1,2.88,2.54c2.19,4.78,5.61,8.66,9.28,12.35A136.69,136.69,0,0,0,745,351.64c13.73,10.32,28.34,19.28,43.22,27.82,29.1,16.72,59.1,31.71,89.39,46.14q38,18.12,76.68,34.82c1.72.75,3.61,1.24,5.25,2.73-.35.84-.62,1.65-1,2.4-7.18,13.63-17.76,23.86-31.19,31.23a111.91,111.91,0,0,1-32.93,11.46,155.26,155.26,0,0,1-37.95,2.49c-.73,0-1.47,0-2.2,0a4.59,4.59,0,0,0-.76.3c-.49,1.43-1.08,3.08-1.63,4.75-10.37,31.43-20.74,62.86-31.93,94-2.25,6.26-4.78,12.41-7,18.66a11.17,11.17,0,0,1-5.28,6.29c-3.63,2-7.24,4-11,5.77-14.09,6.52-28.69,11.78-43.33,16.9-35,12.24-70.43,23.19-106,33.61-20.41,6-40.92,11.61-61.41,17.34C583.81,708.94,581.72,709.8,579.1,709.68Z"/><path class="cls-2" d="M1042.66,60c-1.37,1.92-4.1,1.88-5.93,3.67.63,1.17,1.26,2.31,1.88,3.44,5.27,9.67,9.15,19.82,10.64,30.79a43.49,43.49,0,0,1-2.09,21.8,10.49,10.49,0,0,1-2.36,4.34,42.93,42.93,0,0,1-8.9-2.93c1.23-2.45,4.13-3,5.51-5.56-3.8-.06-7.21,1.32-11.25,1.39,1.27-1.85,3.26-1.81,4.4-3-.11-1-1-.84-1.63-.84-4.86,0-9.72,0-14.55,0-.18-1,.37-1.2,1-1.36l5.79-1.5a19.13,19.13,0,0,0-2.77-1.31,221.3,221.3,0,0,1-29.2-8.86c-4.8-1.87-9.48-4.07-14.13-6.3A63.41,63.41,0,0,1,972.91,90a7.44,7.44,0,0,1,1-1.73c12.94-12.25,27.49-21.79,44.79-26.72A65.37,65.37,0,0,1,1041,59.23a7.42,7.42,0,0,1,1.3.24C1042.4,59.49,1042.45,59.69,1042.66,60Z"/><path class="cls-3" d="M1149.46,261.08a48.69,48.69,0,0,0-10.6-11.8A26.51,26.51,0,0,0,1128.7,244a22.39,22.39,0,0,0-16.3,2.18,33.87,33.87,0,0,0-9.76,7.56c-2.73,3.09-5.17,6.44-7.69,9.71-.8,1-1.46,2.19-2.32,3.49-5.25-.43-10.19-1.69-14.5-4.78-3.67-2.62-5.17-6.37-5-10.79a21.1,21.1,0,0,1,.78-4.8c1.92-6.61,5.38-12.4,9.74-18.15a13.37,13.37,0,0,1,1,1.56c1.54,3.4,4.46,4.54,7.87,4.86a28.84,28.84,0,0,0,10.08-1.12c6.45-1.7,12.67-4,18.2-7.88,3-2.08,6.45-2.85,9.94-3.53,6.7-1.31,13.42-2,20.12-.53,7.16,12.15,7.42,28.07-1.59,39.19Z"/><path class="cls-2" d="M584.23,342.87,572,318.31a18.69,18.69,0,0,1,2.37-1.41c17.62-7,35.69-12.46,54.5-15.23a115.64,115.64,0,0,1,23.88-1c8.34.52,16.39,2.26,23.8,6.3a32,32,0,0,1,3,1.89c.19.13.21.52.41,1.1-11.55-.87-23-1-34.33.92A111.6,111.6,0,0,0,612.54,322,121.56,121.56,0,0,0,584.23,342.87Z"/><path class="cls-3" d="M588.2,562.94c-18.19-.86-36.31-1.61-54.52-1.36-.73,2-1.37,3.8-2,5.59a32.26,32.26,0,0,1-5.52,10.05,12,12,0,0,1-7,4.37c-1.71.33-2.59,0-3.29-1.48-3.42-7.41-6.19-15-7.11-23.2a11,11,0,0,1,2.27-8.75,4.31,4.31,0,0,1,3.34-1.84,11.28,11.28,0,0,1,2.65-.08c2.81.64,5.13-.5,7.58-1.6,6.31-2.85,12.86-4.42,19.81-2.71a29.66,29.66,0,0,1,4.62,1.5q19.51,8.49,38.16,18.76A9.44,9.44,0,0,1,588.2,562.94Z"/><path class="cls-2" d="M973.68,26.72a103.64,103.64,0,0,1,34.45-12.78,74.92,74.92,0,0,1,18.55-1c18,1.26,31.48,10,41.39,24.77a5,5,0,0,1,.44,1.34,19.2,19.2,0,0,1-4.77,4.65,13.8,13.8,0,0,1-1.42-1.1c-8.84-9.09-19.71-14.43-31.94-17.17A105.62,105.62,0,0,0,1000,23.33a183.83,183.83,0,0,0-23.28,3C975.7,26.49,974.68,26.58,973.68,26.72Z"/><path class="cls-3" d="M1070.18,335.32c-.12-1.18.92-1.38,1.6-1.8,5.66-3.48,11.36-6.89,17-10.39,4.39-2.72,8.74-5.5,13-8.38a8.84,8.84,0,0,1,5.35-1.69,31.65,31.65,0,0,1,17.15,5.12,14.34,14.34,0,0,1-.18,2.33,123.1,123.1,0,0,1-6.47,18.8c-1.27,2.82-2.84,5.5-4.31,8.22-.11.18-.51.21-.81.32-.84-.37-.59-1.21-.72-1.86a14,14,0,0,0-9-10.68,30.83,30.83,0,0,0-7.68-1.89c-6.8-.78-13.54,0-20.24,1.26-1.58.29-3.19.36-4.79.53Z"/><path class="cls-2" d="M643.62,378c-.47,1.46-.77,2.76-1.3,4a29.11,29.11,0,0,1-2.64,5.08,8.93,8.93,0,0,1-9.69,3.8,25.88,25.88,0,0,1-5.43-1.82,43.13,43.13,0,0,1-11.24-7.78,6.28,6.28,0,0,1-.78-1.29c1-.41,1.92-.85,2.86-1.12a167.73,167.73,0,0,1,41.34-7,73.85,73.85,0,0,0,16.12-2.23c1.14,1,.61,1.67-.39,1.93-2.71.69-5.46,1.26-8.2,1.86-5.91,1.27-11.82,2.52-17.73,3.8C645.68,377.29,644.84,377.6,643.62,378Z"/><path class="cls-3" d="M1157.24,223.58c5.92,2.31,9.37,6.56,10.31,12.74a24,24,0,0,1-1.77,13.43c-2.83,6.42-7.64,11-13.77,15.06.17-1.92,1.37-2.68,2-3.77s1.41-2.26,2-3.42a32.16,32.16,0,0,0,1.49-3.21,38.94,38.94,0,0,0,1.26-3.78,32,32,0,0,0,.83-3.89,35,35,0,0,0,.3-4c0-1.32,0-2.66,0-4s-.15-2.66-.33-4a31.86,31.86,0,0,0-.71-3.47c-.31-1.29-.69-2.56-1-3.85S1156.52,225.16,1157.24,223.58Z"/><path class="cls-2" d="M1004.67,126.13c.37-.34.56-.68.8-.72q9.38-1.66,18.76-3.27a9.13,9.13,0,0,1,2,.15c-.81,2-2.59,2.63-3.83,3.76s-2.91,1.94-4.15,3.66c1.34.8,2.69.67,3.9.94s2.34.32,3.51.49,2.63.42,3.94.6,2.36.24,3.53.4a9.35,9.35,0,0,1,3.63.92c-.12,1.1-.84,1.06-1.31,1.06a67.65,67.65,0,0,1-23-3.92A22.85,22.85,0,0,1,1004.67,126.13Z"/><path class="cls-3" d="M1107.66,379.74l4.65-4.53c3.32,3.77,5.55,7.66,5.78,12.47a10.34,10.34,0,0,1-3,8.35c-1.57-2.76-2.31-5.58-3.56-8.16S1109.12,382.81,1107.66,379.74Z"/><path class="cls-2" d="M1054.23,57.81c2.72-3.06,5.83-5.18,8.65-7.58,3.4,2.83,6.84,9.39,7.7,14.64-2-.34-3.42-1.69-5.11-2.4-1.9-.79-3.74-1.72-5.63-2.51C1058.11,59.24,1056.34,58.61,1054.23,57.81Z"/><path class="cls-2" d="M1001.65,124.21a19.57,19.57,0,0,1-5.63-6.57c2.27-.94,6.41-1.18,12.2-.85a14.11,14.11,0,0,1,5.89,1.75A35.49,35.49,0,0,1,1001.65,124.21Z"/><path class="cls-4" d="M1149.36,261c-5.24,6.32-11.95,10.56-19.66,14.3.12-.92,0-1.37.23-1.65a32.78,32.78,0,0,1,17.43-12.73,5.47,5.47,0,0,1,2.09.18Z"/><path class="cls-2" d="M1027.85,126.77l3.64-2.83a85.6,85.6,0,0,1,10.74,3.75c-.3,1.48-1.1,1.73-2,1.61-4-.53-8.07-1.09-12.11-1.64Z"/><path class="cls-2" d="M995.13,114l-1.06-.68c.19-.29.42-.84.56-.82a5.54,5.54,0,0,1,1.33.58Z"/><path class="cls-2" d="M1046.68,129.6h1.4V130h-1.4Z"/><path class="cls-4" d="M1070.1,335.21l-.44.54-.17-.48.69,0Z"/></g></g></svg>