<svg xmlns="http://www.w3.org/2000/svg" viewBox="0 0 5000 5000"><defs><style>.cls-1{fill:#fff;}.cls-2{fill:#231f20;}</style></defs><title>Asset 1</title><g id="Layer_2" data-name="Layer 2"><g id="_ÎÓÈ_1" data-name="—ÎÓÈ_1"><rect class="cls-1" width="5000" height="5000"/><path class="cls-2" d="M3829.33,2373.3a11,11,0,0,0-14.61-5.34c-41.7,19.36-105.69,27.29-161,33.08a357.3,357.3,0,0,0,48.32-31.94c28.83-23,47.76-47.63,57.87-75.23,14.33-39.15,9.88-84.11-13.24-133.65-31.67-67.86-79.6-122.89-210.54-170.9-33.2-12.17-73.15-18.92-118.75-20.06-43.62-1.09-91.17,3.26-137.52,12.56-48.28,9.7-93.66,24.18-134.9,43-44.33,20.29-81.5,44.66-110.46,72.42-68.26,65.42-109.15,126-132.58,196.5-21.1,63.46-28.95,137.89-26.24,248.89.92,37.94,4.65,95.44,17.16,153.86,12.9,60.26,32.34,108.64,57.78,143.77,11.52,15.9,20.22,35,23.28,51.12,3.53,18.62-.26,32.24-11.25,40.49-34.68,26-56.88,24.13-76.93,16.59,17.06-8.8,30.81-19.84,34.64-34.06,2.68-9.9-2.11-19.92-13.14-27.49-15.3-10.51-40.94-15.18-55.66-4.41-9.46,6.92-13.81,18.59-12.26,32.87a76.72,76.72,0,0,0,7.91,25.38c-9.56,3.35-19.06,6.25-27.45,8.82-2.85.87-5.54,1.69-8,2.47-1.45.45-2.91.88-4.36,1.29a163,163,0,0,0-25.84-45.21c-27.26-33.82-65-53.5-91.13-60.64-39.07-10.65-80.87-3.15-106.51,19.1-18.86,16.36-27.12,38.67-23.88,64.52,3.93,31.44,28.43,55.32,61,59.42,25.95,3.27,49.77-6.67,65.47-26.14,29.72,12.9,66.83,20.59,105.83,14.66,6.56,28.13,5.34,59.85-3.71,94.9-1.19,4.63-2.6,9.54-4.1,14.73-3.31,11.56-6.93,24.17-8.93,36.65-18.35,4.66-37.64-.8-57.84-6.52-17.8-5-36.2-10.24-54.59-8.36-49.54,5-105,57.83-133.62,88.86-33.85,36.69-70,86.17-70.29,105.6-.14,9,5.89,13.84,11.92,14.64a11.16,11.16,0,0,0,3.46-.09q4.82-.9,9.58-1.89c-12.74,6.18-22.81,14.6-26.22,26.08-5,16.76,5,34.88,29.78,53.87,42.8,32.85,120.55,76.36,171.54,89.35a429.74,429.74,0,0,0,129.49,12.7c-17.11,26.33-26.89,51.8-29.66,77.06-8.12,74.09,46.35,128.35,94.41,176.22,52.68,52.48,83.58,86.72,56.24,127.74-29.69,44.53-102.59,75.78-195,83.6-136.83,11.58-332.36-29.2-493.3-172.46l-.3-.31q-19.8-18-38.57-37.06c-1.68-1.74-3.36-3.47-5-5.24a12.53,12.53,0,0,0-1.08-1c-123.52-126.93-212.85-281.56-262.18-421.46,23.13-18.83,47.46-35.83,71-52.29,59.78-41.79,116.25-81.27,153-147.24,19.61-35.15,31.75-69.58,36.1-102.35a205.08,205.08,0,0,0-6.08-84.22c-14.28-49.61-44.59-87.06-68.93-117.14q-4.24-5.23-8.15-10.11c51.13,50.48,99.18,107.35,124.23,147.88a11,11,0,0,0,9,5.21,10.89,10.89,0,0,0,9.31-4.57c33.87-47.11,57.86-105.4,67.55-164.13,10.62-64.31,4-126.09-19.2-178.66-29.88-67.77-101.92-152.85-275.43-173.25-70.41-8.29-122,10.54-159.73,24.29-39,14.23-56.93,19.77-72.68,1.88a10.85,10.85,0,0,0-3.72-2.75q-13.68-13.25-26.69-26.73c.22-3.57.4-7.13.52-10.67a347.78,347.78,0,0,0-20.67-129.73c-18.41-51-62.61-100.8-124.44-140.37a444.89,444.89,0,0,0-67.92-35.51c-49.82-115.69-73.08-230.92-73.14-333.69,26.11,55.61,67.62,106.64,121.27,148.15a11,11,0,0,0,17.68-9.85,150.08,150.08,0,0,1,.61-37.63c10.51,27.47,30,69.59,57.3,107.76,19.16,26.76,39.22,47.29,59.62,61,25.43,17.11,51.43,23.72,77.27,19.65,12.43-2,17.21-17,20.9-40.67,3-19.15,5.2-44.42,7.77-73.67,3.89-44.42,8.3-94.77,16.72-136.16,11.19-55,25-71.23,34.68-75.14,8.23-3.34,19.11.77,32.35,12.21,25.1,21.71,10.24,60.85-8.62,102.46-2.07,4.55-4,8.85-5.72,12.83-23.53,55.08-40.42,102.27-26.46,165.85,31.92,145.31,134.16,228.74,280.5,228.91,3,0,6.09,0,9.39,0,47.23.3,126.28.79,156-41.94,6.95-10,11-22.48,13-36.35,16.71,14.34,33.22,26.19,48.71,34.66,45.53,24.88,85.53,16.79,127.87,8.21,11.57-2.34,23.53-4.76,35.73-6.5,74.72-10.63,140.43,9.91,200.3,33.69a11,11,0,0,0,13.38-4.38c3.94-6.28,7.9-12.5,12.1-19.08,45.48-71.35,97-152.22,62.58-242.55q-2.5-6.54-5.75-13.45c70.24-57.5,72.52-169.19,67-233.9-4.49-52.19-20.15-89.6-47.87-114.37-27-24.13-65.11-35.87-116.45-35.87h-1.73c-14,.08-38.09,3.13-68.61,7-99.32,12.57-284.19,36-335.57-24.93-15-17.78-17.62-41.84-8-73.56,13.89-45.75,56.34-65.88,89.51-74.71,39.15-10.42,88.21-10.81,128-1,68.75,16.9,135.09,54.91,199.24,91.66,25.56,14.65,52,29.8,77.82,43.1a11,11,0,0,0,15.91-11.47c-1.73-11-3.42-23-5.21-35.74-8.51-60.39-19.09-135.54-45.77-196.91-14.83-34.1-33.5-60.83-55.49-79.45-25.89-21.91-57.14-33.42-92.88-34.2-.54,0-1.08,0-1.63,0-33.39,0-89.45,21.76-154.19,46.88-109.4,42.46-245.54,95.3-306.87,54.47-22-14.61-33.12-40.59-34.12-79.41-1.31-50.51,13.5-89.56,45.29-119.37,93.48-87.68,311-68.06,427.9-57.53,8.14.74,15.85,1.43,23.05,2a11,11,0,0,0,9.28-18.14c-56.26-65.33-117.85-133.09-187-186.12-79-60.64-157.92-94.63-241.13-103.89-75.94-8.46-150.82,6.44-216.55,43.08s-117.58,92.4-149.92,161.23c-23.67,50.39-18.46,123.42-13.42,194,3.74,52.31,7.56,105.77-.43,148.91-41.36-.51-84.17,6.13-126.41,19.94a423.52,423.52,0,0,0-110.87,55.24c-34.48,24.08-63.74,52.24-87,83.71-29.51,40-49.5,83-59.42,127.81a306.11,306.11,0,0,0-.55,129.68q2.1,10,4.86,20-2.31,28.86-2.07,59.25c.59,74.15,12.61,151.23,35.73,229.09q13.29,44.72,31,88.33c-33-11.21-66.53-18.15-98.24-20-95.39-5.69-168.68,32.45-206.37,107.4a11,11,0,0,0,3.7,14.08,583.51,583.51,0,0,0-103.64,24.3c-51.4,17-125.93,46.32-189.11,89.12-73.9,50.07-115,106.73-122.31,168.41a11,11,0,0,0,17.89,9.8c53.64-43.89,186.81-88.57,254.15-93,38.6-2.53,95.86-4.77,147.27,5,54.32,10.29,87.58,31.48,99.06,63.07-51.55,10.86-101.23,13.43-149.38,15.92-57.14,2.95-111.1,5.74-161,22.28-56.61,18.75-100,52.42-136.53,105.95A490.47,490.47,0,0,0,777.3,2836c-9.11,63.32-6.71,130.74,7.16,200.36,22.59,113.47,73.64,217.74,113.92,277.55l.09.13h0a11,11,0,0,0,18.25-12.29c-22.44-33.3-23.39-66.55-2.89-101.67,44.61-76.42,175.4-135.45,256.41-155-57.59,34.36-117.86,77.54-153.89,140.33C990,3231.4,969.19,3289,956.13,3352c-5,24,2.4,54.3,21.9,90.12,15.34,28.18,38.07,59.78,67.55,94,50.46,58.48,108,109.25,121.29,116.29,18.15,9.63,75.22,2.47,107.63-2.65,40.94-6.48,95.65-18.43,126.43-32.57a11,11,0,0,0,6.38-9.16c2.6-34,10.12-65.3,18.08-98.48,5.23-21.84,10.6-44.23,15-68.88,46.48,40.82,65.74,92.14,80.13,159a11,11,0,0,0,18.42,5.58c26.58-25.79,57.46-49,87.32-71.5,57.83-43.52,117.63-88.51,152.74-155.89,45.26-86.84,65.7-153.07,66.29-214.75.62-65.48-21.68-128.67-70.19-198.86-5.8-8.38-15-18.48-24.71-29.19-20.36-22.4-48.25-53.07-46.2-71.52.31-2.74,1.41-6.87,7.46-11.11,36.52-25.61,95.13,9.56,124,34.38a215.06,215.06,0,0,1,26.46,27.28q-3.72,69.33-12.25,150c-4.65,44-.44,98.62,12.17,158,13.15,61.93,34.58,126.73,63.67,192.6A1206.77,1206.77,0,0,0,2040.5,3618a1159.34,1159.34,0,0,0,126.66,152.05,722.28,722.28,0,0,0,129.21,106.13,714.76,714.76,0,0,0,144.4,71.16c75.06,26.95,152.65,40.83,227.11,40.83q24.63,0,48.76-2c48.3-4.08,93-14.6,129.28-30.4,37.08-16.16,65.49-37.91,82.16-62.92,17.7-26.54,18.52-53.72,2.5-83.08-13.33-24.46-36.73-47.77-61.51-72.45-46.72-46.54-95-94.66-88.07-158.23,2.88-26.25,14.83-53.24,36.38-82a426.18,426.18,0,0,0,47.77-8.53c56.67-13.55,94.6-34.7,108.07-45.06,33.52-25.75,109.26-90.54,88.65-135.77-25.83-56.67-32-64.43-71.9-114.91l-6-7.57c-10.41-13.18-37.16-40.43-71.34-59-39.57-21.48-78.15-25.4-112.42-11.6,1.64-6.66,3.57-13.39,5.44-19.91,1.54-5.34,3-10.39,4.25-15.31,9.44-36.54,11-70.57,4.7-101.11-.27-1.32-.56-2.62-.86-3.92,1.53-.43,3.06-.89,4.59-1.37,2.43-.76,5.08-1.57,7.88-2.42,10.38-3.18,22.36-6.84,34.25-11.24a30.17,30.17,0,0,0,8.44,5.94c12.5,5.5,27.72,11,45.79,9.95,19.52-1.12,39.53-9.56,61.18-25.79,18-13.51,24.81-35,19.66-62.19-3.68-19.42-13.55-41.26-27.08-59.92-59.59-82.32-69.34-226.92-70.76-285.27-4.57-187.53,17-299.56,152.05-429,52.59-50.41,138.05-90.42,234.47-109.78,91.61-18.39,183-15.93,244.36,6.59,123.88,45.42,168.82,96.63,198.18,159.54,20.84,44.67,24.94,82.86,12.52,116.78-15.92,43.48-59.64,80.48-137.59,116.44q-5.71,2.63-11.71,5.21l-.2,0a11,11,0,0,0-5.61,2.43c-30.79,12.82-66.2,24.33-103.16,33.71-22.55,1-45.51,2.22-68.44,4.45a11,11,0,0,0-9.91,11.67v.11c-14.85,2.38-29.62,4.35-44.11,5.86l-5.3.53c-19.22-7.31-38.7-14.32-57.78-19.51-5.74-1.57-13.72-4-22.95-6.81-71.84-21.9-138.33-39.8-162.62-18.59a10.92,10.92,0,0,0-2.6,3.36l-4.36,8.69a11,11,0,0,0,3.74,14.08c68.19,45.4,168,47.93,243.5,41.16l13.53,5.22c34.6,13.4,70.37,27.26,103.84,32.46a11,11,0,0,0,8.58-19.44c-5.38-4.33-11.66-8.46-17.74-12.45-8.65-5.69-17.46-11.48-23.92-17.87,16.65-3.23,33.28-6.93,49.63-11q10.47-.45,20.81-.85c51.54-2,104.83-4.14,156.17-15.59a11,11,0,0,0-2.19-21.73,163.34,163.34,0,0,1-26.41-2.5l7.08-.72c60.22-6.17,135.17-13.84,184.42-36.71A11,11,0,0,0,3829.33,2373.3ZM2678.37,2935q-.15.39-.3.75a151.74,151.74,0,0,1-16.63-11c-9.8-7.51-12.57-12.2-13.33-14,3.85-2,16.15-2.27,25.2,3.79C2680.4,2919.22,2682,2925.73,2678.37,2935Zm19.48,10.48c.34-.8.67-1.6,1-2.42,8.2-20.82,1.2-39.88-18.28-49.72-17.21-8.7-42.68-8.36-51.71,6-2.36,3.77-5.49,11.69.15,22.42,3.47,6.58,9.71,13.27,19.07,20.43a169.89,169.89,0,0,0,18.19,12.1c-12.33,12.74-28.79,16.21-42.49,14.48-17.27-2.18-38.61-14-41.89-40.32-2.31-18.49,3.22-33.69,16.46-45.17,13.8-12,34.64-18.45,56.67-18.45a113.24,113.24,0,0,1,29.64,3.95c21.81,5.95,55.8,23.46,79.79,53.23a141.37,141.37,0,0,1,21.16,35.85C2753.44,2962,2722.84,2955.86,2697.85,2945.43ZM1613.13,1634.73c14.26-30.28,54-74.7,86.47-78.25a38.86,38.86,0,0,1,4.14-.23c11.56,0,21.51,5.58,30.31,17,34.68,44.84-32.59,122.7-68.73,164.53-5.09,5.9-9.49,11-13.19,15.49l-.17.2c-18.8,22.84-37.15,45.13-51.29,69.27C1588.49,1764.44,1585,1694.58,1613.13,1634.73Zm221.71-309.29c31.71,2,62.56,8.46,91.18,20,114.34,45.92,226.41,169.94,269.28,221.13,63.76,76.13,128.28,168.72,203.07,291.37a11,11,0,0,0,18.78-11.46c-75.37-123.6-140.5-217-205-294-27.85-33.25-72.28-82.59-125.79-128.81-53.84-46.5-105-79.68-152.16-98.6a317.32,317.32,0,0,0-94.43-21.57c7.79-45.32,4-98.93.22-151.44-4.84-67.82-9.85-137.94,11.39-183.14C1912.84,838,2051.13,761,2195.51,777c165.08,18.37,286.74,136.92,396,262-61.31-5.52-143.9-12.7-224.73-7.66-45.61,2.84-85.83,9.41-119.57,19.52-40.11,12-72.58,29.48-96.48,51.91-36.12,33.87-53.69,79.62-52.23,136,1.18,45.86,16,78.54,43.92,97.16,32.08,21.35,80.95,23.92,149.4,7.84,57.58-13.53,121.35-38.28,177.62-60.12,61-23.66,118.57-46,147.37-45.38,57.76,1.26,99.85,34.12,128.68,100.43,25.49,58.62,35.85,132.14,44.17,191.21q1,7.41,2.05,14.49c-19-10.26-38-21.16-57.85-32.54-65.48-37.51-133.18-76.3-204.93-93.93-43.86-10.79-95.8-10.37-138.95,1.12-55.3,14.73-91.58,45.7-104.9,89.57-11.81,38.87-7.7,70.55,12.21,94.15,26.47,31.37,79.35,47,161.68,47.89,66.86.7,140-8.56,193.47-15.33,29.79-3.77,53.32-6.75,66-6.82,46.57-.24,80.35,9.67,103.41,30.28,23.34,20.85,36.62,53.51,40.61,99.84,5.07,59,3.59,159.83-55.48,212-18.64-32.55-46.53-68-77.06-97.26-50.3-48.12-101.06-73.6-142.92-71.7-30.93,1.37-54.43,16.31-66.17,42.06-15.86,34.77-7.7,84.81,19.4,119,26.81,33.82,70.37,56.45,122.65,63.73,49.45,6.89,98.75-1.29,135.25-22.45.33-.18.65-.37,1-.56q1.93,4.33,3.52,8.5c30.52,80-15.79,152.64-60.58,222.89-2.41,3.78-4.87,7.64-7.31,11.49-60.43-23.43-126.8-42.52-203-31.68-12.84,1.83-25.12,4.32-37,6.72-40,8.09-74.47,15.08-112.95-5.95-18.14-9.93-37.85-24.88-57.59-43.25-.24-25.92-4.56-54-8.39-78.9-2.57-16.67-5-32.41-5.61-44.11-.78-14.66,0-34.87.84-56.27,2.53-64.81,5.67-145.47-26.73-184.55-18.51-22.32-37.79-25.06-50.72-23.43-29.32,3.71-52.66,32.37-64.73,58-35.34,75,10.73,171.57,41.33,222.49a589.38,589.38,0,0,0,92,116.12c-.58,17.1-3.58,32.06-10.74,42.37-23.08,33.22-94.88,32.77-137.77,32.5-3.34,0-6.52,0-9.5,0-135.12-.15-229.53-77.29-259-211.62-12.57-57.21,3.24-101.08,25.2-152.5,1.61-3.75,3.51-7.94,5.52-12.38,8.15-18,18.28-40.32,22.17-62.56,5-28.26-1.51-50.34-19.19-65.63-14.44-12.48-28.1-18.74-40.79-18.74a37.52,37.52,0,0,0-14.22,2.78c-21.88,8.88-37.12,37.84-48,91.14-8.66,42.62-13.13,93.63-17.08,138.63-2.15,24.6-4.19,47.84-6.61,65.54-2.64,19.27-5.09,26.65-6.34,29.37-46.55,5.48-86.92-36-112.8-72.12-31.06-43.38-53.46-96-60.93-120.88q-1.75-5.79-3.44-11.86c13.28-30.91,35.82-58.3,60.3-88l.16-.2c3.54-4.3,7.86-9.3,12.86-15.09,20-23.2,47.5-55,65.53-88.56,22.9-42.66,24.23-77.59,4-103.81-14.5-18.75-33.25-27.44-54.25-25.14-25.47,2.79-48.74,21.06-63.77,35.9-16.56,16.34-32,37.35-40.2,54.85-16.88,35.84-24.83,77.61-23.63,124.14.84,32.71,6.17,67.79,15.87,104.52a166,166,0,0,0-11,54.1c-57.7-49.8-96-109.19-113.79-171.55,4-46.38,13.11-89.45,26.93-127.94,41.54-115.69,122-183.39,226.44-190.62,41.33-2.86,73.07-16.72,94.33-41.2C1820.84,1362.41,1829.29,1345,1834.84,1325.44Zm954.33,658.27c-.68.42-1.38.83-2.07,1.23-31.86,18.46-77.16,25.82-121.18,19.69-46-6.4-85.51-26.67-108.46-55.6-21.89-27.61-29-69-16.61-96.19,8.37-18.37,24.23-28.2,47.13-29.22,1.16,0,2.33-.08,3.5-.08,35.22,0,78.8,23.2,123.23,65.71C2744.59,1917.83,2771.69,1952.51,2789.17,1983.71Zm-501,66.57c.67,12.79,3.18,29.07,5.83,46.3,2.57,16.66,5.36,34.82,6.95,52.42a572.23,572.23,0,0,1-72-95c-22.61-37.61-38.47-75-45.87-108.24-8.21-36.8-6.33-68.27,5.58-93.54,12-25.51,30.71-43.38,47.59-45.51a26.92,26.92,0,0,1,3.35-.22c9.64,0,18.94,5.33,27.67,15.86,27,32.6,23.94,111.81,21.69,169.66C2288.16,2014.87,2287.39,2034.62,2288.22,2050.28Zm-777.13-575.89c68.62-93,188.26-148.85,301-149.56-4.67,14.4-11.25,27.1-20.32,37.55-17.53,20.19-43.46,31.2-79.24,33.68-57.85,4-108.92,24.82-151.82,61.87-40.75,35.19-72.31,83.39-93.81,143.27a486.28,486.28,0,0,0-17.54,61.65C1447.71,1598.1,1467.88,1533,1511.09,1474.39Zm253.27,1019.36a10.87,10.87,0,0,0,4.06,2.44c24.32,17.15,53.28,6.59,86.13-5.4,37.6-13.71,84.4-30.78,149.62-23.1,129.17,15.19,218.34,70.61,257.87,160.28,45.9,104.11,15.51,226.55-36.93,307.65-24.39-35.89-62.62-81.27-105.21-124.64-23-23.43-45.49-44.53-66.68-62.66-16.24-32.86-33.32-66.45-56.75-94.81-29.16-35.31-62.76-55.3-102.7-61.11-15.38-2.22-19.86,7.14-20.86,10.06-2.58,7.5.3,16.31,9.64,29.47,6.16,8.68,15.25,19.3,26.27,30.69,21.73,22.47,46.07,43.13,60.55,51.41,19.81,11.34,42.52,28.12,66.11,48.06l.82,1.66c5.71,11.56,11.09,22.48,16.67,33,6.48,12.25,17.09,25.36,29.38,40.54,48.09,59.43,114,140.82,36.8,279.15-34.33,61.56-88.78,99.63-146.44,139.93-14.51,10.14-29.31,20.49-44,31.38,20.91-82.31,25.94-240.38,4.91-291.12-12-29-26.95-60.82-49.07-89.8,3.82-76.47,3.2-142.45-1.87-197.22-6.87-74.1-22.2-126.57-44.33-151.74-12.47-14.17-25-17.37-33.25-17.56-31.21-.71-61,9.53-88.89,26.13q2-5.36,3.9-10.67a434.37,434.37,0,0,0,21-84.76Q1752.53,2482.52,1764.36,2493.75Zm246.83,221.31a357.09,357.09,0,0,0-30.89-20.12c-11.66-6.66-33.14-24.8-52.24-44.1-16.67-16.85-25.63-28.39-30.11-35.39C1951.86,2626.39,1985,2668.41,2011.19,2715.06Zm-423.71-534.77c56.93,36.44,99.07,83.57,115.6,129.32a321.77,321.77,0,0,1,19.39,110.11c-76.44-83.63-135.06-173.23-177.42-263.19A422.37,422.37,0,0,1,1587.48,2180.29Zm-163,1219c-.08.54-.15,1.08-.23,1.62-4.57-3.09-9.23-6.19-14.08-9.43-53.23-35.46-113.55-75.65-117-137.29-1.63-28.89,17.87-58.29,46.37-69.9a59,59,0,0,1,22.26-4.56c15.7,0,30.43,7,42.24,20.56,18.15,20.8,27.65,51,29,92.26C1434.29,3329,1428.84,3368,1424.46,3399.26Zm439.14-516.55c-4.31-4.34-8.83-8.58-13.58-12.67-9.8-8.42-36.06-29.25-68.27-40.85-32.58-11.73-61.18-10-82.71,5.15-9.88,6.92-15.49,15.9-16.69,26.69-3.15,28.32,26,60.43,51.78,88.75,9.22,10.15,17.93,19.73,22.89,26.9,87.9,127.18,88.53,225.83,2.49,390.93-32.8,63-88,104.5-146.46,148.48-25.31,19-51.35,38.64-75.27,60.11-16.18-67-39.66-118.78-93.35-160.83.07-.49.14-1,.2-1.48.52-3.74,1.06-7.61,1.61-11.58,4.5-32.13,10.1-72.1,8.8-110.53-1.58-46.55-12.85-81.22-34.46-106-23.5-26.94-56.92-35.14-89.38-21.91a99.33,99.33,0,0,0-43.82,35.74c-11.7,17.1-17.31,36.39-16.22,55.77,1.85,32.71,16.6,62.67,45.12,91.59,24,24.34,54.63,44.76,81.67,62.77,6.89,4.59,13.4,8.93,19.72,13.27,1,.7,2,1.41,3,2.12-4.61,28.7-10.76,54.33-16.73,79.24-7.65,31.93-14.91,62.2-18,95.28-25.1,10.19-69,21.08-114.88,28.33-57.92,9.16-88.32,7.89-93.88,4.94-8.71-4.62-63.35-51.43-115-111.22-61.77-71.6-91.8-130.28-84.56-165.23,12.6-60.79,32.58-116.14,57.76-160.07,43.2-75.27,126.35-121.9,193.17-159.37a11,11,0,0,0-4.51-20.56q-3.33-.25-7.07-.26c-36.07,0-99.76,18.1-159.25,45.62-45.38,21-126.89,65.42-162.94,127.16-9.14,15.67-14.75,31.52-16.76,47.28-77.83-149.89-140-393.26-1.53-596.17,73.69-108,169.55-112.93,280.54-118.67,52.58-2.72,107-5.53,164.44-18.95a11,11,0,0,0,8.28-12.9c-9.52-47-49.71-77.52-119.45-90.73-53.86-10.2-113-7.91-152.8-5.3-63.44,4.17-177.61,40.53-243.15,81.35,13.93-45.14,49.87-87.55,107.2-126.39,61.1-41.39,133.61-69.86,183.69-86.46,48.88-16.2,97.2-25.29,143.2-27.45,22,12.41,41,29.53,60.53,47.27,12.22,11.08,24.86,22.53,38.49,33,17.52,13.38,35.44,30.5,54.41,48.62,38.87,37.14,79,75.54,124.6,90.69a11,11,0,0,0,9-.89c14-8,22.09-22.07,23.48-40.61,3-40.46-27.16-98-68.72-131-51.6-41-115.83-64.11-190.91-68.78-15-.93-30.3-1.1-45.84-.52a168.27,168.27,0,0,0-28.86-11.76c35.15-58.58,98.06-88,178.74-83.21,35.82,2.14,74.13,11.15,111.27,25.78,48.88,110.89,118.77,215,206.43,307.36q-6.13,67.56-39.17,140.09c-50,40.46-92,97.1-122.3,138-9.36,12.61-17.44,23.5-24.33,32-33.77,41.81-84,107.11-122.22,158.79-22.06,29.86-39.34,54.08-51.37,72-6.7,10-11.72,18-14.93,23.72-3.65,6.54-8.65,15.51-2.56,22.68,1.08,1.27,6.94,7.34,16.43,1.94a11.22,11.22,0,0,0,2.58-2c73.44-78.2,149.55-166.17,226.23-261.49,48.87-60.75,85.47-117.53,110.93-172.25,32.39-25.28,67.66-42.47,104.22-41.63,5.65.13,11.45,3.52,17.23,10.09,10.87,12.36,30.39,46.88,38.94,139.24C1865.22,2759.88,1866.16,2817.07,1863.6,2882.71Zm-576-648.23c73.36,3,139,24.75,189,64.39,35.84,28.46,63,78.76,60.46,112.14-.68,9-3.6,15.89-8.7,20.43-38.94-14.84-75.65-49.92-111.2-83.88-19.42-18.56-37.77-36.09-56.25-50.21-12.9-9.85-25.19-21-37.08-31.76C1312.12,2255,1300.29,2244.3,1287.6,2234.48Zm363,416q-32,54.39-78.29,111.9-67.17,83.51-133.31,158.94c36.94-49.65,82.21-108.31,113.41-146.94,7.18-8.89,15.39-20,24.89-32.75C1597,2715.07,1622,2681.45,1650.57,2650.52Zm221.2,415.8q6.92-65.34,10.7-123.53c12.7,20.69,22.48,42.18,30.8,62.28,20.12,48.53,12.81,220.26-9.43,290.24C1876.4,3208.15,1865.22,3128.22,1871.77,3066.32Zm946.46,395.07q-6.7,7.58-12.64,15a407.27,407.27,0,0,1-140.85-10.81c-46.76-11.92-122.34-53.83-163.59-85.49-16.07-12.33-24.12-23.32-22.09-30.15,3.64-12.25,36.52-23.46,78.17-26.67,5.73-.44,11.33-.64,16.84-.64,39.62,0,73.5,10.66,102.64,20.95,34.34,12.12,72.52,21.7,119,9.88,23.13-5.89,71.78-16.07,116.4-23.33,45.25-7.36,69.17-9,81.66-9C2915.83,3370.68,2856.78,3417.85,2818.23,3461.39Zm-276.76-158.63c17.31-5.23,34.26-10.87,51-16.42,87.66-29.17,170.46-56.71,266.36-10.93,21.28,10.17,54.54,19.7,87.12,27.55q-13.29,1.68-28.88,4.12c-50.51,7.89-104.55,19.41-126.79,25.08-32.94,8.39-63.71,5.69-106.21-9.31-30.9-10.91-66.9-22.21-109.78-22.21q-9.14,0-18.7.72C2551.58,3301.66,2546.78,3302.11,2541.47,3302.76Zm486,57.61c-14.58,20.18-38,42.91-67.67,65.72-13.45,10.33-57.76,34.15-121.38,45.72,37.48-41.11,94.12-85.81,168.44-132.93,5.31-3.36,16.08-10.19,18.23-19.26,8.67,1.59,15,2.7,18.16,3.23C3043.86,3332.21,3038.44,3345.22,3027.49,3360.37Zm2.57-62.24c-37.86-7-123-24.07-161.79-42.57-37.3-17.8-75.4-26.59-115.72-26.59a290.28,290.28,0,0,0-31.33,1.72c-46.12,5-89.65,19.44-135.73,34.77-32.32,10.75-65.59,21.82-100.09,29.4,8.52-16.4,29.77-47.68,61.22-81.58,44.8-48.31,88.08-77.79,118.75-80.91,14.22-1.45,29.84,3,46.38,7.65,19.42,5.5,40.72,11.53,62.41,8.09.79,12.82,4.83,24.64,14.55,34,21.5,20.69,57.89,31.95,83.39,38.62,3.27.85,8,1.31,15.09,2C2922.1,3226.16,3000.24,3233.83,3030.06,3298.13Zm-127.91-152.5c31.11,16.89,55.84,42.24,64.57,53.29l6,7.58c5.76,7.29,10.79,13.64,15.24,19.34-36.74-18.92-77.37-22.91-98.62-25-5-.49-10.09-1-11.68-1.41-23.11-6-55.9-16.06-73.69-33.18-6.22-6-8.26-14.87-8-25.15.82-.41,1.65-.84,2.47-1.29C2829.24,3123,2864.12,3125,2902.15,3145.63Zm-34.35-212.88a55.2,55.2,0,0,1-6.6-19.71c-.47-4.34-.27-10.07,3.38-12.73,1.62-1.19,4.58-1.94,8.38-1.94a40.12,40.12,0,0,1,12.7,2.28c8,2.73,12.52,6.75,13.36,8.49-1.33,4.17-6.84,12.25-28.21,22.24ZM3129.23,2436c6.72-2,21.29-3.31,52.16,2.74,28.82,5.66,61.12,15.5,84.71,22.69,9.41,2.87,17.53,5.34,23.6,7,1.74.47,3.5,1,5.26,1.47C3238.22,2470.46,3176.43,2463,3129.23,2436Zm267.67,47.47c4.26-.64,8.55-1.31,12.82-2a61.15,61.15,0,0,0,7.37,9.31C3410.43,2488.5,3403.71,2486.05,3396.9,2483.5Zm172.2-43.56q10.56-3.9,20.58-8a69.05,69.05,0,0,0,8.86,5.43C3588.79,2438.4,3579,2439.24,3569.1,2439.94Z"/></g></g></svg>