<svg xmlns="http://www.w3.org/2000/svg" viewBox="0 0 1171 627.55"><defs><style>.cls-1{fill:none;stroke:#000;stroke-linecap:round;stroke-linejoin:round;stroke-width:4px;}</style></defs><title>Asset 1</title><g id="Layer_2" data-name="Layer 2"><g id="_ÎÓÈ_1" data-name="—ÎÓÈ_1"><path class="cls-1" d="M1169,387.42c-160,42-203.15,5.85-395.15,37.85-11.14,1.86-48.28-17.63-54.85,4.15-8.25,27.36-74.11,54.88-77.81,73.63-8,40.43-32.8,55.21-47.26,91.95-12.66,32.16-41.1,45.79-46.28,6.44-3.74-28.43,7.73-49.58,17-75,2-5.5,10-23,6.87-30.83-6.67-16.63-25.14-24.55-41.35-17.69-24.57,10.4-36.4,7.92-48.73,17-18.7,13.84-64.33,36.14-80.6,44.79-15.21,8.08-91.33,46.78-91.67,4.73-.15-18.21,53.79-45,72.3-54.42,22.12-11.26,59.33-20.36,53.15-52.77-1-5.46-9-5.15-9.62.38,0,.07,0,.15,0,.22-24.51.2-47.52,12.68-72,13.47-20.32.65-52.22,6.38-72.82,6.09-68.12-1-25.78-49.33,2.22-48.14,7,.3,48.85-7.41,60.08-4.92,10.54,2.33,14.42-3.73,31-5.06,17.7-1.41,29.13-4.71,37.05-4.51A17.43,17.43,0,0,0,428,380.56a2.33,2.33,0,0,1,0-.28c-14,.57-27.63,5-41.67,6.32-19.1,1.87-51.16-3-70.22-.66-16.75,2-55.4,6.83-50.7-20.16,2.78-16,42.62-24.26,59.76-23.41,22.81,1.13,42.48-2.55,66.55-5.09,13.11-1.38,31.12,3.57,43,.54,14.48-3.69,16.7-12.73,27.85-25.44-4.12,5.69-25.93,5.14-29.52,2.18-2.66-2.18-11.68-11.94-22.87-10.43-14.52,1.95-33.06-8.58-48.77-10.91-43-6.37-39.43-46.28,4.71-42.38,30.64,2.71,93.52,15,118.25,25.31,31.57-12.73,114.4,4,126.57-10.73,42-51,89-43,94,18,1.5,58.5-77.71,55.29-99.21,129C599.36,370,492,336.42,498,261.42c2.4-30,25.39-70.62,78.62-53.63,25.84,8.24,28.91,38.62,28.91,38.62s10.19-45.56,68.52-39.08c26.88,3,41.6,19.41,46,51.09,0,.08,0,.17,0,.26a19,19,0,0,0,22.27,15.93c24.59-4.49,56.19-8.54,76.39-14.19,40.73-11.4,32.35-35-8.18-26.12-14.8,3.25-58,5.78-61.11,4.78-4.16-1.36-22.81-13.36-11-21.41,9.67-6.63,23.29-5.11,34.95-9.87,21.39-8.72,38.36-22.69,59.55-27.82,15.93-3.86,54.23-26,53-40.95-1.88-23.69-36.2,3.08-51,9.39-16.86,7.18-47.49,11.5-64.51,18.29-12.51,5-25.86,11.24-38.18,16.42-.41-2.48-.67-4.76-.92-6.94a10.76,10.76,0,0,1,8.07-11.61c7.85-2,17.25-11.9,34.53-22.43,13.54-8.25,14.33-15,24.27-17.58,10.59-2.8,43-27.28,49.09-30C871.57,83.4,886.55,42.33,828.16,71c-27.37,13.43-76.46,47.53-111.75,61.06,0,.07-5.48,8.4-8.5,4.1-19.13-27.24,12.1-44.94,28.36-62.24,13.52-14.39,48.81-53.85,48.53-60.3-1.65-39-76.31,31.8-87.31,43.92-27.4,30.18-43.77,65.6-87.61,73.83-.79,1.07-5.25.36-6.79.61-30.29,5,14.37-51.2,10.07-85.78-3.54-28.41-23.58-36.37-32.51-5.39-10.2,35.39-64.52,69.55-69.65,105.62-5.18,36.4-10,54.86-30.58,71.09-9.62,7.58-18.78-3.88-41.95-3.21-69.14,2-248.58-60.14-436.47-65.36"/></g></g></svg>