<svg xmlns="http://www.w3.org/2000/svg" viewBox="0 0 2000 2000"><defs><style>.cls-1{fill:#fff;}</style></defs><title>man_face</title><g id="Layer_2" data-name="Layer 2"><g id="_6" data-name="6"><rect class="cls-1" width="2000" height="2000"/><path d="M388.66,1647a2,2,0,0,1-.45-4c42.87-10,93.28-38.08,137.77-62.86,31.65-17.63,61.55-34.28,85-42.44a440.43,440.43,0,0,1,47.83-13.46c25-5.88,41.44-9.76,66.73-30.31,14.12-11.47,28.83-13.07,43.06-14.61,25.4-2.75,47.33-5.12,56.68-67.44a500.25,500.25,0,0,0,5.14-60.9c-4.13-4.23-8.15-8.25-12.11-12.22-23-23-41.24-41.26-55-75.3-12.19-30.21-12.8-60.76-13.66-103-.47-23.32-1-49.75-3.63-81.31-.5-6-1-11.13-1.49-15.54-3.54-12.23-5.49-23.77-4.19-25.81a2.12,2.12,0,0,1,2.29-.94c1.17.29,2.1.52,3.84,11,.54,3.27,1.25,8.16,2,15.08,5.09,17.13,14.93,40.86,32.12,62.12,22.9,28.34,39.53,73.12,48.09,129.49a548,548,0,0,1,5.86,95c4.7,4.84,9.54,10,14.58,15.58q3.39,3.78,7,7.84c35,39.34,87.79,98.79,168.85,102.58s130.22-16.57,169.82-70.25c11.84-16,27.49-33.43,44.06-51.83l9.43-10.48c-.68-11.33-.8-23.43-.36-36.21a505.52,505.52,0,0,1,23.5-134c-4.85,11.56-9.61,22.83-13.56,32-15.5,35.72-47.9,46.64-71.55,54.61-5.38,1.82-10.48,3.53-14.63,5.32a58,58,0,0,1-7.44,3.89c-5.42,3.6-6.84,7.19-8.85,12.29a65.66,65.66,0,0,1-13.44,22c-19.48,22-41.65,41.9-98.2,44.37-48.88,2.15-82-13.51-98.56-46.53-5.56-11.13-13.8-18.52-18.72-22.93-3.64-3.26-5.3-4.75-4.31-6.74a2.3,2.3,0,0,1,1.12-1.18,46.21,46.21,0,0,1-9.23-6.89,2,2,0,0,1,1.48-3.44c.26,0,26.48,1,44.46-12.27,17.22-12.73,36.75-27.16,64-16.17,5.41,2.18,10,3.85,13.64,5.19,8.49,3.11,10.51,3.84,10.16,6.23-.37,2.59-2.21,2.7-19.82,3.8l-.93.06c-12.19.76-23.09,7.4-34.63,14.44-8.6,5.24-17.37,10.59-27,13.62,3.76.08,7.59.1,11.45.11,10.12,0,20.58.09,30.68,1.34,24.53,3,53.66,1.26,81.83-.45,9.63-.59,19.6-1.2,29.32-1.61,21.47-.91,35.69-5.36,43.9-9,.48-.31,1-.61,1.5-.91-8.24-.74-22.14-4.34-42.3-17.06-34.25-21.61-46.45-19.58-55.36-18.09-1.22.2-2.42.43-3.65.66-8.72,1.64-18.6,3.51-37.3-2.36-9-2.84-11.19-4.09-11-6.4.25-2.59,3.19-2.91,11-3.76,3.93-.43,8.81-1,13.62-1.88a50.07,50.07,0,0,0,8.24-2.07,64.2,64.2,0,0,0-9.9-2.58l-.33-.07c-12-2.47-17.48-3.6-17.81-7-.24-2.51,2.51-4,5.52-5.27,9.8-4.09,13.25-7.6,13.17-9,0-.65-1.31-1.77-4.8-2.8-16.16-4.75-20.51-16.24-22.63-26.84-2.27-11.34-18.57-22.71-27.11-21.29-1.78.3-2.84.92-3.13,1.84-.89,2.75,2.78,8.86,9.11,15.19,2.07,2.07,1.64,3.73,1.2,4.53-1.46,2.68-6.34,2.24-10.18,1.4-11.17-2.44-32.75-13.5-34.45-37.86-.84-12.12,4.7-26.61,11.13-43.39,9.71-25.39,21.27-55.59,14.32-88.3-1.4,1.84-2.85,3.66-4.37,5.43-25.71,30.1-63.24,42-99.92,42-34.87,0-69-10.78-91.44-27-30.46-22-35.46-84.53-39.48-134.77-1.86-23.23-3.47-43.3-7.36-53.15q-1.12-2.87-2.22-5.59c-3.47-8.7-6.65-16.66-9.16-25-1.28,5.45-2.75,11.21-4.43,17.34-7.42,27-2.9,48.67,1.46,69.61,2.25,10.79,4.58,21.94,5.14,33.49.33,6.71-.64,10-3.23,11s-5.18-.52-9-4.29c8,26.75,15.53,52,15.53,72.56,0,17.8,5.17,39.65,9.72,58.94,5.3,22.42,9.49,40.13,4.84,47a6.86,6.86,0,0,1-4.83,3c-8.62,1.29-20.67-6.06-32.24-19.68s-20-30.82-22.3-45.7c-1.3-8.45-2.52-17-3.8-26.15-3.5-24.77-7.12-50.39-12.51-72.51-1.92-7.93-4.58-15.53-6.92-22.23-4.69-13.43-8.4-24-4.2-30.66,2.14-3.37,6.08-5.31,12-5.93,11.86-1.23,24.9,12.89,35.79,25.44-6.9-23.8-13.49-49.6-15.53-75.57-2.19-27.93-.65-62.66.84-96.25,1.84-41.58,3.58-80.86-2-101.86-13.37-50.25-1.79-101.3,28.82-127,24.43-20.51,80.24-4.92,90.34,2.23,1.94,1.37,2.66,2.8,2.11,4.25-.8,2.13-3.65,2.66-10.51,1.95-33.1-3.43-64,19.17-75.07,55a79.05,79.05,0,0,0-2.14,8c1.36-1.11,3.25-2.89,5-4.53,10-9.44,28.66-27,50.51-25.62,15.62,1,41.22.56,61.78.2,8.94-.16,16.66-.3,22.32-.29,9,0,10.94.09,11.1,2.42s-2.13,2.6-6.27,3.28c-3.3.54-8.31,1.21-15.31,2-56.17,6.74-69.1,27.69-90.53,62.39-1.55,2.51-3.14,5.1-4.8,7.74-2.93,4.69-5.79,9.22-8.46,13.45-3.76,6-7.59,12-10.52,16.84,5.78-6.45,14.73-17,26.77-31.4,41.58-49.89,73.13-49.45,130.39-48.64,19.63.28,41.89.59,68.68-1.08,65.53-4.1,97.62-17.78,134.77-33.62,22.24-9.48,45.24-19.29,78-28.39,11.3-3.14,39.53-11,46.62-14.64-2.37-.51-6.58-.95-10.14-1.33-8.25-.87-18.51-1.95-26.78-4.7-11-3.68-26.25-10.11-36.82-14.9-22.23-10.06-22.55-11.69-22.77-12.76a2.12,2.12,0,0,1,.7-2c1-.89,1.62-1.42,14.45,3,36.34,12.64,51.31,11.35,95.76,7.51l3-.26c4.62-.4,7.7-.76,9.75-1.06-3.76-1.05-9.76-2.38-16-3.76-21.61-4.79-57.77-12.8-93.16-27.28-78-31.92-130.66-33.71-167.8-31.7-12.92.69-27.51,2.38-40.86,4.31,31-1,62,4.53,99.25,23.76,7.65,4,15.51,8,23.21,11.9,59.18,30.22,63.66,33.24,62.24,36.66-.9,2.2-2.82,2.59-18.37-2.4-9.73-3.13-19.91-6.74-30.68-10.55-39.46-14-84.2-29.83-126.28-28.56-35.62,1.08-82.93,12.95-98.43,18.86,1.66-.15,3.82-.4,6.62-.79,35.42-5,54.59,1.91,76.79,9.88,7.57,2.71,15.39,5.52,24.5,8.15,12.52,3.62,38.15,9.11,62.93,14.43,66.39,14.25,68.8,15.58,68.32,18.89-.33,2.27-3.06,2.44-6.88,2.44h0c-3.42,0-8.67-.27-15.61-.81-37.72-2.93-57.44-1.16-80.28.89a586.75,586.75,0,0,1-85.45,2.38c-55.21-2.12-80.32-21.5-96.94-34.32-9-6.94-15.48-11.95-22.9-11.42-9,.64-19.61,1-27.81.83-15.8-.24-17.3-1.86-17.61-3.94-.37-2.53,1.84-4.28,15.43-7.37,28-6.36,60.62-18,67-22.86a22.9,22.9,0,0,0-2.82-.14c-5,0-10.8.12-16.42.23-6.77.14-13.16.26-18,.2-7.44-.1-9.8-.5-10.06-2.76s1.34-3.24,13.06-5.71c19-4,22.94-5.56,32.51-9.33,6.1-2.4,14.45-5.69,30.15-11,21.15-7.19,27.15-12.06,27.88-13.62-1.22-.77-6.68-1.38-17.81,1.13-10.59,2.39-11.34,1.58-12.13.71a2.17,2.17,0,0,1-.45-2.17c.31-.95.89-2.73,18.56-8.06,9-2.72,24.59-6.94,47.4-11.54l9-1.8c15.32-3.09,24.26-4.88,27.54-6a12.69,12.69,0,0,1-4.87-6.95c-.7-3-1.12-4.87.3-6.13s3.33-.7,8.67,1.25c7.31,2.66,22.52,8.21,51.36,13.9,41,8.1,50.65,6.48,52.7,5.74-.64-.69-2.45-2.17-7.36-4.41-2.93-1.33-5.46-2.48-4.75-4.7s3-1.92,9.37-.83c4.4.74,10.62,2,17.82,3.41,15.33,3.05,36.33,7.23,55.42,9.75,28.44,3.76,48.61,15.21,70,27.33,11.59,6.58,23.58,13.38,37.56,19.37,39.92,17.11,85.13,62.87,85.58,63.33a2,2,0,0,1-1.7,3.38,42.33,42.33,0,0,0-21.53,2.28h.14c27.28,0,42.69,8.42,43.37,8.8a2,2,0,0,1-.73,3.73c-.09,0-9.09,1.14-15.27,1.74-3.89.38-5.15,1.28-5.29,1.75-.76,2.67,9.58,10.58,14.55,14.38,2.17,1.66,4.23,3.23,5.92,4.64,1.29,1.08,3,2.74,2.53,4.78-.47,2.27-3,3-5.46,3.73-1.09.32-3.09.9-3.5,1.41.06.4.84,2.55,9.9,8.31,14.32,9.11,28.3,25.2,38.36,44.14A151.11,151.11,0,0,1,1383,661.6c0,27-3,65.66-6,103.07-2.81,35.8-5.46,69.61-5.46,92.14,0,6.74-.17,13.9-.42,21q1.71-1.93,3.59-3.69c11.57-10.71,19-8.86,22.44-6.81,9.42,5.67,11.16,24.69,4.54,49.63-4.42,16.68-4.53,29.71-4.64,43.52-.16,18.78-.31,38.2-11.76,67.77-21.87,56.49-31.17,63.14-36.85,62.62-5.47-.5-7.55-8.21-8.64-14-2.89-15.3,1.56-19.63,7.2-25.11,5.88-5.7,13.92-13.52,17.29-40,2.72-21.46,7.89-46.77,12-67.1,1.56-7.63,3.07-15,4.1-20.65-.26.67-.55,1.38-.85,2.15-5.14,13.11-7.55,15.28-10.2,14.72-4.4-.93-4.49-9.91-3-44.91.06-1.45.13-2.92.19-4.41-11.59,22-12.82,54.39-12.19,84.47.78,37.51-9.35,67.75-18.29,94.43l-1.42,4.25c-8.72,26.18-15.87,122.73-19.3,169.13l-.2,2.72c-2,27.57-31.49,62.81-62.83,97.87,2.16,33.67,9.27,60,20.76,76,28,38.89,100.64,66.85,159,89.32,9.89,3.81,19.23,7.4,28,10.91,23.87,9.55,43.34,21.84,62.16,33.72,29.54,18.64,55,34.74,89,34.74a2,2,0,0,1,0,4c-35.13,0-62.34-17.17-91.15-35.36-18.67-11.79-38-24-61.51-33.39-8.75-3.49-18.08-7.09-28-10.89-58.86-22.66-132.12-50.86-160.82-90.71-11.45-15.91-18.7-41.56-21.21-74.17l-6.84,7.6c-16.5,18.32-32.09,35.63-43.81,51.53-19.86,26.91-41.33,44.83-67.58,56.38-28.21,12.42-62.77,17.49-105.64,15.48-82.75-3.86-136.26-64.07-171.66-103.91-2.4-2.7-4.72-5.32-7-7.83-4-4.5-8-8.68-11.78-12.66a507.44,507.44,0,0,1-5.17,57.36c-9.81,65.37-34.29,68-60.21,70.83-13.65,1.48-27.76,3-41,13.74-26,21.12-43.76,25.3-68.34,31.09a438.88,438.88,0,0,0-47.43,13.35c-23.11,8-52.87,24.61-84.37,42.16-44.71,24.9-95.39,53.13-138.8,63.26A2.4,2.4,0,0,1,388.66,1647ZM750.12,1079.9c2.56,31.2,3.09,57.35,3.55,80.46.85,41.86,1.46,72.1,13.37,101.62,13.43,33.29,31.38,51.24,54.1,74,3.09,3.09,6.21,6.22,9.4,9.46,1.28-80.75-14.59-170.26-53-217.82A182,182,0,0,1,750.12,1079.9Zm178,193.9,1.1,1c5.13,4.6,13.73,12.31,19.63,24.12,15.74,31.48,47.63,46.39,94.81,44.33,55-2.41,76.49-21.73,95.37-43a62,62,0,0,0,12.72-20.84,41,41,0,0,1,3.5-7.43c-8.67,2.73-20.6,5.2-36.28,5.87-9.69.41-19.63,1-29.25,1.6-28.35,1.72-57.67,3.5-82.56.43-9.87-1.22-20.21-1.26-30.21-1.31-13.34,0-26.28-.1-37.88-2.76C935,1275,930.86,1274.2,928.07,1273.8Zm364.44-157.31a2.28,2.28,0,0,1,.87.19c1.88.74,1.29,2.64.66,4.65-.48,1.53-1.24,3.77-2.33,6.86-2.27,6.44-5.84,16.22-10.92,29.88-16.59,44.64-27.1,98.89-28.84,148.84-.39,11.17-.34,21.81.13,31.84,29.87-33.55,57.26-67,59.15-92.5l.2-2.73c3.45-46.56,10.61-143.44,19.5-170.09l1.42-4.26c8.83-26.37,18.84-56.26,18.08-93.08-.7-33.61.93-70.05,16.53-92.87.34-8.85.62-18,.62-26.41,0-22.68,2.66-56.57,5.47-92.45,2.93-37.34,6-75.94,6-102.76,0-50.51-27.27-94.29-54.2-111.43-8.77-5.58-12.16-9.14-11.72-12.28.42-2.92,3.7-3.88,6.35-4.65a24,24,0,0,0,2.35-.78,8.12,8.12,0,0,0-.86-.81c-1.63-1.36-3.65-2.91-5.79-4.54-10.55-8.07-17.37-13.73-16-18.66,1.11-3.88,6.85-4.45,8.74-4.63,2.36-.23,5.14-.54,7.67-.83-7.43-2.6-20.73-6-38.85-5.39-1.33,0-2.64.11-3.93.22a48.84,48.84,0,0,0-15.16,17.74c32.92-2.51,48,10,48.7,10.58a2,2,0,0,1,.63,2.05,79,79,0,0,0-1.56,27.34c2.39,19.87,12.23,34.91,29.22,44.72,19,10.94,30.81,33.56,34.27,65.43a216.23,216.23,0,0,1-4.74,70.73c-4.83,19.33-5.91,48.85-7.05,80.1-.76,20.87-1.54,42.45-3.52,61.74-1,10-1.66,12-3.94,12h0c-2.27,0-2.84-2.23-3.76-10.35-.6-5.39-1.22-12.83-1.94-21.45-2.46-29.39-6.17-73.8-13.41-82-7.07-8-4.93-17.65-1.69-32.27,3.79-17.07,9.52-42.87,4.88-84-5.8-51.35-18.35-57.33-30.48-63.11-5.65-2.69-11.5-5.48-16.35-12.56a46.5,46.5,0,0,1-5.65-41.88c-12.59,1.78-18,19-20.35,26.59-1.07,3.41-1.56,5-3.5,4.67s-2-2.28-2-4.38c0-1.66-.06-4.16-.06-8.18,0-17.82,8.72-24.86,14-28l-2.15-.41-1.62-.3c-22.18-4.2-51.32-3.05-51.61-3a2,2,0,0,1-1.83-1,2,2,0,0,1,.08-2.09c.82-1.24,19.89-29.13,59.32-32.64a43.26,43.26,0,0,1,25.81-7.1c-11.78-11.36-48-44.69-80.37-58.59-14.19-6.08-26.28-12.94-38-19.57-21-11.93-40.85-23.19-68.51-26.84-19.23-2.54-40.3-6.73-55.68-9.79-5.5-1.1-10.85-2.16-15.1-2.94,4.11,2.44,5.66,4.6,5,6.77s-2.51,7.82-57.64-3.05c-29.14-5.74-44.55-11.36-52-14.07-1.55-.56-3-1.1-4.07-1.42.11.51.24,1.1.37,1.65.53,2.28,2.23,3.7,3.59,4.83s2.66,2.22,2.21,4c-.69,2.72-3,3.18-31.58,8.93l-8.95,1.8c-21.91,4.42-38.33,8.76-49,12.06,7.23-1.15,15.36-1.42,16.55,2.83,1.4,4.93-8.88,11.17-30.53,18.53-15.61,5.31-23.92,8.58-30,11-9.79,3.85-13.84,5.45-33.14,9.51l-2.64.57c4.91,0,11.2-.1,16.76-.21s11.47-.23,16.5-.23c2.39,0,7.35,0,7.71,3.23.19,1.72.55,4.91-24.62,14a419.64,419.64,0,0,1-46.35,13.65,94.81,94.81,0,0,0-10.1,2.74c6.65.95,23.49.95,38.92-.15,8.93-.64,16.3,5,25.62,12.24C808.52,490.79,833,509.7,887,511.77a583.31,583.31,0,0,0,84.93-2.36c22.06-2,42.9-3.86,80.95-.9,5.13.4,8.89.62,11.65.72-12.15-3.36-37.36-8.77-58.61-13.34-24.85-5.33-50.54-10.84-63.2-14.5-9.23-2.67-17.12-5.49-24.74-8.23-22.59-8.11-40.44-14.51-74.89-9.68-13.76,1.93-14.62.75-15.37-.29a2.35,2.35,0,0,1-.19-2.45c.4-.81,1.14-2.31,12.49-6,7-2.29,16.35-4.84,26.26-7.17,24.88-5.86,49.65-9.54,68-10.09,42.84-1.31,87.94,14.68,127.74,28.79,10.74,3.8,20.89,7.4,30.57,10.51,3.93,1.26,6.8,2.11,8.91,2.67-10-6.14-34.06-18.44-55.83-29.56-7.7-3.94-15.57-7.95-23.22-11.9-49.33-25.44-87.43-26.48-129.47-20.22-12.36,1.84-12.58,1.55-13.4.45a2.1,2.1,0,0,1-.21-2.09c.46-1,.65-1.39,9.85-3.32,5.69-1.2,13.07-2.57,20.8-3.85,12-2,35.12-5.49,55.66-6.6,37.55-2,90.75-.22,169.52,32,35.08,14.35,71,22.32,92.52,27.08,19.44,4.31,22.66,5.11,22.46,8.11-.16,2.45-2.37,3.35-16.74,4.59l-3,.27c-43.19,3.73-58.94,5.09-92.86-6.17,12.32,5.8,29.77,13.3,42.47,17.53,7.85,2.62,17.87,3.67,25.93,4.52,10.44,1.1,14.76,1.56,15,4.72s-1.77,5.45-50.85,19.09c-32.5,9-55.37,18.78-77.49,28.21-37.5,16-69.87,29.79-136.09,33.93-26.94,1.68-49.28,1.37-69,1.09-56-.79-86.9-1.22-127.25,47.2-12.23,14.67-20.94,24.89-26.62,31.23-8.34,9.32-9.7,10-11.47,8.71s-1-3.43,3.42-10.85c2.9-4.87,7.1-11.53,12-19.23,2.67-4.22,5.52-8.75,8.45-13.43q2.48-4,4.79-7.72c20.94-33.92,34.89-56.52,90.55-63.89l-8.39.14c-20.63.36-46.32.81-62.11-.2-20.1-1.29-37.93,15.5-47.5,24.53-5.81,5.48-8.21,7.74-10.54,6.28-2.1-1.3-1.87-4.14,1.13-13.8,5.56-17.9,16.25-33.49,30.11-43.89a69,69,0,0,1,49.19-13.86,40.12,40.12,0,0,0,4.48.26c-4.91-2.71-18.29-7.41-34.85-9.66-12.82-1.73-36.29-3-49.41,8-29.44,24.73-40.5,74.13-27.53,122.91,5.74,21.6,4,61.17,2.13,103.07-1.48,33.46-3,68.07-.84,95.76,2.24,28.65,10.17,57.26,17.84,83.13,4.16,4.71,8.63,9.37,10.16,9.2,0,0,1-.9.68-7.13-.55-11.24-2.74-21.75-5.06-32.87-4.47-21.41-9.08-43.54-1.41-71.49,2.46-8.94,4.45-17.07,6.06-24.63-4-17-5-37-.39-68.24,1.86-12.66,3.08-21.54,3.89-27.42.42-3.12.73-5.36,1-6.82.33-2.22.6-4,2.55-3.82s1.93,2,1.94,3.17c0,.78,0,1.92,0,3.39-.05,5.11-.16,14.62.39,26,1.24,25.29.69,45.62-5.19,73.66,2.65,11.08,6.58,20.93,11,32,.73,1.83,1.47,3.69,2.22,5.6,4.11,10.41,5.74,30.75,7.62,54.3,3.75,46.82,8.88,110.93,37.84,131.84,44.86,32.4,137.31,42.6,186-14.37q3.29-3.87,6.18-7.93a101.61,101.61,0,0,0-10.07-24.08,119.41,119.41,0,0,0-18.78-25q1.5,2.53,3.2,5.19a2,2,0,0,1,.17,1.83,2,2,0,0,1-1.4,1.2,285.81,285.81,0,0,1-41.26,5.39,2,2,0,0,1-.35.08,172.49,172.49,0,0,1-34.82,0l-.33-.07c-15.51-1-31.84-3.51-47.43-8.54a2,2,0,0,1-1.22-1.12,2,2,0,0,1,0-1.65c.53-1.1,11.48-23,46.64-29.78a73.45,73.45,0,0,1,21.15-2h.79A41.08,41.08,0,0,1,896.3,909c1,.17,2.1.37,3.17.59a84.32,84.32,0,0,1,30.3,12.84c-4.34-11.74-4.38-21.13-.08-28a19.87,19.87,0,0,1,2.41-3.15c-8.5-2.54-17.49-6.69-26.69-10.92-16.5-7.6-33.56-15.47-48.57-14.13-19.85,1.77-33.12-.66-45.94-3-10.81-2-21-3.84-34.11-2.72-2.34.21-9.47.82-10.24-3.94-1.7-10.41,41.72-35.94,61.87-40.83,18-4.35,35.54,1.76,59.89,10.21,13.42,4.66,28.63,9.94,47.25,14.71,24.68,6.31,44.76,26.95,53.71,55.21,9.71,30.66,4.23,64-14.55,91.38,8.86,35.09-3.44,67.21-13.72,94.08-6.25,16.33-11.65,30.44-10.87,41.68,1.22,17.47,13.59,26.49,20.85,30.31,6.92,3.64,13,4.65,15.5,4.46-3.83-3.87-11.79-12.87-9.83-19,.54-1.69,2.07-3.87,6.28-4.57,10.47-1.75,29,10.84,31.69,24.45,2.29,11.45,6.54,19.88,19.84,23.8,1.84.54,7.44,2.18,7.67,6.41s-5,8.45-15.63,12.87a17.89,17.89,0,0,0-2.48,1.21c2.28,1.07,8.48,2.35,14,3.49l.32.07c10.89,2.24,14.2,3.77,14.18,6.54s-3.19,4.17-12.57,6c-5,.94-9.94,1.49-13.93,1.92-1.59.18-3.28.36-4.71.55,1.24.47,3,1.07,5.38,1.82,17.75,5.57,26.71,3.88,35.37,2.25,1.25-.24,2.49-.47,3.73-.68,9.54-1.59,22.61-3.77,58.16,18.66,32.79,20.69,48,16.18,48.12,16.13a2,2,0,0,1,1.32,0c3.55-1.37,7.5-2.71,11.63-4.1,22.94-7.73,54.36-18.33,69.16-52.41,5.18-11.94,11.74-27.59,18.09-42.73,4.75-11.34,9.24-22.05,12.61-29.91,1.81-4.22,3.16-7.29,4.13-9.4C1290.42,1118.11,1291.16,1116.49,1292.51,1116.49ZM940.65,1272l.49.09c19,3.68,34.38-5.68,49.23-14.73,11.45-7,23.28-14.19,36.46-15l.93-.06c5.09-.32,9.4-.59,12.4-.86l-3.87-1.42c-3.69-1.36-8.29-3-13.76-5.24-23.38-9.43-39.67.55-60.14,15.68-14.16,10.47-32.5,12.61-41.53,13A50.66,50.66,0,0,0,940.65,1272ZM664.35,883.25a9.23,9.23,0,0,0-1.05,0c-4.67.48-7.64,1.82-9.09,4.1-3.16,5,.44,15.27,4.6,27.19,2.38,6.79,5.07,14.48,7,22.6,5.43,22.32,9.06,48,12.58,72.9,1.28,9.09,2.49,17.68,3.79,26.1,2.18,14.18,10.18,30.53,21.4,43.72,10.34,12.18,21.58,19.37,28.6,18.31a2.87,2.87,0,0,0,2.1-1.32c3.67-5.42-.74-24.09-5.41-43.84-4.61-19.5-9.83-41.6-9.83-59.86,0-20-7.49-45.05-15.41-71.58L701.39,914,698,910.07C688.17,898.69,674.84,883.25,664.35,883.25Zm718.92,28.19a3,3,0,0,1,.81.13c2.21.66,2.13,2.89.63,11.39-1,5.62-2.58,13.43-4.43,22.48-4.13,20.27-9.28,45.49-12,66.8-3.55,27.91-12.17,36.29-18.47,42.41-5.33,5.18-8.55,8.31-6.06,21.49,1.84,9.69,4.35,10.66,5.08,10.73,1.32.11,5.23-1.16,13.09-15.54,5.48-10,12.09-25,19.66-44.54,11.18-28.89,11.34-47.94,11.49-66.37.11-13.44.22-27.34,4.78-44.5,6.88-25.94,3.58-41.38-2.74-45.18-4.23-2.55-10.51-.3-17.66,6.32a49.45,49.45,0,0,0-6.56,7.48c-.15,4-.32,7.85-.48,11.59-.69,15.84-1.53,35.25-.1,40.16.88-1.15,2.61-4.09,5.55-11.61C1380.16,913.77,1381.55,911.44,1383.27,911.44ZM936,927c9.59,7.69,19.19,18.43,27.76,33.38a107.88,107.88,0,0,1,9.53,21.73c16.57-25.8,21.17-56.66,12.16-85.09-8.53-26.94-27.55-46.58-50.88-52.55-18.78-4.8-34.08-10.12-47.58-14.8-23.69-8.23-40.82-14.18-57.63-10.1-19.93,4.83-53.91,26.18-58.47,35-.43.82-.42,1.23-.39,1.29s.83,1,6,.59c13.62-1.17,24.09.74,35.17,2.77,12.56,2.29,25.55,4.66,44.86,2.95,16.08-1.44,33.63,6.65,50.6,14.47,10,4.61,19.75,9.1,28.71,11.41,11.41-7.84,29.23-6,30.13-5.87a2,2,0,0,1,1.19,3.4c-8.54,8.55-19,9.49-30.46,6.84a16.52,16.52,0,0,0-3.57,4.05C928.77,903.41,929.76,913.63,936,927Zm-68,20.08a278,278,0,0,0,33,0c8-5.85,11.53-14.41,9.13-22-1.92-6.07-7.19-10.33-14.66-12.15a81.69,81.69,0,0,0-9.89-1A107.94,107.94,0,0,0,866,913.76C852.65,931.53,865.22,944.52,868,947.06Zm-45.1-7.69a190.05,190.05,0,0,0,39.35,7.27c-4.52-5.73-10.52-17.24-1.94-31.61C836.91,921.11,826.25,934.32,822.92,939.37Zm87-22.69a19.79,19.79,0,0,1,4,7.15c2.44,7.7,0,16.14-6.36,22.72a289.56,289.56,0,0,0,32.23-4.33,132.85,132.85,0,0,1-7-12.64A83.55,83.55,0,0,0,909.91,916.68Zm31.93-27.42c6.85,1,13.12.19,18.53-3.32C955.53,885.94,948.08,886.48,941.84,889.26ZM1283.35,538.5l1,0a2,2,0,0,1,1.71,2.88c-.1.2-9.7,20.69,4.14,40.87,4.24,6.19,9.35,8.63,14.77,11.21,13.12,6.25,26.68,12.71,32.73,66.27,4.72,41.78-1.1,68-4.94,85.31-3.19,14.36-5,22.28.78,28.75,7.49,8.47,11.08,44.71,14.39,84.29.59,7,1.18,14.08,1.74,19.51,1.95-19.09,2.73-40.52,3.49-61.25,1.14-31.47,2.22-61.19,7.16-80.92,6.56-26.25,15.57-106.79-27.65-131.73-22.65-13.07-29.47-33.23-31.2-47.84a83.35,83.35,0,0,1,1.35-27.4c-3.86-2.64-19.37-11.63-48.17-8.62a2,2,0,0,1-2.08-2.68,54.1,54.1,0,0,1,12.8-18.43A80.67,80.67,0,0,0,1218,525.55c9-.15,30.74-.11,48.26,3.21l1.62.3c6.74,1.27,8,1.5,8.23,3.38.26,1.7-1.21,2.47-2.76,3.29-4.2,2.2-14,7.36-14,25.62v.1C1262.88,551.83,1269.89,538.5,1283.35,538.5ZM720.52,706.8q-.69,4.8-1.54,10.63c-3.66,24.86-3.69,42.41-1.5,57,4-22.85,4.31-41,3.24-62.94C720.64,709.91,720.57,708.33,720.52,706.8Z"/></g></g></svg>