<svg xmlns="http://www.w3.org/2000/svg" viewBox="0 0 1280 800"><defs><style>.cls-1{fill:#fff;}.cls-2{fill:#231f20;}</style></defs><title>thinking_guy</title><g id="Layer_2" data-name="Layer 2"><g id="background"><rect class="cls-1" width="1280" height="800"/></g><g id="line_art" data-name="line art"><path class="cls-2" d="M479.62,735.3a14.86,14.86,0,0,1-6.59-1.57,2,2,0,0,1-.37-.27c-.53-.47-13.13-11.89-25.43-32.47a160.75,160.75,0,0,1-20.71-55.76c.45,24.37,5.75,58.4,27.86,85.48a2,2,0,0,1,.27,2.11,2,2,0,0,1-1.79,1.16c-.6,0-15.13.11-36.89-8.91-20-8.27-50-26.17-79.85-64.45-15.51-19.9-29-36.85-40.78-51C256.92,588,222.66,563,225.55,553.87c.78-2.47,3.41-3.44,7.84-2.89,15.21,1.9,34.26,19.25,64.6,55.58q6.19,3.47,12.64,6.88c47.1,24.93,74.05,61.52,84.87,78.85A189,189,0,0,1,394.05,654c2.32-31.62,14.38-52.68,35-61.3-17.45-25.88-57-86.09-71.4-120.52-.89-2.14-1.83-4.19-2.8-6.16-25.14-14.51-42.05-28.95-46.78-35.79-1.39-2-.92-3.5-.52-4.21.57-1,2-2.22,5.4-2,8.94.52,30.54,10.9,44.93,39.13,4.9,2.81,10.11,5.61,15.58,8.35,34,17,62.09,116.51,63.27,120.74a2,2,0,0,1-1.35,2.46l-.13,0c3.4,5,5.44,8,5.55,8.11,1.82,2.68,42.34,62.75,46.13,100.86,1.48-1.94,3.39-4.52,5.61-7.62-6-36.17-42.24-98.47-42.66-99.18a2,2,0,0,1-.17-1.64c1.33-4,5.22-9.33,10.1-15.09a34.23,34.23,0,0,0-7.06-1.58,2,2,0,0,1-1.89-1.86c-1-15.58,9.33-47,18.17-70.54,9-24-6.75-82.65-6.91-83.24a2,2,0,0,1-.06-.43c-1.24-26.17,11-44.29,23.29-54.62a43.58,43.58,0,0,0-4.61-2.29,2,2,0,0,1-1.23-1.51,9.53,9.53,0,0,1,1.86-7.94c4.17-5.17,13.33-5.59,13.72-5.61a2.06,2.06,0,0,1,1.23.36c.63.45,15.62,10.74,26.11.81s8.33-54.11,7.47-61.81c-.06-.57-.16-1.4-.28-2.44-.78-6.69-2.46-21.12-3-32.11-6.2-1.63-11.32-6.29-15.39-10-2.37-2.16-5.33-4.85-6.52-4.72-2.2.24-4.58,9.84-5.59,13.94-1.19,4.79-1.91,7.57-3,9-2.72,3.4-22.17,13.54-33.38,9.33-9.15-3.43-15.14-17.62-16.87-22.22l-41.79,1.49-5.17.95a53.27,53.27,0,0,0,1.74,10.56,2,2,0,0,1-1.42,2.44l-18.67,5a2,2,0,0,1-2.34-1.12c0-.08-3.92-8.53-10.39-10.7-.3-.1-.6-.19-.9-.26l-8.3,1.53a2,2,0,0,1-1.32-3.72,14.72,14.72,0,0,1,9.65-1.88l10.17-1.88a2,2,0,0,1-.55-.21,124,124,0,0,1-25.39-19.69C335.41,217,330.33,200.36,336.46,185a2,2,0,0,1,1.11-1.11c.92-.38,17.6-7.05,34.94-9.18a136.13,136.13,0,0,0-22.94-1.29,2,2,0,0,1-1.56-3.31c.55-.63,13.72-15.66,37.1-28.67,21.6-12,56.25-24.37,98.65-14.91a2,2,0,0,1,.83.4c.7.57,12.68,10.39,18.89,22.65a24.61,24.61,0,0,0-3.41-16c-13.52-23.16-52.15-20.81-68.14-18.72-36.35,4.74-59.37,19.57-72.27,31.17-14,12.58-19.47,24.2-19.53,24.32a2,2,0,0,1-.6.75c-11.64,8.87-8.69,37-5.83,64.27l.38,3.63c3,29,37.26,77,37.6,77.46a2,2,0,0,1,.31,1.7,2,2,0,0,1-1.14,1.31l-4.43,1.89c5,7.45,12.91,15.88,16.81,19.68,69.45,59.55,75.11,100.35,75.32,102.06a2,2,0,0,1-3.92.74c-4.34-17.07-11.93-27.2-22.54-30.12-24.85-6.83-59,27-59.37,27.3a2,2,0,0,1-3.41-1.5c1.65-36.37-26.4-92.51-31.85-103C295.33,358.46,240.51,426.84,230.54,445c-5.41,9.86-11.54,35.48-18,62.6-6.21,26-12.64,52.8-19.8,72.78C178.06,621.3,177.88,730.87,177.88,732a2,2,0,0,1-2,2H50.79a2,2,0,1,1,0-4h123.1c.07-15.61,1.09-112,15.05-150.92,7.08-19.79,13.77-47.72,19.67-72.37,6.85-28.58,12.76-53.27,18.42-63.6,10.59-19.3,66.6-89.4,110.41-111a2,2,0,0,1,2.64.84c1.38,2.56,32.58,61,33.28,102.07,9.66-8.73,37.34-31.23,59.78-25.07a27.59,27.59,0,0,1,9.52,4.76c-9.28-16-27.47-40.92-62.08-70.58l-.09-.08c-1.59-1.54-11.71-11.52-17.79-21l-18,7.71a2,2,0,0,1-2.26-3.2l16.19-17.43a2,2,0,0,1,3.46,1.36,14.84,14.84,0,0,0,2.22,6.51l2.68-1.15c-6.71-9.64-34.09-50.42-36.89-77.34l-.38-3.63c-3.09-29.36-6-57.09,7-67.57,1.17-2.34,7-13.16,20.1-25,13.34-12.05,37.11-27.43,74.59-32.32,48.55-6.33,66,10.23,72.12,20.67,5.05,8.65,5,17.84,2.36,23.82a25.54,25.54,0,0,1,1.26,8.49c2.7,3.39,15.24,19.83,19.82,38.14.88,3.51,1.62,6.88,2.25,10.1,12.63-3.37,20.86,2.19,21.22,2.43a2,2,0,0,1,.86,1.68c0,1.46-.83,35.85-16.51,39.26a16.93,16.93,0,0,1-4.13.39c.56,10.87,2.22,25.16,2.91,31.06.13,1.06.22,1.9.29,2.47s3.44,38.86-4.06,57.7c7-3.83,17.81-6.1,21-4.5,2.48,1.24,7.86,7.1,15.19,15.25,2.61,2.9,5.57,6.19,6.21,6.67a22.31,22.31,0,0,0,4.17,1.2c2.62.61,5.59,1.29,7.55,2.47,1.77,1.06,2.67,3.19,3.61,5.44,1.3,3.07,2.63,6.24,6,7.47s8.28,4.94,11.73,15.38l.06.18a6.12,6.12,0,0,0,1,1.11,11.62,11.62,0,0,1,4,7.36c.74,5.93-3.84,30.88-5,36.74-1.55,7.79-14.52,29.48-21.49,41.13-1.68,2.81-3,5-3.61,6.12-3,5.38-29.77,84.47-43.4,130.3-1.42,4.78-3.09,9.56-4.94,14.26,33.94,41.68,76.59,42,104.87,42.28,2.53,0,4.95,0,7.24.09.33-3.17,0-8.07-2.1-15.6-6.92-25.15,11.11-63.94,25.68-74a41.29,41.29,0,0,1,5.49-3c-19.58-6.17-41.95-14.34-47.14-19.64-7.71-7.86-55.68-34.36-56.16-34.63a2,2,0,0,1,1-3.74c3.92.16,13.13,4,26.72,9.94,7,3,13.53,5.87,18,7.46,3.89,1.37,9,2.6,14.43,3.9,11.2,2.7,22.77,5.48,27.63,10.34,6.46,6.46,32.18,20.84,32.44,21a2,2,0,0,1,1,2,2,2,0,0,1-1.54,1.66c-1.38.32-2.87.73-4.39,1.22l2.56.74a56.87,56.87,0,0,1,8.77-4.35c12.84-5.07,52.35,24,56.81,27.38h0A2,2,0,1,1,751,610h0c-.83-.25-4.5,1.29-7.44,2.52a93.3,93.3,0,0,1-14,5c-2.73.68-5.64,1.12-8.46,1.54-8.47,1.28-17.24,2.59-23.27,10.5-16.9,22.15-.67,45.19,0,46.16a2,2,0,0,1,.32,1.66,2,2,0,0,1-1.07,1.31c-.66.32-16.45,7.71-39.88,2.64a59.46,59.46,0,0,0-9.87-1,10.44,10.44,0,0,1-1.74,3.24,7.22,7.22,0,0,1-5.36,2.82c-3.67.71-62.47,12.51-133.52,45H816a116.25,116.25,0,0,0,3.08-20.5c-15.65-17-51.09-29.29-72.63-35.5l-20.73,2.88a1.93,1.93,0,0,1-.34,0c-.9,0-8.8-.42-10.42-5.3-1.23-3.68,1.59-8.2,8.61-13.82,18.11-14.48,89.2-87.87,91.85-90.62,1-1.2,9.47-11.22,26.3-11.26l93.17-9.94c1.85-.33,7.59-1,9.33,2.42,1.5,3-.85,7.15-7.64,13.44l-37.29,38.45,2.22,5.92c1.41,2.33,7.08,12.17,5.73,17.54-.79,3.16-5.13,6.3-9.74,9.63-2.79,2-7.46,5.38-7.62,6.71,0,4.77-3.89,13.86-5.89,17.19-.75,1.25-1.37,4.54-1.93,7.44-.67,3.54-1.31,6.88-2.42,8.74s-4.37,4.69-9.62,9.17a91.11,91.11,0,0,0-8,7.27c-3.1,3.72-12.17,3-22.81,1.69-1.21-.14-2.29-.27-3.2-.36-1.8-.18-8.1-1.12-16.18-2.37,2.69,5.37,3.44,12.38,3.28,19.2a39.14,39.14,0,0,1,3.67,5,24.67,24.67,0,0,1,3.79,17h397.73a2,2,0,0,1,0,4H828.11a2,2,0,0,1-1.93-2.51c1.45-5.57.53-10.93-2.82-16.38-.2-.33-.41-.65-.62-1a117,117,0,0,1-3.28,18.39,2,2,0,0,1-1.93,1.47H497.64a2,2,0,0,1-1.95-1.57,2,2,0,0,1,1.1-2.24c77.13-36.56,142.19-49,142.84-49.17a2,2,0,0,1,.49,0,3.33,3.33,0,0,0,2.4-1.43,6.37,6.37,0,0,0,.48-.74q-3-.06-6.2-.07c-28.66-.24-71.66-.6-106.54-42.06-10,23.91-24.13,45.8-33.55,59.12a48.75,48.75,0,0,1,.43,12.3c-1.5,13-5.41,21.26-11.6,24.46A12.74,12.74,0,0,1,479.62,735.3Zm-4.48-5a10,10,0,0,0,8.6,0c4.85-2.54,8.11-9.92,9.43-21.35a37.86,37.86,0,0,0,.07-7c-3.9,5.31-6.4,8.4-6.5,8.51a2,2,0,0,1-2.22.62,2,2,0,0,1-1.33-1.88c0-36.31-45.25-103.38-45.7-104.06-.12-.16-2.41-3.46-6.17-9-48.58,19.34-30.25,105.52-30.06,106.41a2,2,0,0,1-3.75,1.3c-.26-.54-26.64-54-88.76-86.86l-3.85-2.06c10.18,12.44,21.56,26.82,34.37,43.25,29.23,37.48,58.54,55,78,63.12,14.29,6,25.49,7.83,31.26,8.42-10.95-14.63-23.29-38.83-25.69-75.2-1.55-23.56,1.76-40.82,1.9-41.55a2,2,0,0,1,4,.49C425.16,682.21,471.79,727.18,475.14,730.32Zm310-45.67c12.89,5.61,25.33,12.49,34,20.55-.22-6.18-1.41-12-4.48-15.87C805.1,687.84,794.09,686.08,785.15,684.65ZM453.79,595.73c4.42,7.64,34.52,60.55,41.93,95.83,9.48-13.71,22.55-34.59,31.67-57.09-22.46-27.87-41.49-41.56-53.54-48.15a84.9,84.9,0,0,0-10-4.71C459.19,587,455.3,592.1,453.79,595.73Zm362.88,89.86c9.78,1.53,17.73,2.73,19.73,2.93.93.09,2,.22,3.27.37,4.74.57,17.31,2.07,19.27-.28a88.25,88.25,0,0,1,8.46-7.75c3.54-3,7.94-6.78,8.79-8.18.75-1.25,1.37-4.54,1.92-7.44.68-3.54,1.31-6.88,2.43-8.75,1.87-3.11,5.32-11.45,5.32-15.15,0-3.08,3.53-5.78,9.28-9.94,3.28-2.36,7.77-5.61,8.2-7.35.72-2.87-2.7-10.29-5.36-14.65a1.54,1.54,0,0,1-.17-.34l-1.68-4.47a2,2,0,0,1-1.94-.18c-2.46-1.69-9.66-5.54-13.31-3.1-1.39.92-2.18,3.24-2.13,6.21.09,4.89,2.54,11.3,7,14.07,1.29.79,4.3,2.64,3.46,5.13-.28.85-1,3.12-9.67,2.3a2,2,0,0,1-1.23-.58c-5.92-5.92-15.93-14.09-19.54-13.74a12.38,12.38,0,0,0-8.43,5.14,6.37,6.37,0,0,0-1.06,5.37c.92,3,6.49,7.54,11,11.15,3.72,3,6.94,5.59,8.15,7.72l.39.68c3.79,6.6,5.36,9.91,3.4,11.76s-4.65-.16-6-1.07c-5.05-3.37-9.22-7.76-12.56-11.29a59.52,59.52,0,0,0-4.41-4.39c-.81-.68-1.62-1.43-2.47-2.23-3-2.85-6.19-5.8-9.72-5.41a8.78,8.78,0,0,0-6.28,4.8,7.81,7.81,0,0,0,.31,7.76,35.71,35.71,0,0,0,2.4,3.55,76.09,76.09,0,0,1,9.09,3.08,2,2,0,0,1,1.1,1.12,40.25,40.25,0,0,0,4.43,8.26c12.4,7.87,15.62,10.78,14.94,13.49a2.55,2.55,0,0,1-2.4,1.93h-.17c-3,0-9.8-4.84-15.24-12.51l-2.05-1.32a64.07,64.07,0,0,1-5.28-3.89,48.87,48.87,0,0,1-6.7-6.62c-3.76-.91-7.31-1.33-9.12-.53s-3,3.12-3,5.77a8.58,8.58,0,0,0,5.42,8c5.77,2.47,8.31,7.43,10.36,11.41,1.13,2.2,2.19,4.28,3.34,4.77l1.22.53a2,2,0,0,1-1.58,3.67l-1.22-.52h0L832.3,683a2.06,2.06,0,0,1-1-.92c-.43-.83-11.08-20.36-45.7-15.14-4.33,1.3-10.75,4-14.11,6.8,13.32,1.8,29.26,4.49,39.23,8A15.14,15.14,0,0,1,816.67,685.59Zm-47.11-7.49c3.57.57,17.52,2.82,31.81,5.08a307.71,307.71,0,0,0-32-5.67A2,2,0,0,0,769.56,678.1Zm-121.48-1.84a61.7,61.7,0,0,1,9.93,1.09c17.25,3.73,30.29.22,35.19-1.51-4-6.75-14.24-28.31,1.38-48.78,7-9.19,17-10.7,25.86-12,2.85-.43,5.54-.83,8.08-1.46A89.65,89.65,0,0,0,742,608.79c1.81-.76,3.39-1.42,4.78-1.91-16.52-11.81-41.29-26.71-48.74-23.78-1.68.67-3.28,1.39-4.78,2.16,4.29,1.18,7.79,2,10,2.49,14.05,2.74,21.18,20.51,21.48,21.27a2,2,0,0,1-3.35,2.06c-.14-.15-13.72-15.07-27.72-11.7-10.92,2.62-19.51,15.44-25.54,38.1a2,2,0,0,1-3.91-.2c-.06-.37-4.77-32.27,19.28-50.64L679,585.27a53.06,53.06,0,0,0-9,4.52c-12.28,8.51-30.8,45.34-24.11,69.69C647.71,666.34,648.46,672,648.08,676.26ZM938,551a14.3,14.3,0,0,0-2.52.22l-.15,0-93.35,10h-.22c-15.63,0-23.23,9.7-23.3,9.8l-.15.17c-3,3.11-73.74,76.19-92.3,91-7.66,6.13-7.54,8.76-7.32,9.43.55,1.63,4.47,2.46,6.6,2.56l11.31-1.57c-4.8-1.25-7.76-1.91-7.91-1.94a2,2,0,0,1-1-3.37l85.84-85.22a73,73,0,0,1,19.85-16,2.06,2.06,0,0,1,.72-.21l20.53-1.86c13.09-1.29,23.46,1.3,30.81,7.69,9.16,8,10.4,19.13,10.56,21.26l1.66,4.42,36-37.13.08-.08c7.33-6.78,6.82-8.74,6.82-8.76A4.52,4.52,0,0,0,938,551ZM747.83,671.08H748c.74.07,8.5.75,18.69,2,4.14-5.8,16.38-9.59,17.91-10a1.31,1.31,0,0,1,.27-.06c16-2.45,27.38.13,35.17,4a12.69,12.69,0,0,1-4.92-9.94c0-4.29,2.07-8,5.33-9.45,1.91-.85,4.58-.89,7.4-.52l-.22-.38a11.79,11.79,0,0,1-.43-11.58,12.79,12.79,0,0,1,9.4-7c5.37-.6,9.55,3.32,12.9,6.47.81.76,1.58,1.47,2.3,2.07a61,61,0,0,1,4.75,4.72c3.15,3.32,7.05,7.44,11.62,10.54-.88-1.83-2.18-4.09-2.82-5.2l-.39-.68c-.84-1.48-4.07-4.08-7.19-6.6-5.41-4.36-11-8.87-12.28-13.11a10.26,10.26,0,0,1,1.56-8.74,16.43,16.43,0,0,1,11.36-6.9c6.46-.65,18.72,10.9,22.25,14.38a27.87,27.87,0,0,0,3.27,0l-.23-.14c-6-3.69-8.84-11.61-9-17.41-.08-4.46,1.31-7.87,3.91-9.61,5-3.34,12.11-.19,15.68,1.82l-2.13-5.68a1.91,1.91,0,0,1-.13-.62c0-.11-.59-11.27-9.25-18.77-6.48-5.62-15.82-7.87-27.76-6.7l-20.16,1.83a71.54,71.54,0,0,0-18.37,14.93l-.09.09L733.14,667.6c3.05.73,7.84,1.94,13.7,3.6l.71-.1ZM823.67,669c.92.58,1.78,1.17,2.57,1.76A11.9,11.9,0,0,0,823.67,669Zm15.57-14.73,1.2,1,.14.11c-.11-.24-.21-.48-.31-.73ZM466.67,578.38c13.35,5.47,35.48,18.9,62.39,51.8,1.48-3.91,2.83-7.85,4-11.81,13.14-44.2,40.29-124.91,43.73-131.1.64-1.16,2-3.4,3.68-6.24,6.35-10.62,19.58-32.74,21-39.86,2.07-10.36,5.5-31.08,5-35.45a7.68,7.68,0,0,0-2.86-5,7.14,7.14,0,0,1-2-2.73l-.06-.18c-3.1-9.4-7.16-12.11-9.3-12.89-5-1.82-6.93-6.36-8.32-9.67-.63-1.49-1.34-3.17-2-3.56a26.33,26.33,0,0,0-6.4-2c-2.43-.57-4.35-1-5.51-1.78-.84-.56-2.47-2.35-6.94-7.31s-12-13.36-14-14.35-14.94,1.7-20.31,6.48c-2.28,2-1.89,3.37-1.77,3.81,1.94,6.63,11.58,4.72,12,4.63a2,2,0,0,1,1.67.41,2,2,0,0,1,.74,1.55c0,1.39-.19,13.73-6.63,17.31a23.88,23.88,0,0,0-3.39,2.4c-1.71,1.39-3.32,2.7-5.43,2.31-1.77-.32-3.29-1.77-5.08-4.83a62.47,62.47,0,0,1-2.83-5.78c-4-8.82-7.11-14.46-14.23-12.59a39.27,39.27,0,0,0-11.63,5.72,20,20,0,0,1,4.07,4.31c.58.87,1.3,1.84,2.05,2.87,4,5.45,10.05,13.68,9.49,25.23-.63,13.13-.48,14.13,2.63,17.76,3.61,4.21,20.19,36.79,14,51.85-1.42,3.46-3.91,9.94-6.79,17.46-8.67,22.62-21.78,56.82-27,64.44-2.67,3.88-8,9.55-14.11,16.12C473.31,571.11,469.89,574.76,466.67,578.38Zm221.79,9.68c-15.06,10-19.34,25.5-20.36,36.29,6.2-16.73,14.48-26.42,24.69-28.86,8.64-2.07,16.81,1.47,22.68,5.37-3.1-4.07-7.45-8.12-12.93-9.19C699.8,591.14,694.74,589.84,688.46,588.06ZM231.12,554.83c-1.41,0-1.79.3-1.8.31-.25,1,2.8,7.12,20.09,20.29a397.94,397.94,0,0,0,38.36,25.27c-25.21-29.36-42.09-44.15-54.88-45.75A14.24,14.24,0,0,0,231.12,554.83ZM360.79,469.4l.54,1.27c14.06,33.76,52.78,92.76,70.45,119-5.49-18.42-31.24-100.12-60.13-114.56C367.9,473.22,364.27,471.32,360.79,469.4Zm232.35,68.42c14.25,8.27,31.15,18.54,35.72,23.2,4.87,5,29.71,13.81,49.93,20,1.74-.68,3.51-1.31,5.22-1.85-7.74-4.46-23.87-14-29.12-19.27-4.06-4.06-15.57-6.83-25.73-9.28-5.53-1.33-10.75-2.58-14.83-4-4.65-1.63-11.28-4.51-18.31-7.56Zm-138.37,37a48.08,48.08,0,0,1,7.89,2c3.48-4,7.27-8,10.88-11.87,5.79-6.18,11.25-12,13.74-15.65,5-7.23,18-41.16,26.59-63.62,3-7.84,5.38-14,6.82-17.54,5.1-12.47-9.79-43.55-13.36-47.73-4.34-5.06-4.21-7.73-3.6-20.56.49-10.13-4.83-17.37-8.71-22.66-.78-1.07-1.52-2.08-2.15-3a17.25,17.25,0,0,0-4.08-4.05c-11.79,9.44-23.88,26.66-22.77,52,1.23,4.56,16,60.77,6.73,85.48C460.83,539.41,454.64,562.56,454.77,574.83ZM311.39,428.06c4.12,5.87,18.5,18.22,39.66,31.09C340.53,441.69,327,432.07,317.24,429A14.19,14.19,0,0,0,311.39,428.06Zm201.73-68.14c4,3,6.48,8.51,8.5,13,.91,2,1.76,3.9,2.64,5.41,1.61,2.76,2.32,2.91,2.35,2.92a8.56,8.56,0,0,0,2.19-1.48,27.13,27.13,0,0,1,4-2.8c3-1.67,4.13-7.69,4.46-11.5-5,.36-12.12-.91-14.12-7.77a6.84,6.84,0,0,1-.24-1.18A19.08,19.08,0,0,1,513.12,359.92Zm-29.81,2.47a47.69,47.69,0,0,1,5.4,2.89,46,46,0,0,1,13.38-7,33.72,33.72,0,0,1-7.49-3.67c-2.54.22-7.85,1.24-10.14,4.09A5.29,5.29,0,0,0,483.31,362.39ZM358.93,315.7l-7.12,7.66,8.85-3.79A27.37,27.37,0,0,1,358.93,315.7Zm88.3-69.06a2,2,0,0,1,1.9,1.36c.06.18,6,17.81,15,21.17s26.78-5.49,28.86-8.09c.62-.78,1.53-4.47,2.27-7.43,2-8.07,4.05-16.41,9-17,3-.32,5.93,2.35,9.65,5.74s7.79,7.09,12.57,8.72a47.43,47.43,0,0,1,.29-7.16c1.15-7.76.94-16.38-.68-26.48-5.28,2.27-10,5.91-13.92,8.92-4.22,3.25-7.55,5.81-10.58,6.15-2.4.26-4.83-.39-7.64-1.14a43.45,43.45,0,0,0-20.27-1.37c-14.75,2.36-26.18,13.64-26.29,13.76a2,2,0,0,1-1,.55L431,247.22l16.19-.58Zm-73.75,11.18a28.33,28.33,0,0,1,7.58,9l15.21-4.06a56,56,0,0,1-1.34-8.91Zm157-5.87a13.13,13.13,0,0,0,3.44-.29c10-2.18,13-24.45,13.32-34.26-2.23-1.17-8.49-3.71-17.33-1.25,1.79,10.83,2,20.07.81,28.42A46.72,46.72,0,0,0,530.5,252ZM339.87,187.32c-11.64,31.42,33,58.77,38.16,61.79l16.86-.61a34.22,34.22,0,0,1,8.45-21.34,36.4,36.4,0,0,1,10-7.89c-21.16-12.58-17.95-42.73-17.91-43.06a1.93,1.93,0,0,1,.44-1c20.18-24.46,69.71-22.24,75.3-21.91,15.9-6,24.49-4.11,28.93-1.41-5.25-10.61-15.66-19.75-17.71-21.48-41-9-74.45,3-95.36,14.6a154.39,154.39,0,0,0-32.82,24.45c22.07.12,34.66,4.94,35.22,5.16a2,2,0,0,1-1,3.85C370,176.26,344.67,185.49,339.87,187.32Zm59.51-10.07c-.33,4.29-1.49,31.2,19.4,40.3a2,2,0,0,1-.18,3.74,30.32,30.32,0,0,0-19.72,27.07l4.73-.17L445,240.56c2.39-2.26,13.56-12.12,28-14.44A47.69,47.69,0,0,1,495,227.57c2.53.68,4.52,1.22,6.17,1,1.92-.21,5.15-2.7,8.58-5.34,4.32-3.32,9.56-7.36,15.65-9.79q-.95-5-2.31-10.4c-4.8-19.23-19.36-37-19.51-37.18a2,2,0,0,1-.46-1.41,19.59,19.59,0,0,0-.38-5.33h-.35a2,2,0,0,1-1.6-1.21c0-.07-4.86-9.81-28.57-.78a1.9,1.9,0,0,1-.85.13C470.84,157.24,419.31,154,399.38,177.25Z"/></g></g></svg>