<svg xmlns="http://www.w3.org/2000/svg" viewBox="0 0 4000 4000"><defs><style>.cls-1{fill:#fff;}.cls-2{fill:#2c2c2c;}</style></defs><title>us</title><g id="Layer_2" data-name="Layer 2"><g id="ëÎÓÈ_1" data-name="ëÎÓÈ 1"><rect class="cls-1" width="4000" height="4000"/><path class="cls-2" d="M2432.73,246a1.77,1.77,0,0,0-.24.7c0,.15,0,.3,0,.46s0,.56,0,.83c0,.63,0,1.25,0,1.87,0,1.07,0,2.15-.06,3.22l-.18,7.49a.91.91,0,0,0,.9.91.92.92,0,0,0,.73-.37q.14,6.17.17,12.33c0,1.91,0,3.83.05,5.74.09,2.19.22,4.37.37,6.56.29,4.11.58,8.23.8,12.36s.33,8.25.42,12.38c0,2,.11,3.92.25,5.88q.24,3.17.54,6.31c.1,1.05.25,2.1.4,3.14l.51,3.46c.3,1.94.53,3.89.84,5.82s.7,4.07,1,6.12.63,4.25,1,6.37c.26,1.63.56,3.24.84,4.86s.5,3.13.73,4.7c0-.1,0-.2,0-.3.27,2.05.49,4.09.69,6.15s.34,3.88.56,5.82c.48,4.09.95,8.19,1.3,12.31.21,2.48.39,5,.57,7.47.07,1.09.15,2.17.2,3.26,0,.65,0,1.3,0,2s-.06,1.11-.13,1.67a6.42,6.42,0,0,1-.14.74l-.07.05a1.63,1.63,0,0,0-.25,2,1.66,1.66,0,0,0,2.25.59,2.58,2.58,0,0,0,1.2-1.24,5.94,5.94,0,0,0,.54-1.89,13,13,0,0,0,.18-1.75,14.81,14.81,0,0,0,0-1.49c0-.55-.05-1.11-.09-1.66-.12-2-.27-4-.43-6-.33-4-.71-8.07-1.19-12.1-.27-2.21-.54-4.41-.78-6.62-.22-1.93-.36-3.86-.59-5.79-.53-4.31-1.28-8.57-2.06-12.83-.32-1.76-.58-3.53-.86-5.29-.34-2.09-.71-4.18-1.08-6.26-.31-1.76-.55-3.53-.81-5.29-.31-2.05-.63-4.08-.93-6.13,0,.13,0,.27.05.42-.13-.95-.26-1.9-.36-2.85-.11-1.15-.22-2.3-.32-3.44-.17-1.93-.36-3.86-.41-5.8-.13-4.15-.24-8.3-.46-12.45s-.5-8.26-.84-12.38q-.27-3.28-.5-6.57c-.14-1.9-.18-3.81-.21-5.7-.06-4.23-.14-8.45-.29-12.67-.14-4.06-.32-8.13-.74-12.18-.07-.66-.16-1.32-.25-2a15.36,15.36,0,0,0-.31-1.67,3.69,3.69,0,0,0-.35-1,2.42,2.42,0,0,0-.29-.42,1.31,1.31,0,0,0-.4-.26,1.22,1.22,0,0,0-.56-.14,1,1,0,0,0-.9.52"/><path class="cls-2" d="M2440.21,238.53a2.06,2.06,0,0,0-.95,1.25h0a4.62,4.62,0,0,0-.18,1.05c-.07.59-.1,1.19-.14,1.78-.06,1-.1,2-.15,2.94s-.11,2.15-.16,3.23c-.27,1.17-.56,2.33-.86,3.49-.43,1.68-.77,3.38-1.1,5.07-.54,2.74-1.18,5.45-1.8,8.16a1,1,0,0,0,1.87.51q.69-3,1.34-5.95c-.06,2.19-.09,4.38-.12,6.57-.15,9-.17,18.09-.2,27.13q-.08,16.19-.09,32.39,0,16.91,0,33.79,0,8.88,0,17.76c0,2.16,0,4.32,0,6.47,0,3.2.13,6.38.3,9.56.32,5.54.65,11.08.87,16.62s.38,11.17.48,16.76c.08,4.67.1,9.33.28,14,.12,2.88.35,5.76.52,8.63.16,2.47.29,4.95.42,7.42.54,10.31.69,20.64.8,31q.16,16.33.19,32.65t0,32.77c0,5.62,0,11.23,0,16.84,0,5.16.59,10.29,1,15.44.37,5,.52,10,.65,15,.15,5.65.2,11.3.24,17,0,2.14.05,4.26.23,6.38.16,1.86.37,3.7.55,5.54.42,4.05.69,8.09.86,12.16.18,4.28.23,8.57.28,12.86.07,5.36.08,10.72.09,16.07q0,16.53,0,33.06v20.35q0,3.78.12,7.56c.11,3.8.44,7.61.69,11.4.83,12.35,1,24.71,1.08,37.08s.06,24.59.06,36.89c0,6.56.11,13.13-.09,19.68-.05,1.85-.16,3.71-.27,5.56s-.19,3.71-.38,5.56c-.33,3.27-.71,6.53-1.08,9.78.05-.33.09-.67.14-1-.41,3-.85,6-1.3,9-.53,3.46-1.16,6.9-1.8,10.35-.5,2.68-1.06,5.34-1.63,8s-1,5.16-1.75,7.69q-.73,2.61-1.45,5.2c-.44,1.62-1.11,3.18-1.64,4.77s-1.07,3.07-1.62,4.6c-.48,1.32-1.06,2.61-1.61,3.9-1,2.28-2.06,4.57-3.18,6.81a41.51,41.51,0,0,1-3.86,6.18,75.11,75.11,0,0,1-11.52,11.72,103.08,103.08,0,0,1-9.74,6.15c-1.86,1.07-3.81,2-5.73,2.94-1.53.76-3.06,1.52-4.62,2.23a40.23,40.23,0,0,1-4.44,1.42,42.79,42.79,0,0,1-4.21.8c-.61.06-1.22.12-1.84.14-1.06,0-2.1,0-3.16-.11l-.57-.09a14.69,14.69,0,0,1-2.5-.68c-.48-.15-1-.34-1.43-.54-.69-.36-1.39-.73-2.07-1.11a11.35,11.35,0,0,1-1.24-.85c-.62-.52-1.22-1-1.8-1.6.83-.84,1.65-1.68,2.49-2.51a123.87,123.87,0,0,0,13.21-15.71c1-1.42,2-2.87,3-4.34.84-1.29,1.6-2.61,2.37-3.94s1.49-2.65,2.23-4c.92-1.63,1.73-3.31,2.52-5,1.48-3.15,3-6.28,4.28-9.52s2.38-6.62,3.41-10c.45-1.5.84-3,1.28-4.55s.82-3.12,1.21-4.67.85-3.17,1.23-4.77c.45-1.92.66-3.89.92-5.83a46.25,46.25,0,0,0,.26-5,34.38,34.38,0,0,0-.38-5q-.31-2.52-.81-5c-.39-2-.91-3.91-1.47-5.84-.51-1.74-1.12-3.44-1.73-5.15a52.14,52.14,0,0,0-2-4.91c-.73-1.54-1.57-3-2.43-4.5a53.18,53.18,0,0,0-3.29-4.77,67.16,67.16,0,0,0-7.48-8.07c-3-2.92-6.26-5.63-9.56-8.24-2.67-2.12-5.38-4.21-8.14-6.22-1.42-1-2.81-2.12-4.22-3.17-1.78-1.35-3.63-2.59-5.51-3.81s-3.58-2.15-5.4-3.16a50.41,50.41,0,0,0-5.54-2.54c-2-.82-4-1.55-6-2.23-2.63-.87-5.32-1.57-8-2.26-10.16-2.6-20.08-6-30.22-8.7-4.57-1.19-9.19-2.22-13.8-3.27-5.51-1.26-11-2.55-16.54-3.75-2.15-.46-4.32-.89-6.47-1.33-2.7-.56-5.4-1.15-8.11-1.65-5.69-1-11.39-2-17.09-3-9.34-1.58-18.78-2.5-28.2-3.35-4.33-.38-8.64-.88-13-1.29-2.4-.23-4.8-.43-7.21-.63-3-.26-6-.58-9-.9-4.91-.5-9.84-.82-14.75-1.21-2.58-1.5-5.27-2.81-7.94-4.15-1.34-.67-2.74-1.21-4.11-1.82s-2.61-1.12-3.92-1.67c-3.68-1.6-7.43-3.06-11.15-4.56-1.94-.78-3.89-1.5-5.89-2.14a43.56,43.56,0,0,0-6.27-1.47c-2.19-.39-4.4-.67-6.61-.89s-4.45-.38-6.66-.61-4.37-.57-6.56-.84c-1.61-.22-3.22-.4-4.84-.59-1.79-.32-3.54-.75-5.31-1.12s-3.6-.64-5.41-.88c-2.71-.47-5.38-1.13-8.1-1.54-1.59-.24-3.19-.45-4.8-.6-1.28-.12-2.57-.21-3.85-.36-2.51-.4-5-.82-7.52-1.19-1.38-.2-2.74-.54-4.11-.82-1.62-.34-3.27-.57-4.89-.93-2.41-.54-4.76-1.29-7.18-1.78a61.49,61.49,0,0,0-7.4-1c-5-.4-10.12-.35-15.17-.37l-6.75,0c-.64,0-1.26,0-1.89,0a15.56,15.56,0,0,0-2.36.31c-.45.07-.89.16-1.33.25a9.77,9.77,0,0,0-1.68.48c-.59.23-1.16.48-1.73.72a21.1,21.1,0,0,0-2.46,1.48,18.62,18.62,0,0,0-2.25,1.91,22.22,22.22,0,0,0-2,2.28,21.84,21.84,0,0,0-2.13,3.1,11.56,11.56,0,0,0-1,2.55c-.09.61-.17,1.24-.24,1.87a11.84,11.84,0,0,0,.18,1.87c.06.29.11.59.16.89a12.25,12.25,0,0,0,.69,1.77,8.49,8.49,0,0,0,1.5,2.34,19.65,19.65,0,0,0,2.18,2l.77.6a11.91,11.91,0,0,0,2,1.14,20.52,20.52,0,0,0,2.72,1.08l1.93.68c1.59.56,3.22,1.06,4.87,1.47,1.48.38,2.94.82,4.42,1.23s3,.81,4.46,1.27,2.89.89,4.35,1.27c1.66.44,3.36.76,5,1.16,3.49.82,7,1.43,10.52,2.11a136.47,136.47,0,0,0,15.22,2c3.87.31,7.76.45,11.65.46,1.92,0,3.85-.1,5.77-.16l6-.26c6.18-.26,12.37-.37,18.55-.8,6.56-.45,13.1-.94,19.67-1.28,7.26-.38,14.55.11,21.81.37,4.13.16,8.27.27,12.41.41,1.41,0,2.82.13,4.24.23,1.93,1.17,3.83,2.4,5.73,3.64,2.94,1.93,5.74,4,8.53,6.16,2.14,1.69,4.27,3.41,6.32,5.22,1.16,1,2.32,2.1,3.49,3.13s2.5,2.14,3.75,3.22q7.8,6.67,15.14,13.92c2.26,2.22,4.5,4.47,6.61,6.86,1.75,2,3.59,3.93,5.37,5.9s3.4,3.75,5.21,5.5,3.48,3.25,5.26,4.83q5.6,4.95,11,10c1.66,1.54,3.33,3.05,5,4.59,1.4,1.29,2.75,2.63,4.12,4q4.29,4.2,8.8,8.16c3.58,3.15,7.33,6.07,11.1,9l-.77-.59c2.19,1.73,4.37,3.49,6.61,5.18q3.87,2.93,7.83,5.74c2.48,1.76,5.05,3.39,7.57,5.1,2.34,1.59,4.65,3.21,6.91,4.92,1.94,1.59,3.85,3.21,5.7,4.9s3.78,3.63,5.64,5.46c1.6,1.57,3.23,3.12,4.85,4.67l5.69,5.54c2,1.91,3.91,3.84,5.78,5.84,1.15,1.23,2.23,2.53,3.31,3.82s2.17,2.54,3.25,3.82c4,4.72,8.16,9.34,12,14.21,2,2.65,3.89,5.36,5.83,8.06,1.31,1.84,2.73,3.59,4.21,5.29l-.28.29c-1.61,1.57-3.29,3.07-5,4.54-3.41,2.93-6.92,5.74-10.44,8.52-1.83,1.38-3.67,2.72-5.56,4s-3.86,2.78-5.78,4.18c-4.23,3.07-8.72,5.77-13.08,8.63q-3.15,2.05-6.28,4.16c-2.3,1.55-4.63,3-6.94,4.6-4.24,2.85-8.33,5.91-12.39,9a129.71,129.71,0,0,1-12.62,8.52l-6.48,3.88c-1.46.87-2.91,1.76-4.37,2.64-.17-.64-.35-1.28-.52-1.92-.58-2.1-1.16-4.2-1.77-6.29-.69-2.31-1.5-4.58-2.28-6.85-.62-1.8-1.35-3.55-2-5.33s-1.31-3.33-2-5c-1.52-3.49-3.29-6.85-5.12-10.19-.76-1.4-1.6-2.76-2.42-4.12s-1.62-2.67-2.44-4c-1.66-2.62-3.31-5.21-4.89-7.87q-2.61-4.41-5.34-8.73c-2-3.21-4.1-6.39-6.23-9.51-1.82-2.67-3.78-5.26-5.81-7.77-2.2-2.73-4.56-5.33-7-7.9-1.12-1.19-2.28-2.37-3.42-3.54-1.44-1.48-2.79-3-4.13-4.61s-2.51-2.93-3.75-4.41-2.38-3-3.54-4.48c-2.29-3-4.51-6.08-6.87-9-1.2-1.51-2.4-3-3.67-4.49-1.5-1.72-3.11-3.34-4.73-4.95-1.36-1.34-2.79-2.61-4.17-3.92s-2.63-2.5-4-3.74-2.55-2.17-3.84-3.24c-1.45-1.19-2.88-2.39-4.35-3.56-2.81-2.26-5.76-4.35-8.74-6.41-1.42-1-2.91-1.91-4.38-2.85q-2.6-1.69-5.28-3.25c-3.39-2-6.82-3.88-10.3-5.66-4-2.05-8.13-3.85-12.19-5.76s-7.82-3.84-11.6-6c-3.95-2.24-8-4.37-11.87-6.69-6.75-4-13.49-8-20.1-12.23-3.25-2.07-6.6-4-10-5.86-1.73-1-3.44-1.93-5.16-2.9-2-1.1-4-2.11-5.94-3.13-1.69-.86-3.39-1.7-5.11-2.49-1.56-.71-3.08-1.46-4.64-2.16-3.23-1.48-6.39-3.08-9.69-4.4s-6.77-2.44-10.18-3.58c-1.83-.62-3.68-1.15-5.52-1.71-2.2-.66-4.41-1.3-6.63-1.89-2-.54-4-1.09-6.06-1.58-2.25-.54-4.54-1-6.8-1.52-2.48-.56-5-1-7.51-1.47-2.92-.57-5.85-1.09-8.8-1.54-4.69-.73-9.44-1.16-14.17-1.49-6-.42-12-.62-18-.77-5.83-.17-11.66-.21-17.49-.26-5.57,0-11.14-.09-16.71-.08-2.76,0-5.52,0-8.26.19l-4.08.25c-1.45.09-2.9.27-4.35.4q-3.51.32-7,.75c-3.28.4-6.58.77-9.86,1.26-5.08.76-10.14,1.56-15.18,2.5-5.57,1-11.12,2.23-16.65,3.48-5,1.14-10,2.62-14.91,4.08-2.29.68-4.58,1.36-6.85,2.1-2.91.94-5.79,2-8.67,3-2.27.82-4.51,1.76-6.74,2.72-2.59,1.12-5.21,2.22-7.8,3.39-6.15,2.77-12.21,5.76-18.25,8.78-2.54,1.27-5.06,2.58-7.6,3.85s-5.17,2.61-7.74,3.94c-4.86,2.52-9.67,5.11-14.41,7.85s-9.26,5.46-13.86,8.25c-2.37,1.43-4.77,2.82-7.07,4.36q-4,2.67-7.84,5.44l-7.54,5.34c-2.12,1.49-4.17,3.11-6.23,4.69s-4.17,3.23-6.25,4.85c-1,.82-2.07,1.66-3.1,2.49-1.36,1.1-2.66,2.27-4,3.41-1.09.95-2.12,2-3.18,3s-2.19,2.12-3.28,3.18c-2,1.94-3.93,3.92-5.85,5.93-.92,1-1.78,2-2.67,3s-1.74,2.09-2.6,3.14c-1.79,2.14-3.51,4.34-5.2,6.56-3.45,4.53-6.93,9.06-10.13,13.78-1.64,2.42-3.29,4.84-4.86,7.31s-3.13,5-4.67,7.55c-1.25,2.06-2.42,4.19-3.61,6.28s-2.54,4.49-3.78,6.75c-2.71,5-5.53,9.84-8.3,14.76-2.52,4.48-5.1,8.91-7.5,13.46-1.31,2.47-2.6,5-3.85,7.46-.65,1.29-1.26,2.6-1.87,3.9-.78,1.68-1.58,3.35-2.27,5.07q-3,7.32-5.56,14.76c-1.76,5-3.24,10.16-4.73,15.28-.68,2.37-1.17,4.8-1.7,7.22-.68,3.09-1.26,6.21-1.86,9.33-1.18,6.08-2.26,12.18-3.41,18.26-.57,3-1.2,6-1.75,9s-1,6-1.56,9-1,6-1.5,9-.77,5.89-1.13,8.83c-.69,5.1-1.37,10.2-1.9,15.33-.27,2.56-.51,5.12-.81,7.68-.33,2.84-.66,5.67-1,8.51s-.54,5.8-.77,8.71c-.21,2.69-.47,5.37-.74,8-.29,2.85-.54,5.69-.76,8.54-.24,3.24-.44,6.48-.7,9.71-.45,5.75-1,11.48-1.41,17.23-.41,6.32-.77,12.65-1.2,19-.18,2.58-.34,5.16-.6,7.73-.34,3.27-.69,6.55-1,9.81-.63,5.65-1.34,11.28-2.06,16.92a.78.78,0,0,0,0-.16c-.71,5.2-1.43,10.41-2.12,15.61,0-.33.09-.67.14-1-.74,5-1.49,10.06-2.32,15.08-.43,2.58-.87,5.15-1.36,7.73s-1.06,5.09-1.61,7.64c-1.17,5.52-2.38,11-3.67,16.51-1.16,5-2.51,9.88-3.86,14.79s-3,9.94-4.64,14.85c-1.78,5.33-3.58,10.65-5.5,15.94-2,5.52-4.24,11-6.46,16.38-1.14,2.78-2.32,5.54-3.44,8.32-1.28,3.14-2.57,6.29-3.86,9.42-1,2.28-1.92,4.57-3,6.81-1.54,3.3-3.07,6.59-4.66,9.87-2.63,5.42-5.32,10.84-7.93,16.28q-2.07,4.31-4.21,8.58c-1.48,3-3,5.89-4.59,8.82-2.78,5.26-5.54,10.52-8.34,15.77-5.41,10.13-11.4,19.92-17.49,29.65-3.53,5.61-7.35,11.05-11.12,16.51-3.4,4.94-6.93,9.79-10.46,14.65-3.5,4.46-7,8.9-10.58,13.33s-7.19,8.7-10.93,12.92c-7.62,8.64-15.74,16.84-23.79,25.09-3.85,3.94-7.81,7.77-11.75,11.62-4.38,4.27-8.88,8.41-13.41,12.52-8.89,8.06-18.05,15.79-27.27,23.45-2.25,1.88-4.55,3.69-6.82,5.53s-4.53,3.68-6.81,5.52c-1.9,1.53-3.82,3-5.7,4.59l-8.32,6.86q-14.09,11.67-28.43,23c-4.37,3.44-8.64,7-12.89,10.63-4.64,3.94-9.18,8-13.67,12.1-4,3.7-8,7.52-11.73,11.56-1.65,1.79-3.29,3.6-4.85,5.48-1.91,2.31-3.71,4.7-5.48,7.1-1.33,1.81-2.64,3.64-3.9,5.5-1.12,1.66-2.27,3.3-3.34,5-1,1.52-2,3-2.83,4.58-1,1.73-1.85,3.51-2.7,5.3s-1.55,3.37-2.24,5.09-1.36,3.57-2,5.37c-1.49,4.1-3.05,8.18-4.5,12.29-.86,2.46-1.63,4.93-2.37,7.43-.36,1.2-.71,2.41-1,3.62-.39,1.39-.7,2.79-1,4.2-.49,2.16-.8,4.39-1.17,6.57-.51,3-1,6-1.42,9-.31,2.43-.61,4.85-.86,7.29s-.47,4.92-.68,7.39c-.5,5.84-.73,11.73-.8,17.59,0,1.38,0,2.75.08,4.12s.09,2.83.15,4.25c.09,2.58.27,5.15.47,7.73s.52,5,.83,7.5c.36,2.9.85,5.77,1.44,8.63a138.85,138.85,0,0,0,4.44,15.87q1.3,3.9,2.76,7.73c.93,2.42,1.89,4.82,2.86,7.22q3,7.51,6.43,14.9c1,2.2,2,4.41,3.12,6.57,1.23,2.43,2.52,4.83,3.79,7.25,2.4,4.54,4.94,9,7.44,13.5,1.22,2.18,2.5,4.32,3.77,6.48,1.39,2.34,3,4.58,4.51,6.84,1.36,2,2.76,4,4.18,6,1.61,2.24,3.19,4.5,4.86,6.69,3.31,4.35,6.81,8.54,10.36,12.69,1.79,2.08,3.53,4.22,5.3,6.32s3.45,3.89,5.25,5.78c3.75,3.93,7.67,7.7,11.46,11.6,3.22,3.31,6.54,6.54,9.69,9.92,3.7,4,7.36,8,11.09,11.94,3.46,3.64,7,7.21,10.5,10.82q2.75,2.82,5.45,5.68c2,2.1,3.9,4.28,5.84,6.42,3.61,4,7.44,7.81,11.18,11.69,4,4.09,7.85,8.22,11.8,12.31q11.91,12.3,24,24.45,3.12,3.14,6.23,6.28c-.42,1.71-.83,3.42-1.25,5.14-.54,2.21-1.12,4.43-1.64,6.66-.7,2.91-1.34,5.84-2,8.75a149.58,149.58,0,0,0-2.7,15.29c-.65,5.41-1.43,10.81-2,16.24a290.23,290.23,0,0,0-1.82,32c0,2.22.1,4.45.18,6.67.11,2.82.22,5.64.45,8.45a132.74,132.74,0,0,0,5.78,29.85c.66,2.05,1.31,4.1,2,6.14.81,2.32,1.73,4.59,2.65,6.85,1.64,4,3.36,8,5.3,11.81,2.34,4.65,4.81,9.25,7.53,13.69,1.46,2.36,2.93,4.72,4.55,7,.88,1.22,1.75,2.45,2.67,3.64s1.78,2.38,2.71,3.51c3.34,4.08,6.74,8.09,10.3,12q2.88,3.15,5.8,6.28l2.71,2.87c1,1.09,2.12,2.12,3.2,3.16,1.77,1.71,3.63,3.33,5.48,5,2.6,2.28,5.2,4.56,7.86,6.78,3.52,2.93,7.07,5.81,10.7,8.61,2,1.52,4,3,6,4.41,2.73,1.89,5.55,3.65,8.36,5.44,4.17,2.65,8.46,5.13,12.77,7.56,2.14,1.21,4.34,2.31,6.54,3.4,2.51,1.24,5,2.45,7.57,3.63,4.58,2.12,9.28,3.93,14,5.58,1,.36,2.08.65,3.13,1,1.43.44,2.87.88,4.3,1.3,3.13.92,6.28,1.77,9.42,2.6,2.73.71,5.49,1.35,8.23,2s5.45,1.3,8.17,2c2.88.7,5.77,1.35,8.65,2,3.38.79,6.81,1.4,10.21,2.09,4.76,1,9.57,1.61,14.36,2.36,2.57.41,5.14.78,7.7,1.25,2.76.5,5.52,1,8.27,1.58q6.72,1.38,13.44,2.79l.94.2c-.56,1.81-1.23,3.57-1.95,5.32-.68,1.57-1.41,3.09-2.2,4.61-1.07,2.06-2.34,4-3.58,6-1.41,2.22-2.89,4.39-4.32,6.6-.65,1-1.39,2-2.08,2.93-1.12,1.56-2.28,3.09-3.41,4.64q-5.73,7.83-11.42,15.7c-1.45,2-2.87,4-4.34,6-2,2.67-3.94,5.3-6,7.93-4.91,6.09-9.91,12.1-15.27,17.81a154,154,0,0,1-16.9,15.39c.25-.19.52-.39.78-.6-1.72,1.33-3.43,2.63-5.17,3.91s-3.59,2.5-5.42,3.7c-2.19,1.44-4.44,2.8-6.65,4.19s-4.5,2.92-6.76,4.36c-3.55,2.25-7.18,4.35-10.77,6.51s-7.45,4.45-11.24,6.54c-3.47,1.91-6.94,3.81-10.39,5.73s-6.77,3.78-10,5.92a99.93,99.93,0,0,0-11,8.79c-1.67,1.48-3.28,3-4.91,4.56s-3.45,3.32-5.13,5c-1.31,1.32-2.62,2.61-3.87,4s-2.37,2.66-3.49,4a48.62,48.62,0,0,0-3,4.22,40.8,40.8,0,0,0-2.81,4.94,48.14,48.14,0,0,0-1.82,4.62,34.66,34.66,0,0,0-1.12,4.49c-.33,1.64-.5,3.32-.69,5a24,24,0,0,0,0,6.22c.07.45.14.9.2,1.35a14,14,0,0,0,.69,2.56,23.53,23.53,0,0,0,1.46,3.29l.72,1.15c.48.62,1,1.26,1.45,1.87s.91,1.1,1.4,1.63a33.85,33.85,0,0,0,3.42,3.14,36.14,36.14,0,0,0,5,3.44c1.5.83,3,1.66,4.57,2.39s3.25,1.41,4.88,2.07c3.75,1.52,7.56,2.86,11.36,4.27,2.29.85,4.56,1.74,6.84,2.65s4.36,1.91,6.52,2.91c2.76,1.29,5.56,2.48,8.33,3.78s5.42,2.62,8,4.16c1.23.73,2.44,1.49,3.64,2.26s2.45,1.69,3.62,2.59c3.09,2.46,6.12,5,9.09,7.59s6.19,5.38,9.24,8.11c1.45,1.29,2.88,2.58,4.26,3.93s3,3,4.55,4.57,2.75,3,4.07,4.55,2.38,2.84,3.53,4.3c3,3.91,6,7.84,8.84,11.87.65.92,1.34,1.82,2,2.72s1.16,1.65,1.74,2.48,1.08,1.6,1.62,2.41a24.49,24.49,0,0,0,1.54,2c.62.83,1.23,1.68,1.82,2.54.44.64.92,1.25,1.38,1.86a23.83,23.83,0,0,0,1.67,2.06,3.8,3.8,0,1,0,5.38-5.38c-.15-.16-.3-.32-.44-.49-.72-.95-1.41-1.9-2.09-2.88s-1.47-2-2.24-3c-1.07-1.46-2.06-3-3.08-4.48-.6-.9-1.27-1.74-1.92-2.6s-1.4-1.95-2.1-2.93c-1.56-2.2-3.19-4.35-4.82-6.5s-3.43-4.6-5.27-6.8-3.67-4.44-5.65-6.52c-2.12-2.24-4.29-4.45-6.55-6.54s-4.61-4.16-7-6.19c-2.18-1.9-4.32-3.83-6.53-5.7-2.36-2-4.7-4-7.13-5.95a84.23,84.23,0,0,0-7.16-5.15,116.86,116.86,0,0,0-15.73-8c-2.36-1-4.69-2.16-7.06-3.19-2.55-1.09-5.11-2.17-7.69-3.19-2.8-1.11-5.67-2.07-8.5-3.12s-5.79-2.22-8.65-3.41l.22.09c-1.56-.72-3.07-1.51-4.58-2.33-.76-.42-1.52-.84-2.26-1.3s-1.23-.82-1.84-1.25a32.93,32.93,0,0,1-2.53-2.2,35.4,35.4,0,0,1-2.41-2.64l-.29-.38a13.66,13.66,0,0,1-1.2-2.06c-.23-.59-.44-1.19-.62-1.81s-.25-1.11-.35-1.68a29.15,29.15,0,0,1,0-3.62c.09-1,.21-2,.34-3,.24-1.53.55-3,.92-4.53a30,30,0,0,1,1.31-3.88c.28-.62.57-1.23.89-1.83s.8-1.41,1.22-2.1c.78-1.32,1.64-2.58,2.54-3.82q2.07-2.52,4.29-4.94c.84-.9,1.71-1.76,2.59-2.62q1.76-1.77,3.53-3.52c2.07-2,4.17-4,6.33-6q1.77-1.59,3.55-3.15c1.39-1.21,2.83-2.35,4.28-3.49.82-.59,1.64-1.18,2.48-1.74s1.51-1,2.28-1.45c1.5-.94,3-1.82,4.59-2.7l4.75-2.67c2-1.12,4-2.25,6-3.35,3.56-1.92,7.09-3.91,10.56-6,1.72-1,3.42-2.05,5.12-3.08,2.11-1.27,4.23-2.49,6.33-3.77,4-2.39,7.76-5,11.68-7.45,4.27-2.68,8.48-5.4,12.48-8.46q2.52-1.91,5-3.86c1.68-1.34,3.31-2.77,4.94-4.18a145.13,145.13,0,0,0,12-11.69c3.57-3.89,7-7.93,10.34-12,3.83-4.61,7.4-9.43,10.94-14.26,3.15-4.28,6.2-8.63,9.33-12.92,3.79-5.2,7.63-10.38,11.37-15.63.77-1.09,1.46-2.25,2.2-3.38l2.11-3.21c1.28-1.94,2.44-3.95,3.59-6a47.28,47.28,0,0,0,2.36-5c.85-1.93,1.59-3.88,2.28-5.87.16-.46.31-.92.44-1.38,2.22.46,4.43.89,6.67,1.22,4.9.72,9.81,1.29,14.75,1.66,5.56.4,11.11.7,16.68.89a141.76,141.76,0,0,0,16.1-.08c2.6-.21,5.19-.41,7.78-.76l3.3-.45c1.94-.26,3.87-.68,5.78-1.07,2.5-.52,5-1.28,7.39-2,2.2-.68,4.35-1.54,6.47-2.42,4.2-1.71,8.21-3.84,12.22-6a193.49,193.49,0,0,0,22.67-14c2.77-2,5.55-3.92,8.27-6,1.55-1.16,3.07-2.35,4.58-3.54,1.89-1.49,3.77-3,5.57-4.58a125.27,125.27,0,0,0,9.09-8.91c3-3.26,5.83-6.68,8.62-10.12,1.26-1.56,2.49-3.14,3.78-4.68s2.48-3,3.71-4.47,2.6-3.31,3.85-5c1.67-2.21,3.32-4.42,5-6.65,2.58-3.51,5.18-7,7.69-10.6s5.06-7,7.43-10.57c1.13-1.73,2.25-3.46,3.25-5.26s2-3.75,2.92-5.69,1.81-4.07,2.69-6.11c1-2.33,2-4.66,3-7,1.56-3.83,3.14-7.65,4.67-11.49a92.77,92.77,0,0,0,3.9-12.5c.38-1.57.68-3.17,1-4.75.44-2,.86-4.07,1.27-6.11s.82-4,1.25-6,.78-4,1.2-6.05c.86-4.07,1.65-8.17,2.46-12.26.44-2.19.83-4.39,1.19-6.6s.59-4.2.86-6.31c.56-3.87,1.13-7.76,1.64-11.64.31-2.4.53-4.81.82-7.21s.62-4.86.92-7.29c1.19-9.48,1.72-19,2-28.53a118.86,118.86,0,0,0-.37-12.23c-.25-3.56-.49-7.13-.66-10.7-.18-3.95-.27-7.91-.31-11.87,0-2,.13-4,.26-6,.1-1.61.25-3.21.44-4.81.35-2.32.74-4.63,1.27-6.93a47.2,47.2,0,0,1,1.77-5.83c.48-1.09,1-2.14,1.59-3.19a36.34,36.34,0,0,1,2.22-3.42,35.66,35.66,0,0,1,2.9-3.24c1.4-1.38,2.8-2.75,4.23-4.1s3-2.86,4.49-4.28,2.88-2.54,4.39-3.75a74.48,74.48,0,0,1,9.1-6c2.83-1.49,5.74-2.83,8.68-4.1,3.23-1.22,6.57-2.14,9.89-3.06,1.79-.49,3.6-.84,5.42-1.21s3.44-.8,5.15-1.21,3.16-.69,4.75-1,3.16-.49,4.73-.77,3-.61,4.53-.91c1.25-.25,2.51-.45,3.77-.63,1.47-.16,2.93-.31,4.4-.44,1.66-.16,3.31-.45,4.95-.72s3.18-.54,4.76-.91c2-.48,4-1.09,6-1.66,1.72-.5,3.41-1.17,5.09-1.82s3.45-1.41,5.14-2.2,3.23-1.57,4.8-2.46,3.39-2,5-3.11c1.36-.9,2.66-1.92,3.94-2.92s2.33-1.88,3.47-2.85c2.38-2,4.68-4.16,6.86-6.4,1.13-1.15,2.18-2.4,3.26-3.61a47.94,47.94,0,0,0,3.16-4.06c2.11-3,4-6.1,5.9-9.24a43.45,43.45,0,0,0,2.18-4.44c.79-1.71,1.42-3.5,2.06-5.27s1.32-3.79,1.88-5.72c.65-2.27,1.15-4.56,1.59-6.88.37-2,.7-4,1.08-5.94s.71-4.23,1-6.35c.7-5,1-9.94,1.28-14.93.12-2.36.17-4.71.15-7.08s-.26-4.77-.5-7.14-.57-4.55-1-6.8c-.47-2.6-1.1-5.15-1.81-7.7-.37-1.35-.82-2.69-1.29-4,1-.22,2.1-.47,3.15-.7a50.73,50.73,0,0,0,5.27-1.59c2-.69,3.93-1.57,5.84-2.44,3.22-1.47,6.26-3.3,9.32-5.05,1.65-1,3.26-2,4.89-2.95,2.05-1.24,4-2.58,5.94-4a69,69,0,0,0,9.88-8.82,104.41,104.41,0,0,0,8.32-10.33,67.83,67.83,0,0,0,6-10.48c.87-1.82,1.65-3.68,2.41-5.56a31.1,31.1,0,0,0,1-3c.4-1.36.74-2.75,1-4.15.45-2.11.8-4.24,1.06-6.37.32-2.73.52-5.47.8-8.2.25-2.35.54-4.71.81-7.07s.51-4.68.81-7c.42-2.86.84-5.73,1.19-8.62.37-3.14.66-6.31.88-9.47s.36-6.38.66-9.56c.34-3.35.65-6.71,1.06-10.06.43-3,.84-6,1.35-9,.58-3.45,1.42-6.88,2.32-10.26.76-2.84,1.54-5.68,2.45-8.48.83-2.58,1.8-5.11,2.84-7.62.91-2.06,1.91-4.06,3-6a49.45,49.45,0,0,1,3.58-5.51c1.6-2,3.24-3.86,5-5.69a73,73,0,0,1,5.92-5.47l2.37-1.77c1.32-1,2.75-1.79,4.14-2.65,1.64-1,3.32-2,5-2.92l.9.38c2.11.88,4.21,1.74,6.37,2.48s4.56,1.45,6.85,2.13c2.73.8,5.5,1.46,8.27,2.16,2.31.58,4.64,1.15,6.94,1.76s4.4,1.16,6.62,1.69,4.67.88,7,1.22c2.9.42,5.83.68,8.76.91,5.88.47,11.78.58,17.68.7,3.11.07,6.21,0,9.32-.13,3.3-.13,6.59-.48,9.87-.92,2.44-.31,4.85-.72,7.26-1.18s4.56-1,6.82-1.54,4.25-1.26,6.37-1.9,4.44-1.37,6.66-2.11a92.07,92.07,0,0,0,10.35-4.11c1.72-.81,3.38-1.77,5-2.7,2-1.15,4-2.41,6-3.69a84.87,84.87,0,0,0,9-6.88,88.78,88.78,0,0,0,9.31-9.69c1.37-1.61,2.79-3.19,4.06-4.87s2.29-3.2,3.38-4.84c2.22-3.32,3.9-7,5.78-10.45.88-1.64,1.76-3.26,2.71-4.85s2-3.38,3-5.1,2.07-3.59,3-5.44c1.11-2.19,2.05-4.48,2.94-6.78a62.62,62.62,0,0,0,3.47-13.9c.35-2.47.63-4.94.87-7.42a71.18,71.18,0,0,0,.22-9.12c-.09-3-.41-5.91-.78-8.86a67.28,67.28,0,0,0-1.63-8.56c-.56-2.19-1.28-4.31-2-6.44a49.45,49.45,0,0,1-1.41-5.38c-.12-.81-.25-1.6-.37-2.41l-.27-1.74c-.47-4.43-.94-8.87-1.17-13.32-.25-4.68-.49-9.36-.62-14.05q-.22-7.86-.35-15.7c-.07-4.23-.11-8.45-.27-12.68a61.3,61.3,0,0,0-.62-6.76,47.74,47.74,0,0,0-1.09-5.55,42.57,42.57,0,0,0-3.2-8.12c-1-2-2.25-3.88-3.36-5.82a64,64,0,0,1-2.84-5.9c-1.13-2.87-2.09-5.79-2.93-8.76-1.14-4.13-2.16-8.32-3.06-12.5-1.89-8.8-3.45-17.65-5.16-26.48-.91-4.63-1.75-9.28-2.59-13.92-.74-4.05-1.53-8.09-2.27-12.13-.82-4.44-1.7-8.86-2.41-13.32-.81-5-1.65-10.07-2.43-15.1q-1-8-1.95-16.06-.54-4.66-1-9.33c-.34-3.41-.57-6.83-.8-10.25-.17-2.71-.35-5.42-.52-8.12s-.44-5.44-.67-8.14c-.53-6.33-.9-12.66-1.27-19-.13-2.3-.35-4.59-.54-6.89-.28-3.46-.55-6.91-.79-10.37-.18-2.56-.33-5.11-.48-7.67-.21-3.6-.48-7.19-.77-10.78-.45-5.56-.8-11.13-1.13-16.71-.37-6.08-1-12.14-1.63-18.2q-.95-8.53-1.75-17.09c-.22-2.28-.49-4.56-.74-6.84-.38-3.6-.73-7.18-1.05-10.78-.21-2.47-.36-5-.49-7.45q-.22-4.15-.41-8.33c-.23-5.94-.37-11.87-.49-17.82-.24-11.7-.2-23.41-.32-35.12,0-2.82-.21-5.66-.35-8.49s-.26-5.4-.4-8.11c-.28-5.67-.44-11.37-.77-17-.25-4.22-.64-8.43-1.07-12.63-.23-2.16-.52-4.31-.78-6.47-.3-2.5-.56-5-.89-7.49-.62-4.66-1.29-9.3-2.09-13.94-.4-2.34-.76-4.69-1.18-7q-.75-4.12-1.66-8.22c-.27-1.21-.54-2.42-.82-3.62l8.18-4.88c3.89-2.34,7.81-4.65,11.59-7.18,3.26-2.19,6.34-4.65,9.47-7q5.46-4.11,11.18-7.85c3.54-2.31,7-4.7,10.58-7,3.81-2.49,7.67-4.89,11.42-7.46,1.68-1.14,3.3-2.34,4.93-3.54s3.38-2.39,5.07-3.58,3.28-2.43,4.88-3.69q2.87-2.26,5.7-4.58c3.22-2.65,6.37-5.35,9.4-8.22l.09-.09.1.12a28.63,28.63,0,0,0,3.06,2.54,26.69,26.69,0,0,0,8,3.79l1.27.29c.77.13,1.54.24,2.32.34s1.82.12,2.74.15a27.69,27.69,0,0,0,4.54-.43c1.42-.2,2.84-.46,4.24-.8a39.21,39.21,0,0,0,4.88-1.6c1.54-.59,3-1.33,4.48-2.06s3.17-1.56,4.75-2.37a109.59,109.59,0,0,0,9.91-5.85,65.37,65.37,0,0,0,13.25-12,58.3,58.3,0,0,0,4.85-6.22,53.45,53.45,0,0,0,3.61-6.66c.52-1.06,1-2.17,1.48-3.25s1.07-2.49,1.59-3.74c1-2.49,2-5,2.83-7.54.38-1.18.82-2.32,1.24-3.48.47-1.36.82-2.76,1.2-4.14.44-1.65.91-3.29,1.32-5,.25-1,.42-2,.63-3,.3-1.45.62-2.89.93-4.33.51-2.33.95-4.68,1.39-7,.47-2.58,1-5.16,1.36-7.76.79-5.27,1.56-10.52,2.15-15.81.29-2.6.59-5.19.76-7.8.19-2.89.38-5.77.46-8.67.17-5.7.09-11.4.09-17.1q0-15.36,0-30.72c0-10.35-.07-20.7-.37-31.05-.14-4.93-.42-9.85-.74-14.78-.18-2.78-.37-5.57-.54-8.36s-.25-5.85-.26-8.78c-.07-11.1,0-22.21,0-33.32,0-10.68,0-21.36-.06-32-.06-8.82-.13-17.66-.77-26.45-.28-3.68-.74-7.35-1.05-11-.19-2.19-.14-4.4-.16-6.6,0-3-.06-6-.1-9.06-.08-5.27-.2-10.54-.44-15.81-.23-5-.67-10-1.05-15-.41-5.33-.27-10.7-.27-16q0-9.59,0-19.16,0-15,0-30c0-11.09-.13-22.21-.31-33.3q-.26-15-1.17-30.06c-.19-2.89-.37-5.77-.49-8.67-.1-2.44-.11-4.88-.14-7.32q-.09-7-.28-14c-.15-5.8-.43-11.6-.76-17.39l-.45-7.91c-.18-3.19-.25-6.38-.27-9.58,0-7.79,0-15.58,0-23.39q0-12.22,0-24.43,0-23.37-.12-46.74,0-9.78-.14-19.54c0-3.9-.11-7.78-.25-11.66-.12-3.29-.36-6.58-.54-9.87-.07-1.29-.14-2.59-.23-3.89q-.09-1.26-.24-2.52a4.31,4.31,0,0,0-.59-2,2.28,2.28,0,0,0-1.24-1,2.6,2.6,0,0,0-.56-.07,2.1,2.1,0,0,0-1,.28M2029.58,738.19h3.25c2.59,0,5.19,0,7.79,0a114.49,114.49,0,0,1,12.69.64c1,.16,2.07.34,3.1.55,1.36.27,2.7.66,4,1,3.15.85,6.38,1.36,9.57,2,1.52.31,3.05.55,4.59.78s3.12.51,4.68.76c2.84.45,5.7.62,8.54,1,1.59.25,3.16.54,4.72.86l2.49.52c.93.19,1.87.31,2.82.43,1.88.27,3.74.64,5.61,1.06,1,.23,2.07.48,3.13.66,1.32.22,2.63.37,4,.52,3,.33,6,.76,8.94,1.13,3.3.41,6.62.6,9.93,1,2,.29,3.94.63,5.9,1.1a58.28,58.28,0,0,1,6.06,1.9c1.91.68,3.79,1.48,5.67,2.24,1.58.65,3.18,1.27,4.76,1.92l1.86.8c-4.66-.17-9.32-.39-14-.48-5.9-.1-11.79.29-17.67.7l-12,.86c-4.33.29-8.7.35-13,.51-5.94.22-11.87.56-17.82.53-2.9,0-5.81-.26-8.71-.45-2.45-.16-4.89-.42-7.33-.7-2-.29-3.91-.61-5.87-1-2.18-.41-4.37-.81-6.55-1.24-1.81-.36-3.6-.79-5.4-1.22s-3.36-.73-5-1.21-3.42-1-5.13-1.55c-.75-.22-1.51-.39-2.26-.6l-3-.83c-1.67-.47-3.36-.89-5-1.42-1.48-.46-3-1-4.41-1.56a12.52,12.52,0,0,1-1.46-.84c-.53-.45-1-.91-1.51-1.41-.08-.13-.15-.26-.22-.39a6.32,6.32,0,0,1-.24-.85v-.39l.12-.45a15.89,15.89,0,0,1,1.23-2,25.2,25.2,0,0,1,2.83-2.92c.62-.41,1.24-.78,1.91-1.14a15,15,0,0,1,1.83-.55c.39-.1.8-.17,1.2-.24,1.13-.09,2.24-.07,3.37-.07m-12.39,6.49c0,.2,0,.4-.08.6h0c0-.2.05-.41.09-.61m-.09.67h0Zm-.1,0s0,.08,0,.11h0a.49.49,0,0,0,0-.12m0,.14v.11s0-.07,0-.11Zm.06.72.05.13h0a1.21,1.21,0,0,1-.05-.14m.05.13a2.14,2.14,0,0,0,.1.22,2,2,0,0,1-.1-.21h0m.64,1.15.21.28-.21-.28m254.37,101.17c-2-1.7-4-3.46-5.9-5.23-3.61-3.27-7-6.77-10.59-10.07-2.25-2-4.47-4.13-6.69-6.21s-4.62-4.19-6.95-6.25-4.44-4-6.58-6c-1.13-1.1-2.21-2.26-3.26-3.43q-2-2.19-4-4.33c-1.16-1.24-2.28-2.52-3.4-3.79-1.28-1.46-2.67-2.84-4-4.21q-2.3-2.31-4.65-4.54c-1.47-1.39-2.91-2.8-4.4-4.16-3.25-3-6.53-5.89-9.87-8.72-3-2.56-5.85-5.29-8.92-7.77-2.26-1.82-4.54-3.6-6.87-5.34l3.14.34q5.78.6,11.56,1.07c5.69.46,11.36,1.16,17,1.67,6.1.55,12.19,1.17,18.26,1.94,2.36.33,4.72.66,7.07,1.06,2.86.49,5.72,1,8.59,1.47q7.7,1.27,15.32,2.89c4.73,1,9.49,1.91,14.19,3,5.53,1.33,11.1,2.49,16.63,3.81,4.42,1,8.83,2.17,13.2,3.4,4.53,1.29,9.05,2.67,13.54,4.07s8.77,2.51,13.18,3.64a90.4,90.4,0,0,1,11.9,4c.83.38,1.67.76,2.48,1.18,1.24.62,2.45,1.31,3.66,2,2,1.18,4,2.47,5.93,3.79,1.72,1.19,3.38,2.49,5.05,3.74s3.1,2.32,4.65,3.48c1.35,1,2.7,2.08,4.05,3.15,2,1.6,4,3.28,5.9,5a87.29,87.29,0,0,1,9.64,9.78,44.06,44.06,0,0,1,2.9,4.24q1.45,2.48,2.7,5a88.58,88.58,0,0,1,3,8.53,68.33,68.33,0,0,1,1.84,8.61c.07.6.14,1.2.19,1.81a31.28,31.28,0,0,1,.09,3.36c0,1.67-.16,3.33-.36,5-.17,1-.35,2-.53,3-.25,1.35-.66,2.67-1,4-.63,2.32-1.19,4.65-1.86,7-.3,1-.58,2-.85,3-.34,1.25-.78,2.48-1.16,3.71-.72,2.25-1.54,4.46-2.4,6.65q-1.62,3.68-3.36,7.31c-.59,1.21-1.16,2.42-1.78,3.62s-1.23,2.25-1.87,3.36c-1.26,2.23-2.52,4.45-3.91,6.6-1.62,2.49-3.38,4.88-5.18,7.23l.6-.77c-2.15,2.77-4.42,5.43-6.75,8-1,1.15-2.12,2.24-3.22,3.33l-2.29,2.31c-.76-.87-1.51-1.75-2.23-2.65-2.43-3.36-4.77-6.79-7.32-10.07-1.42-1.83-2.89-3.63-4.39-5.39-1.84-2.15-3.66-4.33-5.52-6.47-1.51-1.73-3-3.49-4.5-5.24-1.75-2.05-3.46-4.12-5.3-6.09-1.65-1.76-3.38-3.45-5.11-5.12l-4.61-4.48c-1.26-1.21-2.49-2.45-3.74-3.65-1.47-1.41-2.95-2.8-4.39-4.25a123.69,123.69,0,0,0-9.36-8.37c-1.68-1.37-3.45-2.61-5.22-3.84-2-1.4-4-2.8-6.08-4.15-4.09-2.69-8.05-5.56-12-8.49-2.37-1.86-4.73-3.72-7.11-5.56l.15.11c-2.34-1.84-4.68-3.69-7-5.62m-87.77-71.89.23.19-.23-.19m-270.51,17.33c1.77-.19,3.52-.36,5.28-.52,2.21-.21,4.43-.35,6.66-.49,3.92-.25,7.86-.2,11.8-.19l12,.07c8.54,0,17.06.19,25.59.48q11.41.36,22.76,1.7c5.23.81,10.43,1.78,15.61,2.84,4.72,1,9.42,2.07,14.06,3.35,4.07,1.11,8.15,2.25,12.15,3.59,3.51,1.18,7,2.34,10.44,3.69,4.4,1.94,8.7,4.07,13.07,6.07,2.61,1.2,5.17,2.53,7.72,3.88s5.11,2.85,7.67,4.26,5.1,2.87,7.59,4.39,4.67,2.94,7,4.4,4.82,3,7.26,4.39c2.75,1.61,5.48,3.28,8.22,4.91s5.33,3,8,4.55c2.9,1.62,5.78,3.27,8.72,4.81,5.61,2.93,11.42,5.43,17.12,8.18,2.71,1.31,5.37,2.77,8,4.23q3.64,2,7.19,4.19c4.57,2.81,9,5.83,13.28,9.06,2,1.66,4.08,3.34,6.11,5,2.28,1.88,4.39,3.92,6.54,5.94l3.48,3.27c1.17,1.11,2.31,2.27,3.45,3.44a86.41,86.41,0,0,1,6.11,7.25c2,2.66,4,5.36,6.06,8,1.06,1.37,2.11,2.74,3.2,4.09,1.45,1.78,2.94,3.51,4.44,5.25,1.34,1.56,2.72,3.08,4.12,4.6s2.74,2.82,4.08,4.27,2.59,2.84,3.88,4.27,2.36,2.84,3.51,4.27c1.21,1.6,2.39,3.21,3.52,4.86,1.54,2.24,3,4.54,4.5,6.81,2.82,4.28,5.44,8.68,8,13.07,1.09,1.85,2.26,3.66,3.42,5.47,1.34,2.11,2.63,4.24,3.9,6.38s2.28,4,3.38,6c1.27,2.36,2.38,4.81,3.45,7.27.76,1.89,1.48,3.79,2.2,5.68.86,2.22,1.61,4.46,2.37,6.7.81,2.42,1.48,4.88,2.15,7.33.47,1.75,1,3.48,1.41,5.23l-1.64,1c-1.86,1.19-3.66,2.48-5.45,3.78q-5.49,3.94-10.8,8.13l.09-.08c-3,2.33-6,4.68-8.87,7.15-1.54,1.3-3.06,2.59-4.55,3.93s-2.87,2.65-4.31,4a117.32,117.32,0,0,0-8.71,8.85q-4,4.59-7.89,9.29c-2.19,2.64-4.27,5.35-6.42,8-1.23,1.53-2.45,3.07-3.69,4.6s-2.38,3.14-3.53,4.73c-2.15,3-4.35,5.87-6.51,8.82l-1.47,2c-.09-1-.18-2.07-.28-3.11-.33-3.15-.81-6.28-1.26-9.41-.48-3.81-.75-7.63-1.21-11.44-.25-2.2-.58-4.4-1-6.58-.44-2.43-1-4.83-1.58-7.22-1-3.93-1.93-7.85-2.79-11.81-.44-2-1-4-1.59-6-.65-2.19-1.3-4.38-2-6.55-.62-1.83-1.25-3.65-1.94-5.46s-1.43-3.57-2.16-5.35-1.46-3.4-2.24-5.07-1.63-3.57-2.49-5.33c-1.55-3.19-3-6.46-4.61-9.6s-3.55-6.07-5.49-9c-.94-1.41-1.81-2.87-2.7-4.32-.57-.9-1.17-1.78-1.77-2.66-.28-1.22-.57-2.44-.88-3.66-1-4.18-2.08-8.36-3.33-12.47q-2.24-7.38-4.92-14.62-2.46-6.64-5.25-13.17a106.7,106.7,0,0,0-5.67-11.75c-1.78-3.05-3.66-6-5.72-8.9-1-1.45-2.1-2.88-3.21-4.26s-2.43-3.07-3.71-4.55c-1.09-1.26-2.2-2.49-3.32-3.73s-2.14-2.42-3.26-3.59-2-2.17-3.14-3.18c-.5-.46-1-.9-1.55-1.33s-1.18-.9-1.78-1.34a13.41,13.41,0,0,0-2.13-1.18,24.12,24.12,0,0,0-4.44-1.56,33.34,33.34,0,0,0-3.72-.68,84.31,84.31,0,0,0-8.7-.71c-2.76-.11-5.53-.12-8.29-.15l-3.72,0h-1.46c-.4,0-.81,0-1.22,0s-1.11.15-1.66.24l-.92.39a3.59,3.59,0,0,0-1.32.86,9,9,0,0,0-1.46,1.85c-.13.3-.25.61-.38.9a5.12,5.12,0,0,0-.48,1.79c0,.34-.08.68-.13,1a8.62,8.62,0,0,0,.05,2.27,18,18,0,0,0,.67,3.41,24.4,24.4,0,0,0,1.34,3.27,23.21,23.21,0,0,0,2.35,4c.84,1.19,1.72,2.33,2.63,3.46a46.33,46.33,0,0,0,3.19,3.38c1.22,1.24,2.54,2.4,3.82,3.56,1.46,1.33,2.89,2.67,4.34,4,2.31,2.12,4.56,4.3,6.89,6.41,3,2.69,6,5.34,9,8,1.3,1.16,2.61,2.33,3.9,3.5s2.46,2.38,3.66,3.59c2.78,2.81,5.66,5.52,8.5,8.27,2.5,2.44,5.1,4.75,7.57,7.21,1.25,1.24,2.52,2.44,3.75,3.67l4.24,4.24c1.85,1.86,3.7,3.74,5.51,5.63s3.23,3.66,4.74,5.57q1.28,1.74,2.49,3.52l.72,3.11c.6,2.64,1.16,5.29,1.78,7.92.72,3,1.39,6.05,2.09,9.07,1.33,5.75,2.28,11.59,3.54,17.36s2.56,11.81,4.11,17.66c1.37,5.22,2.71,10.46,4,15.7.58,2.35,1.1,4.7,1.58,7.07s.84,4.72,1.2,7.09c.35,3,.7,5.91.92,8.89.13,1.72.13,3.46.22,5.19s.18,3.34.29,5c.2,3,.57,6.09,1,9.13.19,1.49.39,3,.54,4.49s.22,3,.31,4.55a41.14,41.14,0,0,0,1,7.41c.19.51.39,1,.61,1.51a8.33,8.33,0,0,0,1,1.4,4.24,4.24,0,0,0,3,1.2,4.15,4.15,0,0,0,3-1.37c.41-.43.81-.87,1.2-1.31,1.26-1.4,2.34-2.92,3.46-4.41.42-.53.85-1.06,1.28-1.58.16,3,.24,6,.3,9,.14,7.45.12,14.9.13,22.35q0,9.2,0,18.39,0,4.8,0,9.6v4.33a30.56,30.56,0,0,1-.26,3.71c-.35,2.45-.7,4.9-.94,7.36-.26,2.72-.42,5.46-.51,8.2-.2,5.52-.21,11-.23,16.56q0,4.3,0,8.59c0,3.69-.58,7.35-.9,11-.18,2-.31,4-.43,6-.14,2.25-.39,4.48-.63,6.71-.26,2.49-.47,5-.76,7.46-.38,3.16-.79,6.32-1.17,9.48l0-.24c-.57,4.14-1.16,8.29-1.7,12.44-.95,6.74-2,13.47-2.86,20.23-.65,5.28-1,10.57-1.13,15.89-.09,3-.4,5.91-.68,8.86-.32,3.38-.57,6.77-.77,10.17-.1,1.56-.16,3.13-.24,4.7-.1,1.88-.33,3.77-.54,5.66-.34,3.14-.64,6.28-1,9.43-.41,2.92-.79,5.85-1.16,8.79-.68,4.6-1.4,9.2-2.25,13.78-.94,5.06-1.84,10.12-2.91,15.16-.47,2.2-.95,4.41-1.48,6.61-.65,2.61-1.37,5.21-2.1,7.8-1.54,5.5-3.08,11-4.71,16.47-.78,2.62-1.6,5.22-2.43,7.84-.87,2.78-1.74,5.56-2.7,8.31q-2.6,7.44-5.27,14.85c-.81,2.25-1.66,4.49-2.51,6.72-1,2.61-1.91,5.25-2.88,7.87-1.69,4.58-3.54,9.11-5.44,13.61l.06-.15c-.95,2.25-1.88,4.5-2.83,6.75-1.38,3.15-2.78,6.3-4.12,9.47-1.44,3.39-3.08,6.69-4.58,10.06-1.88,4.19-3.79,8.36-5.89,12.44-2.54,5-5.18,9.9-7.76,14.86-2.43,4.65-5,9.23-7.54,13.8-2.23,4-4.69,7.85-7.09,11.73-1.11,1.81-2.18,3.63-3.26,5.44s-2.34,3.7-3.54,5.53c-2,3.1-4.23,6.1-6.49,9.05l0,0a182.82,182.82,0,0,1-19.31,19.95c-3.6,3.2-7.17,6.46-10.82,9.62-1.82,1.57-3.71,3.08-5.6,4.6s-4,3.24-6,4.82c-3.25,2.48-6.6,4.83-10,7.17l-6,4.21c-2.52,1.74-5,3.47-7.55,5.24-2.2,1.56-4.38,3.12-6.64,4.58-2.08,1.36-4.18,2.7-6.27,4-1.84,1.18-3.68,2.33-5.52,3.5-2.74,1.75-5.54,3.39-8.33,5.07-4.34,2.62-8.8,5-13.2,7.58-5,2.87-10.06,5.59-15.12,8.34-4.44,2.42-8.92,4.78-13.4,7.12-2.37,1.24-4.73,2.47-7.11,3.69-2.67,1.37-5.39,2.64-8.1,3.91-2.26,1-4.5,2.17-6.74,3.25s-4.57,2.18-6.86,3.26-4.72,2.24-7.09,3.32c-3.14,1.44-6.22,3-9.35,4.46-2.45,1.15-4.92,2.28-7.38,3.44s-4.63,2.25-6.93,3.41c-5.13,2.61-10.39,5-15.53,7.55-2.08,1-4.13,2.14-6.19,3.21-2.57,1.31-5.15,2.58-7.73,3.86-5.55,2.76-10.9,5.87-16.34,8.81l-6.93,3.75c-2.31,1.24-4.66,2.38-7,3.53q-7.53,3.67-15,7.53c-9.5,4.88-18.66,10.39-28.16,15.28-4.57,2.36-9.13,4.76-13.76,7-5.77,2.82-11.62,5.45-17.45,8.15-4.78,2.21-9.51,4.5-14.23,6.81-5,2.45-10,5-15,7.51s-10,5-15,7.71c-5.2,2.8-10.49,5.44-15.74,8.17-4.93,2.57-9.9,5.09-14.8,7.7q-8.25,4.41-16.27,9.18c-4.62,2.74-9.15,5.63-13.75,8.4-4.26,2.57-8.4,5.28-12.53,8-2.36,1.58-4.66,3.27-7,4.9-2,1.43-4.11,2.83-6.16,4.24s-3.81,2.71-5.69,4.07c-2.09,1.5-4.17,3-6.22,4.52-3.92,2.91-7.83,5.83-11.75,8.72-4.26,3.16-8.45,6.42-12.47,9.87l-11.26,9.67c-4.31,3.7-8.59,7.46-12.92,11.14s-8.48,7.35-12.61,11.15c-4.3,4-8.46,8-12.67,12.11-7.33,7.1-14.17,14.68-21.35,22-3,3-6,6.11-8.93,9.22-3.57,3.74-7,7.66-10.22,11.71-1.6,2-3.11,4.08-4.64,6.15s-3.15,4.28-4.69,6.43c-1.4,2-2.71,4-4,6s-2.78,4.23-4.14,6.36c-1.09,1.73-2.2,3.44-3.25,5.2s-2.11,3.64-3.11,5.47-2,3.78-3,5.67c-1.16,2.22-2.23,4.48-3.3,6.74-1.82,3.87-3.57,7.78-5.41,11.66-.92,1.95-1.86,3.89-2.77,5.84-1.06,2.26-2,4.56-3,6.84q-1.28,2.87-2.46,5.78c-.79,1.94-1.47,3.92-2.18,5.88s-1.38,4.21-2,6.31c-.35,1.11-.63,2.25-.93,3.38-.4,1.55-.81,3.09-1.2,4.65,0,.21-.1.42-.16.64l-3-3q-6.39-6.45-12.77-12.93c-7.74-7.87-15.38-15.84-23-23.83q-3-3.09-6-6.14c-1.77-1.83-3.5-3.68-5.23-5.55s-3.47-3.82-5.2-5.73c-2-2.18-4-4.27-6.09-6.37-3.5-3.61-7-7.17-10.5-10.82-3.74-4-7.4-8-11.1-11.94-3.14-3.38-6.46-6.61-9.68-9.92-3.79-3.9-7.67-7.71-11.46-11.6-1.5-1.53-2.94-3.12-4.37-4.72-.94-1-1.8-2.15-2.69-3.23s-2-2.33-2.92-3.49c-1.44-1.71-2.89-3.39-4.34-5.09-1.67-2-3.29-4-4.89-6-3.79-5-7.41-10.16-10.91-15.38-1.58-2.34-3.08-4.71-4.52-7.14-1.66-2.83-3.25-5.69-4.86-8.55-3-5.39-6-10.85-8.78-16.37-1.28-2.53-2.45-5.12-3.63-7.71-1.47-3.17-2.83-6.4-4.2-9.63q-1.75-4.29-3.45-8.6c-1.3-3.35-2.47-6.74-3.6-10.14s-2.12-6.79-3-10.24a108.91,108.91,0,0,1-2.18-11.36c-.48-3.92-.93-7.85-1.1-11.81q-.15-3.53-.27-7.06c-.09-2.65-.07-5.31,0-8s.22-5.14.35-7.71c.13-2.27.27-4.53.47-6.79s.38-4.42.6-6.63.5-4.35.77-6.52c.69-4.48,1.42-9,2.26-13.42a118.2,118.2,0,0,1,3.78-13.79c.55-1.74,1.21-3.47,1.83-5.19.69-1.9,1.38-3.81,2.09-5.7,1.17-3.13,2.28-6.29,3.51-9.39.91-2,1.85-4,2.86-6,.52-1,1-2,1.62-3s1.26-2,1.9-3c3.06-4.8,6.36-9.43,9.74-14,1.56-2,3.15-3.89,4.81-5.78s3.34-3.63,5-5.41c4.24-4.4,8.76-8.53,13.31-12.61,4.23-3.79,8.54-7.49,12.87-11.17,4.56-3.87,9.29-7.55,14-11.3l6.5-5.24c2.07-1.67,4.18-3.31,6.23-5q8-6.57,15.93-13.13c4.39-3.63,8.84-7.18,13.27-10.75q7.17-5.77,14.25-11.67,6.6-5.49,13.06-11.13c4.57-4,9.13-8,13.6-12.13,2.11-2,4.23-3.9,6.31-5.9s4.13-4,6.19-6l6-5.93c2.2-2.18,4.34-4.44,6.52-6.65q5.68-5.78,11.24-11.68,2.75-2.92,5.47-5.86c2.28-2.45,4.46-5,6.67-7.52,1.76-2,3.44-4.07,5.13-6.14,1.86-2.27,3.7-4.58,5.54-6.89,1.61-2,3.24-4,4.83-6.06l3-3.82c1.14-1.45,2.19-3,3.28-4.47,3.44-4.73,6.79-9.52,10.11-14.34q2.46-3.57,4.9-7.15c.89-1.29,1.71-2.64,2.57-4s1.8-2.79,2.69-4.2q4.59-7.35,9-14.8c2.78-4.67,5.4-9.44,8-14.23s5-9.56,7.56-14.33q2.12-4,4.19-8c1.62-3.09,3.11-6.26,4.62-9.4,2.33-4.85,4.72-9.68,7.07-14.52,1.27-2.61,2.55-5.22,3.77-7.86.69-1.49,1.38-3,2.08-4.48.93-2,1.76-4.08,2.63-6.12,2.13-4.94,4.07-10,6.14-14.93q1.88-4.48,3.72-9c1.32-3.22,2.57-6.47,3.83-9.71.55-1.4,1-2.83,1.55-4.25.36-1,.74-2,1.09-3.07q1.35-4,2.71-8,2.91-8.46,5.42-17.08c2.91-10,5.2-20.12,7.37-30.28.55-2.58,1.16-5.14,1.66-7.73s.94-4.93,1.35-7.41q1.41-8.52,2.65-17.07c.23-1.57.42-3.14.62-4.71.76-5.56,1.53-11.13,2.24-16.7s1.33-11.19,2-16.79c1.36-12.37,1.71-24.81,2.74-37.21.22-2.73.47-5.47.72-8.21.28-3.17.48-6.35.69-9.53.41-6.06,1-12.1,1.6-18.15.27-2.87.47-5.74.73-8.61s.6-5.75.93-8.62c.66-5.65,1.19-11.31,1.86-17q1-7.53,2-15.07c.6-3.93,1.28-7.83,2-11.73.66-3.67,1.28-7.34,2-11,.75-3.89,1.5-7.76,2.22-11.65s1.47-8,2.24-12,1.59-8,2.47-12c.31-1.43.71-2.86,1.12-4.28.6-2.1,1.24-4.2,1.88-6.3,2.28-7.55,5-15,7.9-22.26,1.78-4,3.64-7.9,5.65-11.76q2.57-4.92,5.27-9.76c4.11-7.32,8.33-14.57,12.36-21.93,1.84-3.36,3.74-6.68,5.63-10,2-3.59,4.23-7.09,6.44-10.58s4.54-6.92,6.94-10.29c2.68-3.76,5.48-7.44,8.27-11.11l3.29-4.14c1-1.26,2.06-2.48,3.09-3.71,2.4-2.87,5-5.52,7.7-8.15s5.29-5.21,8.09-7.65c1.58-1.37,3.17-2.69,4.8-4,1.45-1.16,2.92-2.31,4.38-3.45,3.59-2.76,7.2-5.5,10.9-8.11,4.16-2.94,8.29-5.91,12.52-8.75,1.72-1.15,3.52-2.21,5.29-3.29l6.22-3.76q6.19-3.75,12.52-7.32,5.6-3.15,11.3-6.09c4.74-2.46,9.52-4.82,14.26-7.26,4.35-2.22,8.75-4.34,13.16-6.45,4.78-2.28,9.65-4.38,14.51-6.48l3.52-1.41c1.11-.44,2.24-.8,3.35-1.21,2.63-1,5.28-1.84,8-2.67q8.55-2.65,17.21-5c2.9-.77,5.85-1.36,8.78-2,2.59-.55,5.18-1.12,7.78-1.61,3.07-.59,6.15-1.17,9.24-1.68,2.93-.48,5.87-.93,8.82-1.37l-1,.14c4.12-.55,8.23-1.08,12.35-1.52m-178.25,75.45-.3.24.3-.24m-.57.45-.2.15.2-.15m436.31,6.19.3.22-.3-.22m-93.66,15-.18.44a3.38,3.38,0,0,1,.18-.44m8.95,1.41c3.81.06,7.61.21,11.4.63.85.13,1.68.27,2.52.45a24.23,24.23,0,0,1,3.49,1.05l.84.42a16.55,16.55,0,0,1,1.43.92,68.09,68.09,0,0,1,7.24,7.37c1.29,1.44,2.6,2.86,3.87,4.32s2.35,2.86,3.49,4.29,2.21,2.92,3.27,4.43c1.35,1.91,2.57,3.92,3.78,5.93a105.55,105.55,0,0,1,6.33,12.68c1,2.46,2,4.9,3,7.37,1,2.68,2,5.35,3,8s1.79,5.31,2.65,8c.36,1.08.7,2.17,1,3.27l-2.92-3c-2.62-2.68-5.32-5.27-8-7.91-2.46-2.47-5.07-4.78-7.57-7.22-2.83-2.75-5.72-5.46-8.5-8.27-1.21-1.22-2.41-2.42-3.65-3.58s-2.61-2.35-3.92-3.52c-3-2.65-6-5.32-9-8-3.15-2.84-6.19-5.8-9.33-8.65a93.47,93.47,0,0,1-9.48-9.4c-.55-.75-1.1-1.52-1.61-2.31a29.62,29.62,0,0,1-1.86-3.41c-.11-.3-.21-.6-.32-.89a13.83,13.83,0,0,1-.47-1.87,10.1,10.1,0,0,1,0-1.23c3.1,0,6.22,0,9.32.09m-9.36-.09-.06.45c0-.15,0-.3.05-.45Zm0,.7c0,.1,0,.2,0,.3,0-.1,0-.2,0-.3m.09.72a2.54,2.54,0,0,1,0,.29,2.54,2.54,0,0,0,0-.29m29.24,2.35a4.19,4.19,0,0,1,.33.26l-.33-.26m307.47,38.84-.37.29.37-.29m-38.89,11.68.66.28-.66-.28m.7.3.07,0-.07,0m-197.71,152.23c-.11-1.83-.28-3.64-.51-5.46-.48-4-1-7.91-1.26-11.89s-.27-8.14-.69-12.18c-.19-1.88-.41-3.76-.64-5.63-.26-2.22-.63-4.4-1-6.6-.33-1.92-.68-3.83-1.08-5.72-.47-2.15-1-4.27-1.53-6.4-.55-2.28-1.17-4.55-1.75-6.82q-1-3.88-2-7.74c-1.23-4.64-2.21-9.35-3.25-14-.56-2.52-1.11-5-1.63-7.57-.59-2.9-1.12-5.82-1.71-8.73,0-.2-.08-.41-.13-.62.59,1.25,1.16,2.5,1.76,3.73,1.59,3.24,3.11,6.52,4.59,9.82.64,1.57,1.3,3.14,1.94,4.73.73,1.78,1.32,3.62,2,5.43s1.23,3.72,1.78,5.59,1.15,3.86,1.67,5.81.94,4.11,1.42,6.16.94,3.85,1.39,5.79,1,4,1.42,5.94.81,4.25,1.14,6.39c.4,3.21.72,6.41,1,9.64.14,1.64.38,3.29.62,4.92s.45,3.23.67,4.84c.34,2.7.6,5.4.82,8.12.18,2.13.54,4.24.89,6.36q-1.62,2-3.21,4.11c-.79,1-1.57,1.91-2.34,2.87l-.27.34c0-.39-.06-.8-.08-1.2m82.94-77.5q2.52-1.86,5.15-3.55c.82,3.68,1.54,7.38,2.21,11.08.5,2.82.93,5.66,1.42,8.49.44,2.57.79,5.16,1.15,7.74.39,2.93.73,5.87,1.07,8.82.29,2.47.62,4.94.87,7.41q.92,8.81,1.28,17.65.31,7.77.69,15.53c.12,2.46.26,4.93.35,7.39l.18,4.76c.06,1.83,0,3.66.06,5.49.05,5.55.05,11.09.1,16.63,0,6.36.16,12.72.28,19.07.11,4.94.25,9.88.51,14.81.14,2.78.28,5.57.47,8.35.24,3.47.53,6.93.84,10.41.24,2.74.58,5.47.88,8.21.28,2.52.52,5,.76,7.56q.42,4.49.92,9c.35,3.19.74,6.38,1,9.59s.56,6.16.81,9.25c.18,2.22.28,4.44.42,6.66.39,6.46.9,12.91,1.39,19.36.22,2.9.36,5.81.54,8.71s.4,6,.61,8.93.48,5.79.71,8.69.38,5.62.55,8.43c.36,5.87.8,11.73,1.28,17.59.51,6.26.83,12.52,1.34,18.78.62,7.86,1.63,15.67,2.54,23.5.41,3.56.9,7.13,1.45,10.67s1.15,7,1.72,10.54c1.16,7.3,2.56,14.57,4,21.83.6,3.13,1.15,6.28,1.72,9.42.7,3.88,1.44,7.75,2.19,11.62,1.34,6.89,2.62,13.78,4,20.66.69,3.45,1.49,6.87,2.31,10.29.77,3.23,1.58,6.49,2.59,9.66a77.41,77.41,0,0,0,5,12.07c.81,1.56,1.71,3.06,2.61,4.55a41.13,41.13,0,0,1,2.43,4.71,40.24,40.24,0,0,1,1.36,4,21,21,0,0,1,.49,2c.21,1,.36,2,.51,2.93l.24,2.25c.06,1,.13,2,.2,3,.08,1.48.12,3,.14,4.44.06,4,.11,7.94.18,11.92q.2,12.17.81,24.32c.18,3.38.39,6.78.75,10.15a105.34,105.34,0,0,0,1.79,12.64,46.5,46.5,0,0,0,1.36,4.74c.43,1.2.84,2.4,1.2,3.63a76.32,76.32,0,0,1,2,9.07c.18,1.45.33,2.89.48,4.34.22,2.16.26,4.34.27,6.51,0,1.74,0,3.46-.17,5.2-.15,2.08-.38,4.15-.63,6.22-.21,1.41-.44,2.82-.67,4.23-.28,1.6-.69,3.17-1.08,4.74a58.78,58.78,0,0,1-3,8.43l.38-.91c-.71,1.59-1.45,3.14-2.29,4.67s-1.69,3-2.55,4.52-1.67,2.79-2.5,4.19-1.53,2.68-2.28,4c-1.46,2.71-2.82,5.47-4.32,8.17a70.44,70.44,0,0,1-4.87,7.4c-2.44,3-5,5.87-7.58,8.69a74.88,74.88,0,0,1-7.62,7.07q-2,1.52-4,3c-1.63,1.15-3.37,2.17-5.07,3.19a84.08,84.08,0,0,1-9.4,4.93c-4.44,1.78-9,3.2-13.59,4.57-2.52.75-5,1.5-7.59,2.14-3.1.76-6.24,1.32-9.39,1.84l-4.45.55c-1.95.22-3.89.31-5.83.42-4.16.23-8.33.16-12.49.07-7.28-.16-14.54-.51-21.77-1.35-1.42-.21-2.83-.44-4.25-.68-1.86-.33-3.7-.8-5.52-1.28s-3.75-1-5.61-1.48-3.91-1-5.86-1.46c-1.59-.4-3.17-.78-4.76-1.2-1.93-.52-3.85-1.11-5.77-1.7-1.31-.4-2.6-.81-3.88-1.25l.49-.26c2.11-1.1,4.28-2,6.45-3,3-1.21,6-2.36,9.06-3.51,1.81-.69,3.61-1.37,5.41-2.09,1.61-.63,3.19-1.3,4.79-2,3-1.2,6-2.32,9.13-3.24,1.66-.49,3.35-.85,5-1.29,1.92-.5,3.86-1,5.77-1.49a88.6,88.6,0,0,0,9.18-3q2.25-.9,4.45-1.92a42.41,42.41,0,0,0,4.64-2.4,37.43,37.43,0,0,0,6.8-5.49,28.76,28.76,0,0,0,2.86-3.56c.92-1.29,1.81-2.6,2.66-4a23.65,23.65,0,0,0,1.79-3.77,21.11,21.11,0,0,0,1.14-3.62,35.83,35.83,0,0,0,.78-6,19.71,19.71,0,0,0-.34-4.12,18,18,0,0,0-.65-3c-.14-.47-.3-.94-.46-1.42a20.24,20.24,0,0,0-.93-2.26c-.31-.66-.61-1.3-1-1.93a27,27,0,0,0-2.47-3.78c-.45-.59-.91-1.16-1.4-1.71s-1-1.1-1.54-1.64a45.15,45.15,0,0,0-4.14-3.68c-1.29-1.06-2.64-2.07-4-3s-2.84-1.82-4.27-2.73-2.85-1.71-4.28-2.55c-1.7-1-3.38-2-5-3.08q-2.24-1.4-4.38-2.92c-1.39-1-2.76-2-4.18-3a44.49,44.49,0,0,0-4.61-2.75c-2.07-1.08-4.22-2-6.37-2.87-3.89-1.6-7.92-2.81-11.92-4.08-2.08-.66-4.14-1.32-6.25-1.84-2.62-.65-5.26-1.23-7.9-1.83a123.91,123.91,0,0,0-14.1-2.26,52.92,52.92,0,0,0-6.54-.41c-1,0-1.92.08-2.88.15a30.15,30.15,0,0,0-6,1.21,19.88,19.88,0,0,0-6.29,3.38,43.28,43.28,0,0,0-3.69,3c-1.13,1-2.23,2-3.27,3.11-1.26,1.31-2.43,2.72-3.61,4.11-1,1.24-2.09,2.46-3,3.76a34.13,34.13,0,0,0-2.49,4c-.83,1.56-1.52,3.19-2.23,4.81a48.88,48.88,0,0,0-2.26,6.24c-.55,2-1,4-1.49,5.92s-1,4.16-1.33,6.25a125.78,125.78,0,0,0-1.62,13.53c-.07,1-.07,2-.09,3a32.57,32.57,0,0,0,.29,3.82,24.23,24.23,0,0,0,.74,3.68c.24.85.53,1.66.82,2.48a35.87,35.87,0,0,0,2.19,4.8,56.92,56.92,0,0,0,3.31,5.37,52.37,52.37,0,0,0,6.89,8,69.37,69.37,0,0,0,9.71,7.52c1.63,1.08,3.31,2.08,5,3.11s3,1.93,4.53,2.86c2.08,1.26,4.14,2.55,6.22,3.8-2.22,1.33-4.4,2.74-6.5,4.28a70.82,70.82,0,0,0-12.94,12.6,61.47,61.47,0,0,0-5.08,7.41,64.88,64.88,0,0,0-3.83,8,128.92,128.92,0,0,0-6.33,20.44c-.45,1.91-.84,3.82-1.21,5.75s-.62,3.91-.9,5.87-.53,3.77-.78,5.65-.44,4-.63,6-.41,4-.57,6-.26,4-.38,6c-.23,4-.63,7.91-1.11,11.84a.09.09,0,0,0,0,0c-.26,1.9-.54,3.79-.82,5.68-.37,2.55-.63,5.12-.9,7.68-.3,2.74-.67,5.48-1,8.22-.26,2.58-.46,5.15-.75,7.73-.35,2.32-.75,4.62-1.32,6.9-.26,1-.56,2.07-.85,3.1s-.76,2.17-1.19,3.23a87.19,87.19,0,0,1-3.9,7.87c-.67,1.17-1.35,2.31-2.09,3.44-.85,1.3-1.77,2.55-2.7,3.8-2,2.55-4.08,5-6.28,7.42a62.58,62.58,0,0,1-7.18,6.53c-1.8,1.33-3.62,2.61-5.52,3.79-2.15,1.34-4.32,2.66-6.52,3.92-1.78,1-3.55,2-5.36,3s-3.64,1.82-5.51,2.62c-1.13.42-2.28.83-3.42,1.22s-2.37.69-3.55,1-2.54.56-3.81.82l-.16,0-.39-.86a80.39,80.39,0,0,0-6.69-11.58,100.82,100.82,0,0,0-6.56-8.58,41.85,41.85,0,0,0-3.24-3.42,51.55,51.55,0,0,0-4.2-3.47c-2.3-1.76-4.63-3.46-7-5a30.4,30.4,0,0,0-3.52-2.08c-1.58-.78-3.21-1.51-4.86-2.14a42.6,42.6,0,0,0-9-2.31,48.35,48.35,0,0,0-10-.8,37.68,37.68,0,0,0-5.42.67l-1,.31c-.64.25-1.26.51-1.89.78a10.7,10.7,0,0,0-2.52,1.64,12.92,12.92,0,0,0-2,2.2c-.18.28-.36.55-.55.82a10.61,10.61,0,0,0-.86,1.76,16.8,16.8,0,0,0-.86,2.47,24.46,24.46,0,0,0-.57,4.07c0,.44,0,.88,0,1.31.07.79.17,1.57.28,2.35a23.35,23.35,0,0,0,.85,3.39,36.64,36.64,0,0,0,1.77,4.13,22.43,22.43,0,0,0,2.59,3.81,34.63,34.63,0,0,0,3.92,4.2l.71.58c.47.4,1,.8,1.47,1.18.81.57,1.62,1.14,2.46,1.67a56.05,56.05,0,0,0,5.57,3.1c1.94,1,3.92,1.83,5.93,2.67a67.91,67.91,0,0,0,8,2.76,101,101,0,0,0,15.36,2.71,76.39,76.39,0,0,0,8,.4c2.75,0,5.54-.05,8.29-.28l1-.1c.72,2,1.38,4,2,6a83.24,83.24,0,0,1,2,9.49c.28,2.23.5,4.44.64,6.68a81.28,81.28,0,0,1,0,8.26c-.21,4.91-.58,9.79-1.15,14.67-.33,2.26-.69,4.52-1.12,6.77-.5,2.63-.91,5.28-1.48,7.9a86.27,86.27,0,0,1-4.27,13.34c-.54,1.17-1.08,2.34-1.69,3.48-.78,1.45-1.67,2.84-2.53,4.25-1.48,2.44-3.09,4.82-4.81,7.11a80.77,80.77,0,0,1-7.28,7.74c-2.37,2.2-4.8,4.3-7.33,6.31-1,.71-2,1.43-3,2.11-1.18.77-2.38,1.51-3.59,2.22a72.47,72.47,0,0,1-7.53,3.77c-1.57.64-3.14,1.24-4.73,1.81s-3.48,1.08-5.22,1.57-3.24.83-4.87,1.17-3,.5-4.49.73c-2.94.36-5.9.58-8.83,1.06-3.29.54-6.55,1.33-9.86,1.82s-6.51,1.28-9.73,2c-1.78.44-3.59.78-5.38,1.17-2.1.46-4.15,1.1-6.2,1.71-1.68.5-3.36,1-5,1.61s-3.09,1.28-4.61,2-2.8,1.31-4.18,2a53.27,53.27,0,0,0-5.2,2.83,101.08,101.08,0,0,0-8.63,6.24c-3,2.4-5.71,5.21-8.53,7.85-1.22,1.15-2.41,2.32-3.6,3.5a33,33,0,0,0-3,3.36,38.35,38.35,0,0,0-4.93,8.07c-.63,1.47-1.17,3-1.67,4.48s-.86,3.2-1.22,4.8c-.43,1.85-.66,3.77-1,5.66-.38,2.52-.56,5.06-.72,7.6-.32,4.8-.12,9.61,0,14.41s.49,9.38.82,14.07c.16,2.37.31,4.74.34,7.12,0,2.74-.07,5.46-.17,8.2q-.35,9.27-1.23,18.5c-.37,3.9-.89,7.78-1.39,11.67-.48,3.72-.85,7.45-1.33,11.18-.52,3.57-1,7.14-1.51,10.73s-1.12,7.05-1.82,10.55c-.65,3.26-1.26,6.54-2,9.8s-1.29,6.44-2,9.66c-.77,3.64-1.48,7.29-2.26,10.94-.63,2.9-1.27,5.79-2.14,8.63-.76,2.5-1.55,5-2.51,7.4q-3.23,8.05-6.59,16.05c-.82,1.92-1.63,3.84-2.48,5.74-1,2.28-2.18,4.51-3.4,6.7a133.4,133.4,0,0,1-7.83,11.81c-2.6,3.65-5.18,7.3-7.84,10.91-1.6,2.17-3.16,4.35-4.76,6.52s-3.06,4.05-4.59,6.08c-2.38,2.93-4.84,5.81-7.21,8.75-1.27,1.57-2.52,3.15-3.79,4.72s-2.64,3.11-4,4.67a121.18,121.18,0,0,1-8.86,9.13c-3,2.83-6.24,5.37-9.49,7.92-1.11.85-2.22,1.68-3.34,2.52-1.58,1.19-3.25,2.3-4.86,3.46s-3.14,2.24-4.71,3.34c-2,1.43-4.15,2.78-6.26,4.11q-6,3.78-12.26,7.17c-1.88,1-3.76,2-5.66,3-2.07,1-4.17,2-6.28,3a93.29,93.29,0,0,1-9.46,3.23c-2.18.61-4.38,1.08-6.6,1.53s-4.21.66-6.31,1l1-.14c-1.58.16-3.17.34-4.76.47l-3.09.24c-1.37.12-2.75.12-4.13.18h-2.93c-1.44,0-2.86,0-4.3-.08-2.05-.05-4.1-.13-6.15-.19q-6.26-.22-12.5-.69-3.37-.26-6.74-.57c-1.76-.16-3.52-.38-5.27-.58l-3.49-.52c-1.16-.17-2.32-.41-3.48-.62-.8-.14-1.6-.31-2.4-.47.12-.83.22-1.66.31-2.48a53,53,0,0,0,.29-6.67,72.48,72.48,0,0,0-.79-8.7,125.37,125.37,0,0,0-3.61-15.74,77.21,77.21,0,0,0-5.89-14.5c-1.83-3.54-3.9-7-6-10.36-2.24-3.59-4.44-7.22-6.76-10.76s-4.57-7-7-10.36c-1.29-1.82-2.58-3.64-3.83-5.48-1.49-2.21-3-4.39-4.69-6.48-3.11-3.94-6.38-7.75-9.69-11.53-1.65-1.89-3.37-3.73-5-5.58-1.86-2.08-3.74-4.13-5.58-6.23-3.22-3.65-6.44-7.3-9.7-10.92-1.6-1.78-3.19-3.58-4.78-5.37-2.28-2.57-4.62-5.07-6.91-7.61-.92-1-1.8-2.09-2.71-3.13s-2-2.22-3-3.33c-1.45-1.59-2.94-3.16-4.43-4.72-1.67-1.76-3.44-3.43-5.13-5.16-2-2-3.92-4-5.88-6-1.8-1.83-3.59-3.67-5.36-5.54s-3.19-3.52-4.83-5.24c-3.81-4-7.62-8-11.57-11.87-1-.93-2-1.81-3-2.7l-2.89-2.61c-1.67-1.53-3.32-3.08-5-4.57s-3.56-3.18-5.34-4.77c-2.34-2.09-4.77-4.1-7.16-6.13-2-1.7-4-3.38-5.95-5.07s-4.14-3.43-6.23-5.12c-4.75-3.84-9.35-7.86-13.94-11.9-2-1.78-4-3.52-6-5.26s-3.8-3.4-5.67-5.12c-2-1.88-4-3.81-6-5.7-2.15-2-4.34-4-6.51-6-1.83-1.71-3.61-3.5-5.41-5.25l-5.72-5.62c-1.86-1.83-3.7-3.66-5.53-5.51-2.06-2.07-4-4.22-6-6.34-.78-.84-1.57-1.66-2.36-2.48.31-1.27.63-2.53.93-3.8.65-2.7,1.35-5.41,2.11-8.1a144.1,144.1,0,0,1,5.2-14.93c1.19-2.73,2.41-5.46,3.63-8.19,1.47-3.28,3.08-6.5,4.59-9.75q2-4.36,4-8.74c1.5-3.25,3.13-6.42,4.8-9.58,1.47-2.8,3-5.58,4.63-8.3,1.77-3,3.67-5.86,5.55-8.76s3.87-5.91,5.86-8.82c2.45-3.56,5.09-7,7.68-10.47,3.13-3.91,6.39-7.74,9.83-11.39s7-7.27,10.53-10.87c3.69-3.74,7.28-7.59,10.94-11.37,2-2.13,4.08-4.27,6.15-6.38s4.3-4.2,6.45-6.29c4.33-4.17,8.64-8.34,13.11-12.36,4.68-4.2,9.47-8.26,14.25-12.33,2.18-1.85,4.28-3.77,6.45-5.62s4.6-3.92,6.89-5.89,4.39-3.8,6.59-5.69,4.66-3.8,7-5.66q11.47-8.62,23.1-17c4.11-3,8.33-5.8,12.49-8.72s8.55-5.88,12.93-8.68c2.07-1.33,4.21-2.57,6.3-3.84,2.42-1.45,4.8-3,7.19-4.42s4.61-2.8,6.94-4.18c1.3-.77,2.62-1.5,3.93-2.25,1.51-.86,3-1.74,4.53-2.57,5-2.69,10-5.25,15-7.86,5.25-2.75,10.5-5.49,15.79-8.19,2.66-1.37,5.29-2.78,7.93-4.2,2.36-1.27,4.76-2.49,7.16-3.68,5.19-2.59,10.37-5.22,15.55-7.83,4.41-2.23,8.89-4.32,13.34-6.44,5.64-2.69,11.32-5.29,17-7.93,4.85-2.25,9.62-4.65,14.37-7.1q7.89-4.08,15.67-8.34,6.56-3.63,13.16-7.23c5-2.73,10.13-5.28,15.25-7.8,2.15-1.06,4.28-2.13,6.44-3.18s4.59-2.36,6.86-3.58c5.32-2.86,10.6-5.8,15.89-8.7,4.72-2.58,9.62-4.81,14.39-7.3,2.44-1.29,4.89-2.53,7.36-3.78,2.73-1.36,5.52-2.61,8.27-3.93,4.64-2.25,9.21-4.64,13.9-6.79,5.68-2.6,11.26-5.37,16.94-8,4.56-2.09,9.07-4.3,13.59-6.47,5-2.41,10.06-4.77,15-7.31q14.32-7.39,28.42-15.24c9.58-5.34,19.13-10.74,28.38-16.64,4-2.57,8.15-5.07,12.08-7.8,2.19-1.52,4.38-3.08,6.57-4.6q3.6-2.51,7.22-5c3.78-2.61,7.56-5.24,11.28-7.93,3.55-2.57,7-5.35,10.37-8.12,2.1-1.71,4.22-3.41,6.27-5.18,2.23-1.93,4.4-3.91,6.59-5.87,2.35-2.11,4.71-4.17,7-6.33q2.92-2.73,5.72-5.59c2-2,3.91-4.06,5.79-6.16,1.05-1.16,2.09-2.33,3.1-3.53s2-2.53,3-3.83c2.06-2.66,4-5.44,5.86-8.23,2-3,3.86-6.07,5.69-9.15s3.84-6.19,5.74-9.3c2.23-3.66,4.24-7.47,6.3-11.22,2.24-4,4.38-8.15,6.51-12.24,2-3.93,4.14-7.84,6.14-11.8,1.67-3.31,3.17-6.7,4.68-10.09,1.27-2.81,2.6-5.58,3.87-8.4s2.46-5.74,3.73-8.59,2.59-6,3.84-9c1.71-4.06,3.4-8.15,5-12.26,1-2.55,1.94-5.14,2.87-7.72s2-5.29,2.94-7.93q2.92-7.93,5.69-15.91c2-5.72,3.79-11.5,5.52-17.3s3.39-11.72,5-17.59c1.45-5.14,2.71-10.32,3.72-15.56,1.05-5.46,2.13-10.92,3.09-16.4.91-5.24,1.63-10.5,2.31-15.77q.49-3.6.95-7.2c.18-1.43.3-2.87.45-4.31s.31-2.89.48-4.33c.33-3.09.49-6.17.65-9.26s.39-6.07.66-9.11c.25-2.69.54-5.37.72-8.07.08-1.2.08-2.42.12-3.62s.09-2.19.14-3.29c.23-5,.81-10,1.48-15,.88-6.16,1.83-12.3,2.63-18.47.34-2.45.7-4.88,1-7.33.36-2.67.68-5.35,1-8s.63-5.14.88-7.71c.27-2.72.59-5.45.83-8.18.19-2.09.29-4.18.44-6.27q.21-2.76.51-5.53c.18-1.66.38-3.34.47-5s.08-3.65.08-5.48c0-5.56,0-11.15.09-16.72a157.13,157.13,0,0,1,1-16.79,60.62,60.62,0,0,0,.83-7.83c0-3.6,0-7.2,0-10.8q0-11.19,0-22.38c0-8.24,0-16.48-.21-24.72-.1-3.72-.26-7.45-.64-11.16-.11-1.09-.24-2.17-.38-3.26l.42-.54c1.62-2.11,3.2-4.26,4.79-6.39,3.28-4.4,6.55-8.79,9.77-13.23,1.38-1.77,2.79-3.51,4.2-5.26s3-3.75,4.46-5.61,3-3.67,4.52-5.5c1.94-2.34,4-4.62,6-6.9,3.44-3.93,7.33-7.4,11.14-11,4.1-3.84,8.47-7.35,12.87-10.83l2.91-2.25c2.66-2,5.36-4,8.05-6m-68.69,153.8c0,.1,0,.19,0,.29,0-.1,0-.2,0-.29m-44,389.71c1,0,2.09,0,3.13.07s2.29.21,3.41.34c.91.09,1.81.21,2.71.33,3.15.46,6.26,1,9.37,1.66,1.51.31,3,.69,4.51,1,1.85.43,3.71.83,5.54,1.36,1.37.39,2.73.83,4.09,1.27s2.73.83,4.08,1.28c2.8.92,5.57,1.89,8.31,3,1.38.6,2.76,1.21,4.09,1.89a43.74,43.74,0,0,1,4.6,2.76c1.18.79,2.33,1.64,3.49,2.47,1.42,1,2.87,2,4.32,2.94,2.58,1.71,5.26,3.26,7.93,4.81s5.16,3.15,7.63,4.88c1.47,1.16,2.91,2.35,4.3,3.61a34,34,0,0,1,3.57,3.82,35,35,0,0,1,2.58,4.53c.19.46.36.91.52,1.39a25.3,25.3,0,0,1,.84,3.54,19.81,19.81,0,0,1-.16,5.21c0-.33.09-.68.14-1-.19,1.11-.4,2.2-.7,3.29-.21.75-.48,1.48-.76,2.21a32.29,32.29,0,0,1-1.79,3.2c-.67,1.08-1.42,2.09-2.16,3.12a35.78,35.78,0,0,1-2.48,2.75,26.64,26.64,0,0,1-2.49,2.13c-1.19.81-2.41,1.55-3.68,2.25s-2.72,1.32-4.09,1.94a74.47,74.47,0,0,1-7.25,2.6l-4,1.14c-1.65.45-3.31.82-5,1.27l-4.16,1.06c-1.69.44-3.35,1-5,1.56s-3.08,1.12-4.6,1.74c-1.32.53-2.62,1.1-3.93,1.66-2.22.86-4.44,1.72-6.68,2.57-2.42.92-4.83,1.9-7.27,2.81s-4.85,2-7.27,3.1c-1.19.51-2.33,1.13-3.48,1.73s-2.37,1.22-3.55,1.85l-1.48.78c-1.28-.66-2.55-1.35-3.8-2.08-2.16-1.27-4.26-2.63-6.41-3.93s-4.09-2.58-6.15-3.86c-1.12-.7-2.25-1.38-3.35-2.11-1.32-.87-2.6-1.78-3.89-2.7-1.69-1.35-3.33-2.72-4.89-4.22a49,49,0,0,1-4.31-4.8c-1-1.32-1.89-2.66-2.76-4a44.17,44.17,0,0,1-2.4-4.5c-.22-.55-.44-1.09-.63-1.64a30.38,30.38,0,0,1-1.08-4.06c0-.39-.09-.77-.13-1.16,0-.64-.05-1.28-.08-1.93,0-1.33.07-2.66.15-4,.15-2.44.46-4.87.78-7.29.28-1.79.56-3.57.91-5.35s.75-3.42,1.17-5.12.79-3.29,1.24-4.91a45,45,0,0,1,1.45-4.29c.71-1.67,1.43-3.34,2.28-4.94a38,38,0,0,1,2.68-4.29c1.71-2.07,3.43-4.14,5.28-6.07a61.87,61.87,0,0,1,5.69-5.16l1-.71a16.09,16.09,0,0,1,2.55-1.47,16.66,16.66,0,0,1,2.21-.69,20.36,20.36,0,0,1,3.4-.62l-1,.13c1-.07,1.91-.15,2.88-.15m-7.71,1.42-.55.23.55-.23m84.27,28.17.42.33-.42-.33m12.36,16.53c0,.21.06.42.08.64,0-.21-.06-.43-.08-.64m-17.2,25.6-.53.22.53-.22M1991.5,1820.72c1,0,2,.14,3,.23.75.07,1.5.16,2.25.26a52.21,52.21,0,0,1,5.13,1,47.69,47.69,0,0,1,4.83,1.56c1.08.47,2.15,1,3.23,1.51a32.22,32.22,0,0,1,3.49,2.17c2.26,1.49,4.42,3.1,6.57,4.74.67.54,1.34,1.09,2,1.67s1.48,1.42,2.2,2.14,1.42,1.62,2.11,2.44,1.29,1.59,1.93,2.41a98.13,98.13,0,0,1,5.7,8.29q1.35,2.23,2.59,4.52c.13.24.25.48.37.72-1.67.1-3.37.09-5,.11s-3.43,0-5.15-.07c-2.24-.1-4.47-.36-6.7-.61a87,87,0,0,1-10.73-2.14,82.94,82.94,0,0,1-9.34-3.33c-1.9-.89-3.76-1.83-5.62-2.8a45.38,45.38,0,0,1-4.89-3.11,29.63,29.63,0,0,1-2.73-2.53c-.72-.76-1.4-1.55-2-2.37s-1-1.53-1.46-2.33a19.37,19.37,0,0,1-1-2.32c.09.22.19.45.28.68l-.45-1.34a14,14,0,0,1-.54-2.21c0-.28-.06-.55-.1-.83a17.56,17.56,0,0,1,0-2,21.39,21.39,0,0,1,.71-2.78l0-.08a12.88,12.88,0,0,1,.79-1.35,7.79,7.79,0,0,1,.76-.76,8.43,8.43,0,0,1,.92-.53l.39-.15a13,13,0,0,1,1.86-.49c1.56-.16,3.11-.26,4.69-.27m-8.23,1.7-.15.11.15-.11m44.57,17.91c.12.16.25.32.37.49-.12-.17-.25-.33-.37-.49m.43.56.17.21-.17-.21m-8.13,12.94.76.11-.76-.11m-418.42,4.56-.21.16.21-.16m-139.64,167.14c0,.11-.09.22-.14.33,0-.11.1-.22.14-.33m-15.23,57c.63-3.17,1.36-6.32,2.07-9.48.91-4.07,1.94-8.11,2.93-12.16,1.48,1.57,2.94,3.14,4.43,4.7,2,2.11,4.12,4.14,6.21,6.19l5.72,5.61c1.79,1.76,3.57,3.54,5.41,5.26s3.57,3.27,5.34,4.93c2.39,2.26,4.75,4.55,7.17,6.79,3.22,3,6.5,5.84,9.82,8.68s6.64,5.91,10,8.79c3.64,3.11,7.42,6,11.11,9.12,1.6,1.34,3.16,2.71,4.75,4.06,1.8,1.52,3.59,3.06,5.37,4.6,1.62,1.39,3.25,2.75,4.84,4.16s3,2.65,4.43,4c3,2.67,6,5.42,8.94,8.11,3.17,2.84,6.1,5.93,9.06,9,3.13,3.27,6.25,6.55,9.29,9.9,2.88,3.17,6,6.14,8.93,9.22,2.65,2.73,5.4,5.35,8,8.11,3,3.11,5.88,6.28,8.68,9.55,1.59,1.84,3.24,3.62,4.89,5.41,1.51,1.64,3,3.31,4.45,5,2.57,2.88,5.17,5.73,7.72,8.63,2.83,3.2,5.61,6.45,8.5,9.6,5.7,6.24,11.37,12.53,16.63,19.15,1.57,2.09,3.07,4.21,4.54,6.38s2.94,4.2,4.42,6.28,2.73,4.07,4.09,6.11,2.56,3.86,3.8,5.82,2.4,3.89,3.62,5.83,2.36,3.8,3.52,5.72,2.41,4.14,3.51,6.26,2.14,4.42,3.11,6.67l.87,2.29c.26.82.53,1.64.79,2.46.67,2.08,1.21,4.24,1.76,6.36,1,3.72,1.7,7.47,2.29,11.27.13,1.18.25,2.36.32,3.55s.11,2.47.14,3.71a31.85,31.85,0,0,1-.15,3.38c0,.87-.14,1.73-.24,2.6l-.06.4c-3.6-.74-7.2-1.5-10.8-2.25-4.63-1-9.27-1.93-13.94-2.67-2.58-.42-5.16-.82-7.74-1.22s-5.36-.77-8-1.25q-8.57-1.55-17.06-3.51c-5.56-1.28-11.13-2.62-16.67-4s-10.9-2.76-16.3-4.36c-2.5-.73-5-1.49-7.46-2.34-2.7-.94-5.36-2-8-3.07-3.5-1.54-6.94-3.21-10.38-4.89-4-1.95-7.89-4.1-11.73-6.36s-7.4-4.48-11-6.81c-2.09-1.33-4.13-2.7-6.16-4.11-1.73-1.19-3.38-2.48-5-3.76l.35.26c-3.87-3-7.66-6.16-11.44-9.32-2.22-1.84-4.36-3.79-6.53-5.7-1-.93-2.08-1.88-3.13-2.82s-2-1.91-3-2.88c-1.89-1.84-3.68-3.8-5.48-5.73s-3.48-3.75-5.21-5.64c-3.36-3.66-6.55-7.47-9.7-11.32-1-1.29-2-2.58-3-3.92l-1.92-2.68-1.73-2.62c-1.77-2.69-3.41-5.47-5-8.28s-3.21-5.85-4.7-8.83c-1.39-2.78-2.65-5.59-3.88-8.44q-1.53-3.67-3-7.4c-.52-1.33-.94-2.7-1.39-4-.58-1.73-1.12-3.47-1.65-5.21a130.44,130.44,0,0,1-4.19-19.32q-.45-3.91-.78-7.83c-.25-3.12-.3-6.27-.42-9.4-.24-6.08,0-12.17.27-18.24.23-5.4.67-10.8,1.25-16.17.66-5.94,1.48-11.86,2.19-17.8.38-2.69.77-5.37,1.3-8m51.66,436.34.12.85c-.05-.28-.09-.56-.12-.85m1.17,4.65.2.47c-.07-.15-.13-.31-.2-.47m14.13,11.59.67.28-.67-.28m109.59,86.15.16.21-.16-.21"/><path class="cls-2" d="M2395.32,2386.68c-3.45.23-6.86.72-10.28,1.24a53.71,53.71,0,0,0-5.47,1.16c-1.08.27-2.12.56-3.19.87a40.12,40.12,0,0,0-5.38,2.13,57,57,0,0,0-9.18,5.15c-3,2.14-6,4.35-8.83,6.75-1.42,1.2-2.83,2.4-4.2,3.65s-3,2.78-4.46,4.21c-2.83,2.75-5.59,5.59-8.24,8.52-1.12,1.25-2.26,2.49-3.33,3.78l-3.73,4.51c-1.3,1.59-2.48,3.29-3.7,4.94s-2.35,3.4-3.49,5.12c-1.85,2.79-3.52,5.7-5.18,8.6-.82,1.43-1.65,2.84-2.41,4.29-1,1.82-2,3.62-2.88,5.48l-3.08,6.35c-.78,1.59-1.43,3.25-2.14,4.87-.63,1.46-1.32,2.92-1.89,4.41l-2.76,7.21c-.57,1.48-1.06,3-1.58,4.47-.57,1.65-1.16,3.29-1.66,5s-1.09,3.57-1.56,5.39q-.93,3.51-1.8,7c-.82,3.2-1.45,6.47-2,9.71-.69,4.06-1.31,8.12-1.91,12.19-1.08,7.4-1.84,14.83-2.55,22.26-.17,1.73-.31,3.45-.45,5.19s-.22,3.71-.31,5.57c-3,1.88-6,3.74-9,5.56-6.17,3.72-12.38,7.41-18.64,11s-12.52,7-18.76,10.56-12.55,7.29-18.76,11.05-12.18,7.39-18.31,11c-12.68,7.47-25.46,14.73-38.17,22.14-6.19,3.62-12.26,7.46-18.42,11.13-2.92,1.73-5.77,3.54-8.69,5.27-3.23,1.92-6.4,3.93-9.57,5.91s-6.17,3.86-9.3,5.72c-3.36,2-6.77,4-10.15,6-6.14,3.59-12.39,7-18.57,10.53-3,1.7-6,3.4-8.93,5.14-3.49,2-6.93,4.16-10.41,6.22-6.59,3.91-13,8.1-19.42,12.28-1.39.92-2.73,2-4.09,2.92-1.72,1.23-3.33,2.64-5,3.95-3.11,2.48-6.12,5.06-9.15,7.62a172,172,0,0,0-15.89,14.89c-2.35,2.55-4.67,5.14-7,7.73s-4.69,5.2-6.89,7.93c-2.51,3.12-5,6.26-7.42,9.46-2.21,2.93-4.41,5.87-6.57,8.83-4.25,5.81-8.47,11.62-12.54,17.54-4.26,6.18-8.38,12.44-12.45,18.74-1.81,2.81-3.56,5.66-5.29,8.52-2,3.21-3.67,6.57-5.32,9.94-3.12,6.31-5.85,12.79-8.76,19.19-1.45,3.2-3,6.37-4.46,9.56-1.68,3.63-3.3,7.27-5,10.9q-4.39,9.51-8.52,19.16c-1.38,3.24-2.68,6.51-4,9.78-1.56,3.87-3.16,7.73-4.72,11.61-2.71,6.65-5.16,13.39-7.55,20.16-2.28,6.41-4.23,12.93-6.18,19.46-2.32,7.77-4.55,15.56-6.77,23.36-2.07,7.31-4.19,14.62-6.12,22s-3.8,15-5.63,22.52c-2,8.17-3.64,16.4-5.35,24.63-1.57,7.55-2.88,15.14-4.13,22.76-.53,3.26-1.07,6.52-1.45,9.79-.27,2.27-.55,4.54-.81,6.81-.24,1.95-.38,3.92-.56,5.87-.32,3.81-.54,7.62-.77,11.45-.08,1.4-.11,2.79-.16,4.2,0,2.1-.2,4.21-.17,6.3,0,3.78,0,7.56.15,11.33.08,2.44.17,4.86.25,7.3.07,2.23.24,4.47.36,6.7.18,3.19.32,6.39.62,9.57q.63,6.47,1.31,12.91c1.61,15.12,4,30.13,6.16,45.18.19,1.38.39,2.76.58,4.14,1.85,15.48,3.69,31,5.77,46.41.48,3.55,1.08,7.08,1.72,10.6.72,3.88,1.47,7.77,2.38,11.62.38,1.6.74,3.22,1.19,4.82.63,2.21,1.25,4.43,1.89,6.66.47,1.65,1,3.29,1.56,4.94.59,1.85,1.16,3.7,1.77,5.55q3.86,11.57,8,23.06c2.65,7.4,5.23,14.81,7.85,22.21,1.39,4,2.77,7.92,4.17,11.87l-2,.43c-3.13.69-6.26,1.33-9.38,2-7.2,1.56-14.4,3.09-21.63,4.46-3.42.65-6.85,1.24-10.26,1.91-3.89.76-7.75,1.64-11.63,2.48-7.15,1.58-14.3,3.23-21.45,4.9-6.38,1.48-12.76,3-19.16,4.4-7.35,1.63-14.66,3.46-22,5.26-3.46.86-6.94,1.67-10.4,2.53s-6.84,1.71-10.25,2.56c-3,.75-6.07,1.53-9.11,2.28-3.2.78-6.38,1.54-9.54,2.48-2.72.82-5.41,1.67-8.09,2.64-2.94,1.06-5.9,2.13-8.87,3.1-5.61,1.84-11.3,3.49-17,5-6.39,1.7-12.75,3.48-19.18,5-7.32,1.72-14.69,3.3-22.12,4.49l-2.86.43c-3.23.38-6.45.73-9.69,1s-6.55.45-9.83.54c-5.93.16-11.86,0-17.8-.07-12.23-.19-24.47-.6-36.63-2l.76.1q-2.91-.39-5.82-.86c-2.83-.43-5.65-1.05-8.45-1.62s-5.49-1.13-8.23-1.8-5.23-1.41-7.84-2.13c-5-1.34-9.8-3.05-14.66-4.68s-9.68-3.41-14.41-5.38c-3.56-1.52-7.13-3-10.64-4.63s-7.26-3.43-10.84-5.23c-2-1-3.93-2.12-5.87-3.19-1.56-.86-3.07-1.8-4.57-2.75-3.51-2.21-6.89-4.59-10.2-7.06q-2.84-2.31-5.62-4.67c-2.17-1.84-4.16-3.85-6.16-5.86-2.18-2.17-4.17-4.53-6.19-6.84-1.75-2-3.41-4.1-5.08-6.17a216.67,216.67,0,0,1-14.48-20.95c-.5-.86-1-1.72-1.53-2.59-.62-1.05-1.13-2.16-1.7-3.23-1-2-2-4.09-2.88-6.15q-2.61-5.88-5.09-11.8l.27.64c-.66-1.62-1.31-3.24-1.86-4.9s-1.14-3.57-1.71-5.36c-.49-1.54-1-3.06-1.5-4.6a32.66,32.66,0,0,1-1.06-4.88,36.58,36.58,0,0,1-.29-4.32c0-1.73.1-3.46.17-5.2.17-3.78.52-7.55,1-11.3.34-2.41.75-4.82,1.07-7.24.15-1.19.23-2.39.33-3.6s.25-2.36.4-3.54c.37-2.62.9-5.25,1-7.89s.27-5.12.55-7.66c.24-1.51.53-3,.87-4.49a49.37,49.37,0,0,1,1.59-5.15c1.16-3.38,2.29-6.77,3.3-10.2.5-1.69.91-3.4,1.37-5.11s1-3.28,1.57-4.92c.27-.83.51-1.68.78-2.52s.62-1.68.94-2.51c.67-1.71,1.39-3.43,2.09-5.13l-.37.91c1-2.26,2.07-4.5,3.14-6.74s2.28-4.61,3.54-6.87,2.53-4.36,3.78-6.53c1.4-2.45,2.74-4.93,4.18-7.35s3-5,4.51-7.52,3-4.82,4.39-7.31c2.94-5.3,5.67-10.72,8.39-16.15s5.24-10.83,7.52-16.39c1.13-2.75,2.2-5.54,3.2-8.34s1.9-5.87,2.65-8.86a65.22,65.22,0,0,0,1.48-8.43c.33-2.89.72-5.78.92-8.68s.16-5.62.29-8.43q.15-3.59.58-7.14a49.18,49.18,0,0,1,1.57-7c.66-2.1,1.33-4.19,2.14-6.22.37-.8.75-1.59,1.14-2.38a30.19,30.19,0,0,1,2.13-3.43c1.32-1.95,2.76-3.8,4.17-5.66s3-3.81,4.51-5.74q-.29.39-.6.78c1.49-1.87,3-3.68,4.58-5.43,2.65.92,5.28,1.91,7.9,2.92a46.21,46.21,0,0,0,4.75,1.55,57.5,57.5,0,0,0,6.22,1.24c2.85.43,5.73.66,8.59.86s5.91.49,8.86.84c6.57.74,13.17,1.13,19.77,1.34,14,.44,27.94.4,41.91.41,3.38,0,6.78,0,10.16,0,3.72,0,7.42.16,11.13.36,6.58.37,13.15.75,19.74,1,7.35.28,14.74.59,22.09.22a82.15,82.15,0,0,0,9.62-1.23,59.54,59.54,0,0,0,10.23-2.87c1.65-.61,3.26-1.31,4.86-2,1.26-.51,2.53-1,3.75-1.57a31.57,31.57,0,0,0,3.09-1.66,8.78,8.78,0,0,0,3.62-3.89,7.1,7.1,0,0,0,.67-2.64,10.38,10.38,0,0,0-.42-3.36,10.09,10.09,0,0,0-1.25-2.5,22.55,22.55,0,0,0-1.91-2.44,22.88,22.88,0,0,0-3.72-3.23c-1.5-1.1-3-2.17-4.56-3.22s-3.35-2.1-5-3.13a70.24,70.24,0,0,0-10.3-5c-2-.81-4-1.58-6.1-2.2q-2.45-.73-4.91-1.44c-3.38-1-6.84-1.53-10.3-2.18-3.89-.75-7.79-1.33-11.72-1.85l1,.13c-6.84-1-13.65-2-20.54-2.46-7.18-.51-14.36-.82-21.55-1-3.9-.11-7.79-.19-11.69-.17-3.35,0-6.7.19-10,.46a141.18,141.18,0,0,0-22.45,3.91c-3.13.78-6.23,1.65-9.31,2.58-2.87.88-5.68,1.92-8.48,3a142.38,142.38,0,0,0-16,7.25,109,109,0,0,0-16,10.21c-1.25,1-2.49,2-3.7,3l-.63-.22c-2.66-.91-5.28-1.92-7.89-2.95a90.77,90.77,0,0,1-10.06-5.39,99.12,99.12,0,0,1-8.6-5.76c-1.14-1-2.22-2-3.29-3.07a27.43,27.43,0,0,1-2.17-2.52c-1-1.41-2-2.89-3-4.29a25.77,25.77,0,0,1-2.62-4.35,21,21,0,0,1-.59-2.2c-.17-1.38-.33-2.77-.44-4.15-.07-.85-.11-1.69-.1-2.54a31.74,31.74,0,0,1,.28-3.23c.64-4.31,1.7-8.53,2.6-12.78a67.91,67.91,0,0,1,1.92-6.91c.9-2.74,1.74-5.49,2.79-8.16.48-1.08,1-2.15,1.5-3.21s1.22-2.23,1.85-3.32a64.4,64.4,0,0,1,4-5.95l-.59.76c.67-.86,1.34-1.74,2-2.61,1.54-1.93,3.12-3.82,4.63-5.77,1.89-2.42,3.66-4.94,5.46-7.43a66.67,66.67,0,0,1,9.75-10.12c2.18-1.54,4.47-2.93,6.75-4.34,2.49-1.55,5-3,7.6-4.42,3.48-1.93,6.9-4,10.51-5.66.74-.33,1.45-.68,2.18-1.05l-.22.08a3.74,3.74,0,0,0,2-1.78,3.88,3.88,0,0,0,.39-2.94,4.13,4.13,0,0,0-1-1.83,11.62,11.62,0,0,0-2.13-1.42c-.69-.38-1.36-.79-2-1.24s-1.39-1.18-2.07-1.78c-1-.88-2-1.68-3-2.55s-2.17-1.92-3.29-2.87-2.56-2.07-3.87-3.07c-1.87-1.49-3.67-3.05-5.49-4.61-2.42-2.09-4.85-4.19-7.22-6.34-2.18-2-4.4-3.89-6.61-5.82A53.68,53.68,0,0,1,1521,2845c-.8-1.12-1.56-2.25-2.28-3.42s-1.44-2.58-2.1-3.91c-.25-.65-.5-1.3-.73-2-.28-.88-.52-1.76-.76-2.65a40.89,40.89,0,0,1-.9-4.77c-.29-2.77-.59-5.54-.73-8.32s0-5.69,0-8.53a139.17,139.17,0,0,1,.81-14.86,44.22,44.22,0,0,1,1.35-6c.6-1.91,1.35-3.75,2.09-5.61.94-2.38,1.72-4.81,2.66-7.18a13.18,13.18,0,0,1,.85-1.41c.56-.69,1.1-1.39,1.63-2.11a29.86,29.86,0,0,1,2.27-2.37c1-.66,2.15-1.12,3.14-1.83,1.6-1.14,3.28-2.1,4.91-3.17,1.08-.71,2.1-1.47,3.13-2.23s2.38-1.69,3.56-2.54l3.66-2.62c1.48-1,3.05-2,4.59-2.9,5.7-3.45,11.37-7,16.87-10.72,2.7-1.84,5.34-3.72,8-5.63,3.06-2.21,6-4.54,9-6.88a180.25,180.25,0,0,0,16.11-14.53c4.69-4.7,9.51-9.32,13.84-14.35,2.15-2.5,4.21-5.06,6.21-7.67,1.78-2.33,3.57-4.66,5.22-7.09,3.35-4.94,6.2-10.19,9.28-15.3,1.53-2.54,3-5.12,4.54-7.68,1.82-3.09,3.73-6.12,5.68-9.12,4-6.12,8-12.19,11.8-18.39,1.88-3.06,3.67-6.17,5.44-9.3s3.46-6.54,5.06-9.88c2-4.23,4-8.48,6-12.73q1.56,3.6,3.28,7.11c1.75,3.58,3.66,7,5.71,10.45s4.13,6.4,6.3,9.51c2,2.95,4.15,5.84,6.39,8.65a81.16,81.16,0,0,0,5.56,6.15,77.11,77.11,0,0,0,6.66,6c4.91,4,10.06,7.59,15.26,11.16a38.31,38.31,0,0,0,4.77,2.67c1.57.79,3.16,1.53,4.8,2.21a40.44,40.44,0,0,0,10.92,2.85,24.06,24.06,0,0,0,4.07.05,19.63,19.63,0,0,0,4.29-.91,28.1,28.1,0,0,0,4.3-1.93,25.09,25.09,0,0,0,2.47-1.56,69.84,69.84,0,0,0,9.26-7.44c1.31-1.25,2.57-2.55,3.75-3.92s2.42-3,3.57-4.54a54,54,0,0,0,4.87-8.35,80.87,80.87,0,0,0,6.22-18.94c.69-3.16,1.19-6.36,1.75-9.54.69-3.9,1.15-7.85,1.58-11.78.39-3.73.62-7.46.85-11.2.11-1.67.18-3.36.27-5s.2-3.44.2-5.16c0-7.44-.23-14.9-.73-22.33-.25-3.58-.55-7.16-.83-10.74s-.52-7.33-.88-11a91.36,91.36,0,0,0-1.5-10,52.31,52.31,0,0,0-3.27-9.91,83.21,83.21,0,0,0-5-9.83,50.57,50.57,0,0,0-2.76-4.25,36.92,36.92,0,0,0-4.08-4.75,21.87,21.87,0,0,0-3-2.28l-1.24-.66-2.22-.95a31.37,31.37,0,0,0-5.32-1.33c-1.84-.29-3.69-.49-5.55-.67-2.09-.19-4.21-.35-6.31-.33a25.53,25.53,0,0,0-3.5.26l-1.65.23a22.12,22.12,0,0,0-3.34,1c-1.78.62-3.5,1.43-5.19,2.21a62.9,62.9,0,0,0-10.24,6,46.19,46.19,0,0,0-7.6,7.19c-1,1.13-1.84,2.34-2.73,3.53-1.08,1.43-2.16,2.88-3.15,4.38-1.65,2.51-3.19,5.06-4.73,7.63-1.8,3.05-3.68,6-5.43,9.11-.91,1.58-1.84,3.14-2.69,4.75s-1.7,3.34-2.52,5c-1.59,3.24-3.17,6.49-4.65,9.78-1.19,2.58-2.41,5.16-3.6,7.75-1.34,2.9-2.82,5.73-4.22,8.61-2.67,5.49-5.52,10.9-8.37,16.3-.58,1.09-1.16,2.19-1.73,3.29a42.76,42.76,0,0,0-4.26-6.36c-1.3-1.59-2.63-3.13-4.08-4.59-1.64-1.65-3.35-3.26-5.07-4.83s-3.26-2.75-5-4.06c-1.52-1.17-3.06-2.31-4.66-3.38a32.94,32.94,0,0,0-5.56-2.81,38.56,38.56,0,0,0-6.48-1.92,53.34,53.34,0,0,0-6.17-.91c-2.71-.29-5.43-.52-8.15-.73a2.61,2.61,0,1,0,0,5.22c2.86.22,5.71.46,8.56.76,1.65.22,3.29.45,4.91.82a39.49,39.49,0,0,1,6.23,2c1.14.56,2.26,1.13,3.35,1.79s2,1.35,3.06,2.06l-.13-.1c2.59,2,5.1,4.06,7.49,6.31,1.27,1.19,2.52,2.42,3.74,3.67s2.59,2.82,3.8,4.32a58.21,58.21,0,0,1,4.63,7.74c.21.42.42.85.62,1.28-1.18,2.47-2.31,5-3.47,7.46-3,6.49-6.07,13-9.45,19.28-3.48,6.49-7.44,12.72-11.4,18.92-3.09,4.85-6.31,9.61-9.38,14.47-2.74,4.35-5.26,8.83-7.92,13.24-2.35,3.92-4.55,7.91-7,11.76-2.35,3.69-5,7.18-7.66,10.66s-5.46,6.62-8.44,9.72-6.06,6.23-9.15,9.28-6.36,6.29-9.71,9.24q-5.31,4.65-10.86,9c-6.7,5.09-13.64,9.89-20.75,14.38l-5.49,3.45c-1.79,1.12-3.61,2.17-5.37,3.33s-3.28,2.32-4.89,3.52-3.34,2.46-5,3.72l.39-.29c-1.6,1.18-3.24,2.25-4.91,3.31-1.24.79-2.35,1.73-3.65,2.42a15.43,15.43,0,0,0-1.53.87,16.72,16.72,0,0,0-2.2,1.92,25.73,25.73,0,0,0-2.62,3.1,20.56,20.56,0,0,0-2.46,3.47,18.49,18.49,0,0,0-.91,2.22c-.25.67-.55,1.32-.8,2-.63,1.71-1.24,3.43-1.92,5.12a53.16,53.16,0,0,0-2.24,6.35,71.4,71.4,0,0,0-1.83,15.08c-.14,3.06-.22,6.12-.28,9.2,0,1.58,0,3.17-.06,4.75s.16,3.22.28,4.81c.24,2.86.49,5.71,1,8.54.26,1.5.63,3,1,4.43.18.59.37,1.18.56,1.78a20.68,20.68,0,0,0,1.07,2.65,46.49,46.49,0,0,0,2.18,4.13c.77,1.27,1.59,2.49,2.45,3.7a44.66,44.66,0,0,0,5.51,6.22c1.89,1.8,3.9,3.48,5.85,5.22s4.09,3.67,6.15,5.49c1.88,1.66,3.81,3.26,5.67,4.93,1.52,1.35,3.12,2.6,4.73,3.84s2.93,2.41,4.37,3.65l2.28,2c.69.6,1.42,1.16,2.09,1.76s1.06.94,1.59,1.39c-1.46.77-2.89,1.59-4.33,2.41-1.91,1.1-3.86,2.13-5.78,3.22q-3.3,1.88-6.52,3.9a48.26,48.26,0,0,0-12,9.42c-3.87,3.86-6.9,8.43-10.12,12.8-2.11,2.68-4.29,5.29-6.34,8a70.19,70.19,0,0,0-4.55,6.51c-.77,1.29-1.54,2.59-2.21,3.94-.91,1.82-1.74,3.66-2.49,5.54-.66,1.69-1.18,3.42-1.75,5.14s-1.08,3.23-1.57,4.85c-1,3.17-1.51,6.45-2.29,9.67a85.42,85.42,0,0,0-1.61,8.53,36.17,36.17,0,0,0-.43,4.41,42.32,42.32,0,0,0,.27,4.35,30.11,30.11,0,0,0,1.23,6.87,22.69,22.69,0,0,0,3.29,5.86c1.25,1.69,2.34,3.48,3.63,5.14a41.48,41.48,0,0,0,4.74,5.18,53.23,53.23,0,0,0,6.54,4.92c1.21.8,2.41,1.61,3.64,2.37,1.45.89,2.92,1.76,4.39,2.62a62.29,62.29,0,0,0,8.46,4.21q2.5,1,5,1.92c-1.5,1.8-2.9,3.69-4.33,5.55a97.65,97.65,0,0,0-9.24,12.8,34.12,34.12,0,0,0-1.68,3.63c-.43,1-.82,2.06-1.15,3.11-.66,2.08-1.4,4.12-1.93,6.24a72.48,72.48,0,0,0-1.75,14.38c-.13,2.85-.12,5.7-.32,8.54-.18,2.67-.56,5.35-.87,8a77.14,77.14,0,0,1-2.78,11.89c-1.3,4-2.77,7.85-4.34,11.72-1.25,2.92-2.54,5.84-3.9,8.71-1.43,3-3,6-4.48,9-2.94,5.79-5.85,11.61-9.28,17.13-1.69,2.73-3.34,5.49-5,8.23s-3.2,5.53-4.77,8.32c-1.34,2.39-2.78,4.72-4.12,7.11-.76,1.36-1.53,2.72-2.25,4.11s-1.33,2.74-2,4.11c-2.28,4.79-4.44,9.63-6.25,14.62-.37,1-.63,2.1-1,3.14-.39,1.24-.82,2.46-1.2,3.7s-.65,2.52-1,3.78-.72,2.53-1.09,3.8c-1.43,4.95-3.48,9.71-4.64,14.74a59.09,59.09,0,0,0-1.06,7.14c-.25,2.46-.24,4.94-.48,7.39-.31,2.1-.63,4.19-.91,6.3-.3,2.37-.45,4.76-.73,7.13-.48,3.07-1,6.12-1.3,9.2s-.58,6.21-.74,9.32a70.69,70.69,0,0,0-.1,7.7c.09,1.38.33,2.78.54,4.15a44.51,44.51,0,0,0,1,4.58c.35,1.33.86,2.64,1.29,3.94s.83,2.64,1.25,4c1,3.19,2.25,6.28,3.55,9.37q2.15,5.07,4.37,10.11c.7,1.57,1.4,3.14,2.14,4.68.84,1.75,1.74,3.45,2.64,5.15.47.89,1,1.74,1.53,2.6.35.58.68,1.16,1,1.72.9,1.43,1.77,2.88,2.72,4.28,2.24,3.29,4.48,6.59,6.85,9.8a199.9,199.9,0,0,0,14.16,17.38c1.36,1.45,2.72,2.88,4.13,4.28,1.24,1.25,2.56,2.42,3.87,3.6,2.74,2.47,5.65,4.77,8.6,7s6,4.27,9.09,6.23,6.55,3.85,9.9,5.66c3.13,1.68,6.36,3.18,9.58,4.68s6.75,3,10.15,4.48c3.1,1.31,6.18,2.64,9.33,3.82q5.46,2.05,11,3.91c3.23,1.09,6.48,2.13,9.73,3.15,3.63,1.13,7.31,2.08,11,3.06s7.33,1.62,11,2.36,7.5,1.38,11.28,1.88c13.52,1.83,27.24,2,40.86,2.24,3.14.05,6.29.07,9.43.1,3.73,0,7.46-.13,11.19-.34s7.39-.49,11.09-.9c3.92-.42,7.81-1,11.7-1.68,3.47-.58,6.92-1.33,10.35-2.09,3.69-.81,7.37-1.64,11-2.53,3.14-.76,6.24-1.64,9.36-2.47s6.21-1.59,9.29-2.47c5.79-1.64,11.59-3.29,17.27-5.28l7.9-2.81c2.9-1,5.87-1.86,8.82-2.72s6.09-1.51,9.13-2.26c3.25-.8,6.5-1.61,9.74-2.46,7.18-1.86,14.41-3.53,21.61-5.29s14.14-3.43,21.25-5c6.56-1.47,13.09-3,19.63-4.55,7.11-1.66,14.25-3.23,21.37-4.86,7.27-1.65,14.64-2.88,22-4.27,3.39-.64,6.74-1.39,10.11-2.11,3.64-.77,7.29-1.53,10.93-2.32l8.88-1.91c.29.79.58,1.58.86,2.36,1.31,3.54,2.59,7.08,3.9,10.6,1.45,3.87,2.82,7.79,4.36,11.62s3.14,7.81,4.7,11.71c.45,1.12,1,2.23,1.44,3.33,1.21,2.76,2.43,5.51,3.65,8.27,1.37,3.11,2.85,6.17,4.31,9.23q2.46,5.16,5,10.27c1.6,3.19,3.17,6.42,4.82,9.59q3.19,6.11,6.39,12.21c2,3.86,4.15,7.67,6.23,11.51,1.81,3.33,3.67,6.63,5.52,9.94,1.58,2.83,3.17,5.64,4.82,8.43l4.22,7.11c.72,1.22,1.42,2.45,2.19,3.64q3.86,6,7.72,12.08c.56.86,1.15,1.7,1.74,2.54l5.39,7.73c.71,1,1.4,2.07,2.16,3.06,1.24,1.66,2.5,3.31,3.76,5,2.35,3.1,4.64,6.26,7.12,9.26l9.37,11.33c2.6,3.14,5.37,6.15,8.06,9.22,2,2.32,4,4.62,6.16,6.86q4.92,5.28,9.85,10.53,7.77,8.28,15.61,16.53,9.29,9.82,18.53,19.69c5.52,5.91,11.1,11.77,16.67,17.64,4.8,5.06,9.68,10.06,14.57,15q8.73,8.89,17.48,17.76,9.14,9.21,18.22,18.46c5.71,5.81,11.34,11.72,17,17.6q15.57,16.24,31.34,32.3,9.06,9.2,18.2,18.31c2.31,2.29,4.59,4.61,6.92,6.88l11.12,10.71c11.28,10.89,22.54,21.81,34,32.55,11.77,11.09,23.44,22.27,35.26,33.3q8.36,7.82,16.62,15.73c5.73,5.51,11.32,11.19,17,16.8s11.16,11.2,16.65,16.87c2.55,2.63,5.12,5.23,7.67,7.84,1.23,1.27,2.49,2.49,3.76,3.71.57.56,1.16,1.11,1.74,1.67s1.29,1.2,2,1.78a6.88,6.88,0,0,0,2.35,1.38,4,4,0,0,0,2.93.39,3.81,3.81,0,0,0,.91-7l-1.32-.65c-5.3-4.84-10.27-10.06-15.26-15.21-5.29-5.46-10.65-10.83-16-16.2-2.34-2.36-4.72-4.69-7.07-7-3-3-5.93-6-9-8.87q-8.39-8.07-16.9-16c-11.7-10.93-23.26-22-34.92-33-11.5-10.83-22.85-21.83-34.22-32.79-6-5.73-11.9-11.46-17.75-17.29q-9.21-9.15-18.31-18.39-16-16.2-31.69-32.64c-5.52-5.76-11-11.55-16.62-17.24q-9-9.21-18.12-18.38t-17.9-18.17c-2.05-2.08-4.08-4.19-6.11-6.29-2.93-3-5.88-6-8.77-9.06q-11.41-12-22.76-24.14c-6.49-6.95-13.06-13.83-19.58-20.75q-5.14-5.43-10.27-10.89l-7.47-8c-1.18-1.26-2.4-2.51-3.54-3.81l-11.12-12.7c-1.67-1.91-3.24-3.91-4.86-5.87-1.89-2.27-3.76-4.55-5.65-6.81l-5.2-6.86c-1.58-2.07-3.2-4.12-4.69-6.25q-3.6-5.15-7.18-10.3c-1.49-2.14-2.85-4.36-4.26-6.54-1.66-2.61-3.34-5.23-5-7.84-.64-1-1.21-2-1.82-3.08l-3.55-6c-3.29-5.54-6.39-11.18-9.54-16.8-1.13-2-2.21-4.08-3.32-6.12-1.49-2.74-3-5.47-4.46-8.24-2.9-5.54-5.83-11.05-8.63-16.64q-2.37-4.77-4.76-9.54c-1.56-3.11-3-6.29-4.49-9.43-2.43-5.1-4.65-10.28-6.92-15.44l-3.76-9.37c-1.12-2.79-2.17-5.62-3.23-8.45q-3.35-8.94-6.63-17.91l4.26-.9q5.24-1.11,10.44-2.33c4-.92,8-1.95,11.94-2.93,3.54-.87,7.1-1.67,10.62-2.59s6.78-1.7,10.17-2.54,7-1.7,10.49-2.53,7.21-1.64,10.82-2.51c7-1.67,14-3.13,21-4.47,3.3-.63,6.57-1.32,9.85-2.06,3.77-.87,7.57-1.65,11.35-2.46,7.46-1.6,14.93-3.12,22.4-4.63,3.47-.7,6.95-1.36,10.44-2.05,3.82-.76,7.71-1.26,11.55-1.91,7.18-1.22,14.33-2.54,21.45-4.11,7.27-1.6,14.53-3.22,21.8-4.79,7.5-1.61,15-3.44,22.41-5.3,3.65-.91,7.28-1.87,10.89-3s6.92-2.16,10.37-3.28q4.65-1.5,9.28-3.13c3-1.07,6-2.34,9-3.61,5.61-2.41,11.09-5.1,16.64-7.64,6-2.75,11.89-5.8,17.79-8.74,3.24-1.62,6.48-3.22,9.71-4.88s6.43-3.2,9.62-4.86c6.83-3.57,13.64-7.15,20.41-10.82,3.12-1.7,6.18-3.51,9.24-5.3,1.49-.87,3-1.76,4.46-2.64,1.76-1,3.45-2.19,5.16-3.3,2.76-1.82,5.45-3.78,8.15-5.7q4.88-3.43,9.58-7.13c5.93-4.69,11.46-9.87,16.92-15.11,2.38-2.28,4.62-4.68,6.88-7.09,2.41-2.57,4.73-5.29,6.93-8a113.32,113.32,0,0,0,11.61-17.1c1.34-2.5,2.63-5,4-7.5,1.45-2.69,2.87-5.4,4.21-8.15,2.59-5.27,4.93-10.68,7.15-16.12,2.36-5.8,4.68-11.61,6.86-17.49a193.19,193.19,0,0,0,6-19.05q1.3-5.19,2.39-10.42c.76-3.71,1.53-7.41,2.06-11.15q1.49-10.11,2-20.33c.37-7.65.52-15.3.62-23s.15-15.15.19-22.72.09-15.22-.25-22.83-.66-15-1.51-22.42q-.6-5.31-1.46-10.57c-.57-3.46-1.37-6.88-2.21-10.29-1.81-7.4-3.6-14.8-5.59-22.15s-3.86-14.51-5.81-21.75c-3.63-13.42-7.55-26.77-11.57-40.08-1.1-3.62-2.23-7.23-3.5-10.79-1.39-3.91-2.95-7.77-4.49-11.63-3.16-7.91-6.5-15.76-9.91-23.55-3-7.18-5.7-14.46-8.2-21.82-1.25-3.67-2.4-7.36-3.52-11.06s-2.1-7.7-3.07-11.57c-.85-3.46-1.56-6.94-2.29-10.42q-1.24-6-2.2-12.06-1.87-11.61-3.59-23.23c-1-8.08-2-16.16-3.15-24.23v0c-1-7.53-1.82-15.06-2.7-22.6-.41-3.59-.75-7.18-1.2-10.76-.47-3.77-1-7.54-1.36-11.33-.82-7.91-1.75-15.81-2.44-23.74-.67-7.61-.92-15.24-1.46-22.85s-1.12-15.07-1.49-22.62c-.35-7.25-.53-14.51-.61-21.77-.05-3.92-.06-7.85,0-11.78l1.77-1.12c6.51-4.11,13.06-8.16,19.51-12.36,12.4-8,24.64-16.37,36.37-25.37q9.54-7.32,19-14.75c5.77-4.55,11.18-9.56,16.49-14.62s11-10.23,16.19-15.69c2.39-2.53,4.74-5.1,7.1-7.66q1.89-2.05,3.73-4.16c1.26-1.44,2.41-3,3.58-4.51a79.49,79.49,0,0,0,5.51-8.13,61.59,61.59,0,0,0,4.31-9.42,72.29,72.29,0,0,0,2.83-9.91c.42-1.86.65-3.77.93-5.65a52.41,52.41,0,0,0,.48-7.08,38.26,38.26,0,0,0-1.39-9,47.68,47.68,0,0,0-1.52-4.7,42.86,42.86,0,0,0-2-4.54,37.6,37.6,0,0,0-2.44-4.22q-.91-1.21-1.89-2.4a22.51,22.51,0,0,0-3-2.81,24.45,24.45,0,0,0-4.33-2.76,28.71,28.71,0,0,0-5-2,36.85,36.85,0,0,0-4.75-1,40.45,40.45,0,0,0-5.82-.5c-.55,0-1.11,0-1.66,0-1.27,0-2.54.06-3.82.14m2.15,7.51c1.11,0,2.22,0,3.33,0,1.41.05,2.78.16,4.17.3l2.08.38a33.84,33.84,0,0,1,4.19,1.18l1.33.61a22.81,22.81,0,0,1,3,1.8l1.27,1.1a23.59,23.59,0,0,1,2.72,3.1l-.59-.76a26.7,26.7,0,0,1,2.18,3.69c.34.62.63,1.28.94,1.92.48,1.2.93,2.4,1.36,3.62a43.62,43.62,0,0,1,1.65,6.88l.18,2.52c0,1,0,2.06-.08,3.1s-.15,1.78-.24,2.67a76.43,76.43,0,0,1-1.59,8.22c-.37,1.44-.79,2.86-1.23,4.29s-1,2.82-1.56,4.21c-.86,1.95-1.8,3.84-2.8,5.72a62.63,62.63,0,0,1-4.59,6.94c-1.68,2.15-3.4,4.25-5.21,6.32-1.24,1.41-2.55,2.77-3.83,4.17l-3.55,3.83c-2.35,2.52-4.73,5-7.22,7.36s-5.13,4.87-7.7,7.3-4.9,4.7-7.41,7q-4,3.65-8.08,7.19c-1.24,1.09-2.55,2.1-3.83,3.14s-2.83,2.24-4.25,3.36c-2.84,2.25-5.72,4.44-8.59,6.67l.21-.16-.48.37-.29.23.14-.12c-5.87,4.49-11.76,8.92-17.76,13.21-6.16,4.41-12.51,8.56-18.81,12.76s-13,8.37-19.55,12.49l-1.46.91c0-.61.09-1.23.15-1.84.29-3.59.65-7.18,1-10.75s.83-7.21,1.29-10.81c.1-.85.21-1.7.31-2.55.61-4.09,1.23-8.18,1.93-12.26.77-4.54,1.81-9,2.94-13.48,1-4.14,2.22-8.25,3.62-12.28.67-1.94,1.3-3.88,2-5.79.92-2.41,1.83-4.81,2.76-7.21.74-1.72,1.49-3.42,2.23-5.13.81-1.86,1.68-3.68,2.57-5.51.72-1.49,1.42-3,2.19-4.43,1-1.83,1.88-3.7,2.9-5.48q3.08-5.34,6.25-10.62c1-1.75,2.26-3.41,3.39-5.11.47-.7,1-1.37,1.52-2,.68-.89,1.34-1.79,2-2.68,1.66-2,3.29-4.06,5-6,1.16-1.29,2.32-2.59,3.49-3.88,1.33-1.49,2.78-2.88,4.18-4.33,2.18-2.25,4.49-4.39,6.8-6.5s4.69-4.05,7.1-6c2.15-1.61,4.31-3.19,6.56-4.66a56.45,56.45,0,0,1,7.43-3.89,38.85,38.85,0,0,1,5.17-1.76c1.15-.29,2.28-.61,3.45-.84s2.39-.5,3.6-.68l2.9-.44a70.07,70.07,0,0,1,7.09-.57m16.35,60.76-.52.66c.17-.22.34-.45.52-.66m-664.64,47.37c1.89.14,3.77.34,5.65.57.78.13,1.55.26,2.32.44a30,30,0,0,1,3.48,1l.6.27a15.26,15.26,0,0,1,1.87,1.1,26.49,26.49,0,0,1,2.35,2.27c.38.42.73.85,1.08,1.29a78.82,78.82,0,0,1,8.08,14.68,52.28,52.28,0,0,1,1.91,5.79c.51,2,.89,3.92,1.23,5.91.37,2.85.69,5.7.9,8.58s.43,5.9.67,8.85c.29,3.6.57,7.21.81,10.81.2,2.89.28,5.81.38,8.72.11,3.39.21,6.79.21,10.19,0,3.19-.21,6.38-.38,9.56s-.39,6.47-.65,9.7c-.24,3-.6,6-1,9-.74,4.85-1.54,9.73-2.58,14.53a91.11,91.11,0,0,1-4.18,13.9c-.86,1.85-1.77,3.67-2.72,5.49a48.69,48.69,0,0,1-4.12,6.33A58,58,0,0,1,1760,2657c-1.75,1.67-3.61,3.22-5.52,4.71-.73.55-1.46,1.08-2.2,1.59a44,44,0,0,1-4.08,2.4l-.91.37a16.3,16.3,0,0,1-2.66.71,17.66,17.66,0,0,1-2.91,0l-1.08-.11c-1.57-.29-3.1-.63-4.64-1a41.46,41.46,0,0,1-4.43-1.54c-2-.93-4-1.89-6-2.95-1.09-.59-2.13-1.33-3.16-2s-1.9-1.3-2.85-1.94c-3-2-5.9-4.12-8.77-6.28a89.17,89.17,0,0,1-7.9-6.89,99.65,99.65,0,0,1-7.79-8.76c-2.76-3.65-5.46-7.35-8-11.16-1.4-2.06-2.76-4.15-4-6.31s-2.35-4.21-3.44-6.36c-1.83-3.59-3.51-7.27-5.15-10.95,2.53-5.21,5.31-10.29,8-15.43q2.05-4,4-8c1.35-2.74,2.74-5.46,4.06-8.22,1.24-2.58,2.45-5.19,3.63-7.81q2.11-4.73,4.39-9.38c1.63-3.37,3.26-6.71,5.14-9.94q1.38-2.4,2.77-4.78c.91-1.56,1.88-3.07,2.79-4.62,1.29-2.2,2.56-4.38,3.92-6.53q1.53-2.45,3.19-4.81c.66-.94,1.37-1.86,2.06-2.78.95-1.19,1.9-2.36,2.95-3.47a45.09,45.09,0,0,1,4.43-4.09c1.83-1.33,3.73-2.51,5.67-3.66a57.89,57.89,0,0,1,6.36-3.16l1.27-.5a20.52,20.52,0,0,1,4.24-1.1,45.82,45.82,0,0,1,5.86.06m307.24,200.4c1.33-1,2.75-1.81,4.13-2.7,3.36-2.14,6.68-4.38,10.09-6.46q9.84-6,19.81-11.77c6.26-3.62,12.58-7.13,18.86-10.71,6.48-3.68,13-7.39,19.27-11.34,12.24-7.66,24.62-15.1,37-22.58,3-1.85,6.13-3.66,9.22-5.46s6.39-3.74,9.61-5.56c6.53-3.7,13-7.49,19.49-11.25,12.34-7.16,24.41-14.78,36.74-22,6.09-3.55,12.28-6.92,18.42-10.36,6.49-3.65,12.88-7.47,19.29-11.24q4.62-2.72,9.16-5.54c0,.61,0,1.23,0,1.85,0,3.9.1,7.81.18,11.7s.2,7.59.33,11.38c.27,7.33.77,14.64,1.33,22,.61,7.75.92,15.52,1.45,23.28.51,7.4,1.42,14.76,2.19,22.14s1.72,15,2.56,22.54c.42,3.69.86,7.38,1.27,11.07.42,3.86.84,7.72,1.34,11.57s1.05,7.9,1.61,11.84c.65,5.09,1.26,10.18,1.92,15.26.74,5.76,1.65,11.49,2.49,17.23.8,5.32,1.7,10.64,2.61,16s2.1,10.56,3.31,15.81a264.36,264.36,0,0,0,9.16,30.31c1.9,5.24,3.9,10.44,6.05,15.58,1.07,2.55,2.2,5.07,3.29,7.62s2.25,5.33,3.37,8c-.09-.22-.19-.44-.29-.67,2.2,5.34,4.39,10.68,6.48,16.07,1.85,4.75,3.38,9.62,4.86,14.49,3.12,10.36,6.22,20.73,9.11,31.14q2.2,7.93,4.31,15.87c1.5,5.63,3,11.27,4.52,16.92s2.88,11.2,4.24,16.82c.72,3,1.45,5.91,2.09,8.88.57,2.64,1,5.29,1.45,8,.55,4.18,1,8.37,1.34,12.59.38,5,.6,10,.82,15.06.43,9.83.27,19.67.21,29.5-.05,9.57-.11,19.12-.38,28.67-.25,8.88-.7,17.73-1.76,26.55q-.55,3.83-1.24,7.63c-.56,3-1.22,6-1.83,9-.57,2.79-1.31,5.55-2,8.3-.76,3-1.68,5.88-2.62,8.79-3.27,10.07-7.24,19.88-11.26,29.66-1.35,3.11-2.72,6.22-4.18,9.28-1.7,3.53-3.49,7-5.35,10.44s-3.44,6.77-5.4,10a122.72,122.72,0,0,1-7.67,11.22,171.11,171.11,0,0,1-14.89,16.5c-3.21,3.08-6.47,6.08-9.75,9.08-2.88,2.62-5.92,5-9,7.45-4.32,3.17-8.69,6.26-13.09,9.32-4.58,3.18-9.39,6-14.2,8.75-4.63,2.7-9.34,5.25-14.09,7.73s-9.19,5-13.86,7.29c-4.82,2.42-9.61,4.88-14.43,7.27-2.37,1.17-4.72,2.36-7.1,3.51s-4.46,2.28-6.7,3.39q-6.75,3.35-13.61,6.45c-3.85,1.75-7.68,3.53-11.56,5.21-2.69,1.09-5.39,2.12-8.14,3.09-3.33,1.17-6.71,2.24-10.08,3.32s-6.63,2.16-10,3.09c-3.95,1.11-7.92,2.12-11.9,3.08-7.32,1.77-14.65,3.53-22,5.1s-14.56,3.26-21.85,4.81-14.43,2.78-21.68,4c-3.6.59-7.2,1.17-10.78,1.87l-11.43,2.26c-7.48,1.51-15,3.09-22.4,4.68-3.52.76-7,1.52-10.56,2.32s-7,1.39-10.48,2.09-6.89,1.36-10.31,2.13-6.75,1.59-10.14,2.37c-7.14,1.65-14.26,3.33-21.37,5.1-3.25.79-6.49,1.65-9.74,2.44-4,1-8,1.88-11.92,2.91-7.19,1.86-14.45,3.38-21.69,5l-1.57.34c-1.45-4.1-2.88-8.22-4.32-12.32-2.13-6.07-4.24-12.16-6.41-18.22-2.24-6.26-4.53-12.52-6.63-18.83-1-3.12-2.13-6.23-3.12-9.36-1.07-3.36-2.22-6.7-3.17-10.09-.88-3.13-1.8-6.25-2.55-9.41s-1.5-6.47-2.11-9.75-1.25-6.83-1.78-10.27c-.46-3.07-.88-6.15-1.3-9.24q-2.45-19.53-4.78-39.07c-.4-3.43-1-6.85-1.44-10.26-.41-2.95-.88-5.88-1.31-8.82-.93-6.33-1.78-12.66-2.64-19-.4-3.25-.84-6.5-1.19-9.75-.47-4.41-.92-8.8-1.35-13.21-.32-3.44-.5-6.91-.69-10.37l-.36-6.44c-.14-2.51-.17-5-.25-7.56-.13-3.77-.12-7.55-.16-11.33,0-1.63.09-3.28.15-4.92,0-1.86.08-3.72.19-5.58l.42-7.06c.11-1.93.31-3.85.48-5.77.32-3.69.77-7.36,1.2-11s1.07-7.11,1.64-10.66,1.19-7.31,1.9-10.94q2.45-12.48,5.11-24.9c1.55-7.26,3.39-14.46,5.19-21.66q1.48-5.94,3-11.85c1-4,2.2-7.93,3.31-11.89,4-14.56,8.26-29.09,12.74-43.52,1-3.18,2.12-6.32,3.23-9.45,1.24-3.5,2.53-7,3.82-10.45,2.59-7,5.55-13.87,8.34-20.79l2.28-5.64c4.74-11.05,9.73-22,14.78-32.89,1.15-2.48,2.34-4.95,3.48-7.44,1.31-2.88,2.57-5.78,3.86-8.68,1.08-2.42,2.14-4.87,3.31-7.27q2.05-4.22,4.21-8.4c2.88-5.54,6.36-10.78,9.75-16,3.29-5.09,6.65-10.17,10.09-15.17,6.88-10,14.07-19.75,21.38-29.43q2.41-3,4.85-6.08c1.76-2.18,3.65-4.26,5.51-6.35,3.58-4,7.1-8.1,10.88-11.91,4.07-4.09,8.42-7.88,12.78-11.66s8.71-7.28,13.15-10.82q1.92-1.38,3.84-2.73m-409.94-128.26.39.31-.39-.31m48.71,61,.27.35-.27-.35m15.64,15.54.4.31-.4-.31m38.11,14.38-.23.08.23-.08m-202.82,202.53.44.34-.44-.34m-3.22,7,.43.33-.43-.33m391.55,2.86-.19.45c.06-.15.12-.3.19-.45m-375.51,2.93-.66.3s0,0,0,0l.62-.26m-50.52,41.88-.43.56.43-.56M2368.66,2968s0,.08,0,.12,0-.08,0-.12M1615,2986.94c2.19-.18,4.39-.27,6.58-.33,5.15-.14,10.3,0,15.44.15,10,.26,20.06.78,30,1.93l-.22,0c4.22.58,8.44,1.2,12.66,1.76l-1-.13c2.67.39,5.32.84,8,1.34s5.13.94,7.68,1.53c2.22.5,4.4,1.17,6.58,1.81,2.76.82,5.43,1.84,8.09,2.91a81.43,81.43,0,0,1,8.88,4.65c2.7,1.64,5.31,3.39,7.86,5.26.39.31.77.62,1.14,1a21.06,21.06,0,0,1,1.81,1.85,15.19,15.19,0,0,1,.82,1.32c0,.13.07.26.11.39v.06l0,.13-.18.18a34.14,34.14,0,0,1-3.66,2c-1.65.67-3.29,1.36-4.92,2.05l.43-.18a71.31,71.31,0,0,1-7.24,2.53,70.2,70.2,0,0,1-8.61,1.74c-2.79.31-5.58.48-8.39.55-3.14.07-6.31,0-9.45-.13q-9.81-.25-19.61-.78c-5.74-.3-11.48-.79-17.22-.82-6.46,0-12.92,0-19.39,0-12.73,0-25.47,0-38.2-.51q-8.6-.33-17.15-1.3c-2.59-.29-5.17-.57-7.77-.74s-5-.38-7.46-.68a52.43,52.43,0,0,1-7.51-1.65c-2.26-.69-4.47-1.57-6.68-2.4l.2-.16a119.34,119.34,0,0,1,12.08-7.84c2.26-1.27,4.56-2.45,6.88-3.61,2.13-1.07,4.33-2,6.51-3l-.91.38c2.72-1.14,5.45-2.23,8.22-3.26s5.81-1.93,8.75-2.79a164.19,164.19,0,0,1,20.08-4.42c2.27-.27,4.54-.54,6.81-.72m114.31,24.46a3.51,3.51,0,0,1,.09.65v0Zm.43.35a4.77,4.77,0,0,1-.22.52l.22-.52m-.34.35h0v.06a.2.2,0,0,0,0-.07m-.55.88-.14.12.14-.12m456.05,264.15-.49.21.49-.21m168.28-764.79.15-.11.27-.21-.42.32"/><path class="cls-2" d="M1545,2765.26a3.81,3.81,0,0,0-.91,7,4,4,0,0,0,2.93.38c2-.39,3.93-.75,5.9-1.06a31.64,31.64,0,0,1,5.92-.09,32.44,32.44,0,0,1,5.3,1.44,36.08,36.08,0,0,1,4.92,2.5c1.94,1.22,3.85,2.49,5.78,3.75,3.79,2.49,7.6,5,11.23,7.67,2.79,2.25,5.45,4.67,8,7.16s5.39,5.23,7.94,8c1.27,1.37,2.45,2.83,3.69,4.24s2.61,3,3.89,4.57c2.3,2.77,4.57,5.57,6.81,8.37,2.27,3,4.43,6.14,6.55,9.28,2.34,3.46,4.62,7,7.13,10.29s5.2,6.69,7.91,9.94c2.52,3.05,5.36,5.81,8,8.76s5.38,6.26,8.16,9.31,5.49,6.15,8.17,9.28,5.4,6,8.06,9.11,5.31,6,8,9c5.3,6,11.05,11.63,16.71,17.31s11.79,11,18,16.2a174.75,174.75,0,0,0,20,14.59c3.5,2.17,7,4.35,10.47,6.58,3.23,2.08,6.37,4.31,9.64,6.35,1.92,1.19,3.88,2.32,5.8,3.51s4,2.41,6,3.52c.91.49,1.88.87,2.8,1.31l3.17,1.56,3,1.46a32.06,32.06,0,0,0,3.42,1.3,3.4,3.4,0,0,1,.3.23,3.65,3.65,0,0,0,2.94.39,3.82,3.82,0,0,0,2.66-4.68,4.12,4.12,0,0,0-1.75-2.28,8.83,8.83,0,0,0-2.74-1.2l-1.07-.38c-1.71-.81-3.41-1.65-5.11-2.5s-3.38-1.58-5-2.46-3.33-2-5-3-3.42-2-5.1-3.08c-3.35-2.1-6.59-4.36-9.91-6.51s-6.84-4.34-10.28-6.48c-4.79-3-9.36-6.25-13.87-9.62-6.37-5-12.46-10.38-18.44-15.85-2.89-2.65-5.61-5.47-8.36-8.25-2.91-2.93-5.82-5.86-8.67-8.86-5.5-5.79-10.62-11.93-16-17.86-2.68-3-5.31-6-8-9s-5.41-6.06-8.09-9.11c-1.56-1.76-3-3.58-4.61-5.34s-3-3.23-4.52-4.86c-3.12-3.38-6-6.94-8.86-10.54q-3.49-4.66-6.73-9.5c-2.28-3.4-4.54-6.79-7-10.09s-5.17-6.52-7.78-9.78-5.19-6.22-7.86-9.27-5.53-5.87-8.43-8.68-5.79-5.47-8.9-8-6.76-4.86-10.24-7.13c-3.17-2.08-6.27-4.28-9.57-6.14a35.13,35.13,0,0,0-5.36-2.47,30.1,30.1,0,0,0-6.89-1.65,26.64,26.64,0,0,0-2.82-.15,57.79,57.79,0,0,0-11.39,1.54"/><path class="cls-2" d="M1526.74,2767.87a1.65,1.65,0,0,0,.48,1.16,1.69,1.69,0,0,0,1.16.48c2.24.23,4.49.43,6.74.65a3.4,3.4,0,0,0-1.94,1.29,1.87,1.87,0,0,0,0,1.87,1.72,1.72,0,0,0,.45.51,19.07,19.07,0,0,0-2.3,1.81,2.29,2.29,0,0,0,1.62,3.91,2.42,2.42,0,0,0,1.62-.67l.59-.47a14.48,14.48,0,0,1,2.44-1.34c1.24-.5,2.53-.91,3.82-1.3.62-.2,1.23-.39,1.85-.57l1.26-.1c.82-.06,1.66-.15,2.48-.25.6-.07,1.19-.16,1.78-.24.35-.05.7-.12,1-.2a2.7,2.7,0,0,0,.57-.18l.5-.21a5.9,5.9,0,0,0,.62-.5,1.85,1.85,0,0,0,.41-.58l.42-.11a3.34,3.34,0,0,0,1.87-.88,2.35,2.35,0,0,0,.63-1.07,2.39,2.39,0,0,0,0-1.3,2.42,2.42,0,0,0-2.34-1.78c-.91.07-1.78.29-2.68.42l-1.8.27c-1.23.18-2.47.36-3.71.56l-1.07.19a1.74,1.74,0,0,0-.27-.57c-1-1.36-3-1.28-4.47-1.43l-10.13-1h-.12a1.66,1.66,0,0,0-1.52,1.64"/><path class="cls-2" d="M1543.52,2880.84a4.61,4.61,0,0,0-2.8,2,3.72,3.72,0,0,0-.6,1.31,4.47,4.47,0,0,0,.05,2.12,4.34,4.34,0,0,0,2.54,2.77,8.89,8.89,0,0,0,2.18.68c.82.12,1.63.23,2.45.32,1.79.36,3.54.87,5.34,1.2,2.13.39,4.27.63,6.43.84s4.07.82,6.13,1.14c2.52.39,5,.66,7.6.89a57.85,57.85,0,0,1,7.87,2.12c2.81.91,5.56,2,8.29,3.16l-.91-.38a106,106,0,0,1,17.57,10.48c1.93,1.56,3.91,3,5.91,4.52,1.42,1.08,2.88,2.13,4.32,3.2.93.73,1.85,1.46,2.8,2.17l-.08-.06c.74.58,1.5,1.15,2.25,1.72,3.7,3,7.39,6,11.21,8.82,1.8,1.33,3.66,2.57,5.47,3.88s3.62,2.65,5.42,4c1.22,1,2.44,1.92,3.59,3,1.31,1.19,2.56,2.44,3.81,3.7,2.52,2.6,5,5.22,7.64,7.73,1.28,1.22,2.65,2.35,4,3.55s2.67,2.35,4,3.49,2.66,2.16,4,3.28c1.49,1.26,3,2.53,4.53,3.7s2.91,2.17,4.36,3.24,2.83,2.1,4.31,3.05c2.87,1.87,5.75,3.73,8.72,5.47s6,3.52,9,5.26c1.52.88,3,1.84,4.56,2.65l5.07,2.61a87.66,87.66,0,0,0,10.77,4.9c1.52.54,3,1.16,4.56,1.64,1.75.53,3.5,1,5.28,1.38a72.89,72.89,0,0,0,11.42,1.31c3.42.19,6.87.26,10.3.24a54.5,54.5,0,0,0,7.65-.9c1.58-.2,3.16-.38,4.75-.52a25.48,25.48,0,0,0,3.38-.49c.84-.18,1.67-.4,2.51-.6,1.77-.42,3.58-.68,5.31-1.26,1-.32,1.92-.64,2.89-.94a30,30,0,0,0,2.89-1.15,66.17,66.17,0,0,0,10.54-5.46c.77-.49,1.51-1,2.28-1.49s1.49-.9,2.21-1.38c.89-.59,1.77-1.16,2.7-1.67.46-.25.93-.47,1.39-.72a13.91,13.91,0,0,0,2.43-1.91l.49-.31a9.16,9.16,0,0,0,1.32-1,4.65,4.65,0,0,0,1.07-1.93,3.78,3.78,0,0,0-1.74-4.27,3.89,3.89,0,0,0-4.84.84l-.43.28a20.51,20.51,0,0,0-1.84,1.51c-.78.48-1.62.86-2.41,1.33s-1.45.93-2.18,1.4l-4.08,2.6a86.57,86.57,0,0,1-8.56,4.69l-2.47,1,.91-.39c-1.07.44-2.16.77-3.25,1.14a28.51,28.51,0,0,1-3.91,1.12c-2.06.4-4.08,1-6.15,1.36q-5,.51-10,1.27a70.63,70.63,0,0,1-9.43.1c-3.29-.08-6.56-.27-9.82-.63a49.24,49.24,0,0,1-7.31-1.55c-2.54-.78-5-1.69-7.52-2.65-3.17-1.43-6.29-3-9.37-4.56s-6.22-3.44-9.29-5.25c-6-3.51-12.06-6.87-17.67-10.94-2.11-1.53-4.24-3-6.32-4.61-2.55-2.07-5.05-4.17-7.56-6.26-1.43-1.18-2.84-2.38-4.19-3.64s-2.58-2.23-3.81-3.41c-2.64-2.54-5.16-5.19-7.73-7.8a73.25,73.25,0,0,0-8.4-7.44c-2.43-1.82-4.85-3.65-7.35-5.37q-3.45-2.39-6.77-4.94c-3.1-2.48-6.16-5-9.32-7.39-.55-.43-1.1-.86-1.65-1.27-1.88-1.47-3.8-2.86-5.7-4.29-1.33-1-2.66-2-4-3s-2.67-2.13-4-3.14-3-2.06-4.53-3a99,99,0,0,0-8.82-5.1,105.2,105.2,0,0,0-10.08-4.3c-.76-.28-1.52-.51-2.29-.76s-1.69-.62-2.57-.83c-1.69-.4-3.38-.93-5.11-1.21-2.32-.38-4.69-.51-7-.78-1.79-.28-3.56-.63-5.34-1l-.41-.07a2.93,2.93,0,0,0-.34-.89,2.88,2.88,0,0,0-1.79-1.38l-5.79-1c-2.3-.4-4.62-.92-7-1.11-.28,0-.55,0-.83,0a19.1,19.1,0,0,0-2.92.27M1760.17,2997l-.65.09.65-.09"/><path class="cls-2" d="M1730.3,2928.25a2.58,2.58,0,0,0,0,3.62c2.47,2,5,4,7.45,5.94,2.29,1.81,4.55,3.69,6.92,5.39,1,.74,2.06,1.5,3.13,2.2s2.34,1.49,3.51,2.24,2.36,1.58,3.53,2.38,2.23,1.54,3.32,2.35c.78.61,1.57,1.2,2.36,1.79.94.76,1.89,1.52,2.86,2.24.77.58,1.59,1.06,2.41,1.57s1.67,1,2.54,1.46,1.83.81,2.76,1.18,1.8.93,2.71,1.37,1.92,1.1,2.89,1.63,2.06,1.11,3.08,1.69a30.93,30.93,0,0,0,4,1.74l-.27-.11c.65.27,1.31.53,2,.84.92.43,1.82.9,2.75,1.31,2.17,1,4.41,1.71,6.63,2.55a35.78,35.78,0,0,0,6.08,1.75c2,.37,4.09.56,6.14.81l.4.11-.21-.09.6.25a3.73,3.73,0,0,0,2,0,3.75,3.75,0,0,0,.9-6.86,9.84,9.84,0,0,0-1.71-.72,10.25,10.25,0,0,0-1.7-.22l-1.29-.11-2-.22a34.42,34.42,0,0,1-5.76-1.35c-1.08-.37-2.14-.78-3.21-1.16s-2-.67-3.06-1c-1.39-.62-2.76-1.29-4.18-1.85-1.27-.51-2.56-1-3.83-1.48-2.56-1.24-5-2.64-7.68-3.72l.61.25c-1.05-.46-2.09-.92-3.15-1.35-.87-.34-1.77-.6-2.66-.91a35.86,35.86,0,0,1-5.72-3.25c-2.14-1.5-4.27-3-6.49-4.42s-4.59-2.86-6.91-4.24-4.37-2.81-6.45-4.37c-3.89-3-7.78-6.08-11.61-9.19a2.73,2.73,0,0,0-1.81-.75,2.58,2.58,0,0,0-1.82.75m76.2,45.67.28.12-.28-.12m.55.23.12,0-.12,0m-29.93-18.08-.2-.09.2.09"/></g></g></svg>